M48
; DRILL file {KiCad (5.1.6)-1} date 03/31/21 20:23:40
; FORMAT={-:-/ absolute / inch / decimal}
; #@! TF.CreationDate,2021-03-31T20:23:40+03:00
; #@! TF.GenerationSoftware,Kicad,Pcbnew,(5.1.6)-1
; #@! TF.FileFunction,Plated,1,2,PTH
FMAT,2
INCH
T1C0.0197
T2C0.0236
T3C0.0295
T4C0.0315
T5C0.0469
T6C0.1181
%
G90
G05
T1
X1.2014Y-4.01
X1.2274Y-3.9474
X1.2274Y-4.0726
X1.29Y-3.9214
X1.29Y-4.0986
X1.3526Y-3.9474
X1.3526Y-4.0726
X1.3786Y-4.01
X2.6214Y-4.01
X2.6474Y-3.9474
X2.6474Y-4.0726
X2.71Y-3.9214
X2.71Y-4.0986
X2.7726Y-3.9474
X2.7726Y-4.0726
X2.7986Y-4.01
X1.2014Y-2.16
X1.2274Y-2.0974
X1.2274Y-2.2226
X1.29Y-2.0714
X1.29Y-2.2486
X1.3526Y-2.0974
X1.3526Y-2.2226
X1.3786Y-2.16
X2.6228Y-2.16
X2.6488Y-2.0974
X2.6488Y-2.2226
X2.7114Y-2.0714
X2.7114Y-2.2486
X2.7741Y-2.0974
X2.7741Y-2.2226
X2.8Y-2.16
T2
X1.5Y-2.94
X1.53Y-3.02
X1.72Y-2.36
X1.77Y-2.72
X1.77Y-2.9
X1.86Y-3.48
X1.87Y-3.12
X2.075Y-2.36
X2.39Y-3.85
X2.43Y-2.36
X2.45Y-3.44
X2.69Y-3.64
T3
X2.44Y-2.89
X2.44Y-2.94
X2.44Y-2.99
X1.65Y-3.97
X1.7Y-3.97
X1.75Y-3.97
T4
X1.97Y-2.66
X1.97Y-2.76
X1.97Y-2.86
X1.97Y-2.96
X1.97Y-3.06
X1.97Y-3.16
X1.97Y-3.26
X1.97Y-3.36
X1.97Y-3.46
X1.97Y-3.56
X1.97Y-3.66
X1.97Y-3.76
X1.97Y-3.86
X1.97Y-3.96
X2.27Y-2.66
X2.27Y-2.76
X2.27Y-2.86
X2.27Y-2.96
X2.27Y-3.06
X2.27Y-3.16
X2.27Y-3.26
X2.27Y-3.36
X2.27Y-3.46
X2.27Y-3.56
X2.27Y-3.66
X2.27Y-3.76
X2.27Y-3.86
X2.27Y-3.96
T5
X2.23Y-2.24
X2.33Y-2.24
X1.52Y-2.24
X1.62Y-2.24
X2.68Y-3.27
X2.68Y-3.37
X2.68Y-2.51
X2.68Y-2.61
X2.68Y-2.71
X2.68Y-2.81
X1.33Y-3.66
X1.33Y-3.76
X1.33Y-3.38
X1.33Y-3.48
X1.33Y-3.1
X1.33Y-3.2
X1.33Y-2.62
X1.33Y-2.72
X1.33Y-2.82
X1.33Y-2.92
X2.68Y-2.99
X2.68Y-3.09
X1.875Y-2.24
X1.975Y-2.24
T6
X1.29Y-4.01
X2.71Y-4.01
X1.29Y-2.16
X2.7114Y-2.16
T0
M30
