%TF.GenerationSoftware,KiCad,Pcbnew,(5.1.6)-1*%
%TF.CreationDate,2021-03-31T20:23:18+03:00*%
%TF.ProjectId,reflow_oven,7265666c-6f77-45f6-9f76-656e2e6b6963,rev?*%
%TF.SameCoordinates,Original*%
%TF.FileFunction,Legend,Top*%
%TF.FilePolarity,Positive*%
%FSLAX46Y46*%
G04 Gerber Fmt 4.6, Leading zero omitted, Abs format (unit mm)*
G04 Created by KiCad (PCBNEW (5.1.6)-1) date 2021-03-31 20:23:18*
%MOMM*%
%LPD*%
G01*
G04 APERTURE LIST*
%ADD10C,0.150000*%
%ADD11C,0.120000*%
G04 APERTURE END LIST*
D10*
X56269142Y-52789142D02*
X56354857Y-52817714D01*
X56383428Y-52846285D01*
X56412000Y-52903428D01*
X56412000Y-52989142D01*
X56383428Y-53046285D01*
X56354857Y-53074857D01*
X56297714Y-53103428D01*
X56069142Y-53103428D01*
X56069142Y-52503428D01*
X56269142Y-52503428D01*
X56326285Y-52532000D01*
X56354857Y-52560571D01*
X56383428Y-52617714D01*
X56383428Y-52674857D01*
X56354857Y-52732000D01*
X56326285Y-52760571D01*
X56269142Y-52789142D01*
X56069142Y-52789142D01*
X56669142Y-52503428D02*
X56669142Y-52989142D01*
X56697714Y-53046285D01*
X56726285Y-53074857D01*
X56783428Y-53103428D01*
X56897714Y-53103428D01*
X56954857Y-53074857D01*
X56983428Y-53046285D01*
X57012000Y-52989142D01*
X57012000Y-52503428D01*
X57212000Y-52503428D02*
X57554857Y-52503428D01*
X57383428Y-53103428D02*
X57383428Y-52503428D01*
X57669142Y-52503428D02*
X58012000Y-52503428D01*
X57840571Y-53103428D02*
X57840571Y-52503428D01*
X58326285Y-52503428D02*
X58440571Y-52503428D01*
X58497714Y-52532000D01*
X58554857Y-52589142D01*
X58583428Y-52703428D01*
X58583428Y-52903428D01*
X58554857Y-53017714D01*
X58497714Y-53074857D01*
X58440571Y-53103428D01*
X58326285Y-53103428D01*
X58269142Y-53074857D01*
X58212000Y-53017714D01*
X58183428Y-52903428D01*
X58183428Y-52703428D01*
X58212000Y-52589142D01*
X58269142Y-52532000D01*
X58326285Y-52503428D01*
X58840571Y-53103428D02*
X58840571Y-52503428D01*
X59183428Y-53103428D01*
X59183428Y-52503428D01*
X59412000Y-52503428D02*
X59783428Y-52503428D01*
X59583428Y-52732000D01*
X59669142Y-52732000D01*
X59726285Y-52760571D01*
X59754857Y-52789142D01*
X59783428Y-52846285D01*
X59783428Y-52989142D01*
X59754857Y-53046285D01*
X59726285Y-53074857D01*
X59669142Y-53103428D01*
X59497714Y-53103428D01*
X59440571Y-53074857D01*
X59412000Y-53046285D01*
X67586285Y-80729142D02*
X67386285Y-80729142D01*
X67386285Y-81043428D02*
X67386285Y-80443428D01*
X67672000Y-80443428D01*
X67872000Y-80872000D02*
X68157714Y-80872000D01*
X67814857Y-81043428D02*
X68014857Y-80443428D01*
X68214857Y-81043428D01*
X68414857Y-81043428D02*
X68414857Y-80443428D01*
X68757714Y-81043428D01*
X68757714Y-80443428D01*
X29489428Y-93006857D02*
X29946571Y-93006857D01*
X29489428Y-95546857D02*
X29946571Y-95546857D01*
X29718000Y-95775428D02*
X29718000Y-95318285D01*
X71907428Y-75988857D02*
X72364571Y-75988857D01*
X71907428Y-78528857D02*
X72364571Y-78528857D01*
X72136000Y-78757428D02*
X72136000Y-78300285D01*
X47379142Y-52789142D02*
X47464857Y-52817714D01*
X47493428Y-52846285D01*
X47522000Y-52903428D01*
X47522000Y-52989142D01*
X47493428Y-53046285D01*
X47464857Y-53074857D01*
X47407714Y-53103428D01*
X47179142Y-53103428D01*
X47179142Y-52503428D01*
X47379142Y-52503428D01*
X47436285Y-52532000D01*
X47464857Y-52560571D01*
X47493428Y-52617714D01*
X47493428Y-52674857D01*
X47464857Y-52732000D01*
X47436285Y-52760571D01*
X47379142Y-52789142D01*
X47179142Y-52789142D01*
X47779142Y-52503428D02*
X47779142Y-52989142D01*
X47807714Y-53046285D01*
X47836285Y-53074857D01*
X47893428Y-53103428D01*
X48007714Y-53103428D01*
X48064857Y-53074857D01*
X48093428Y-53046285D01*
X48122000Y-52989142D01*
X48122000Y-52503428D01*
X48322000Y-52503428D02*
X48664857Y-52503428D01*
X48493428Y-53103428D02*
X48493428Y-52503428D01*
X48779142Y-52503428D02*
X49122000Y-52503428D01*
X48950571Y-53103428D02*
X48950571Y-52503428D01*
X49436285Y-52503428D02*
X49550571Y-52503428D01*
X49607714Y-52532000D01*
X49664857Y-52589142D01*
X49693428Y-52703428D01*
X49693428Y-52903428D01*
X49664857Y-53017714D01*
X49607714Y-53074857D01*
X49550571Y-53103428D01*
X49436285Y-53103428D01*
X49379142Y-53074857D01*
X49322000Y-53017714D01*
X49293428Y-52903428D01*
X49293428Y-52703428D01*
X49322000Y-52589142D01*
X49379142Y-52532000D01*
X49436285Y-52503428D01*
X49950571Y-53103428D02*
X49950571Y-52503428D01*
X50293428Y-53103428D01*
X50293428Y-52503428D01*
X50550571Y-52560571D02*
X50579142Y-52532000D01*
X50636285Y-52503428D01*
X50779142Y-52503428D01*
X50836285Y-52532000D01*
X50864857Y-52560571D01*
X50893428Y-52617714D01*
X50893428Y-52674857D01*
X50864857Y-52760571D01*
X50522000Y-53103428D01*
X50893428Y-53103428D01*
X38235142Y-52789142D02*
X38320857Y-52817714D01*
X38349428Y-52846285D01*
X38378000Y-52903428D01*
X38378000Y-52989142D01*
X38349428Y-53046285D01*
X38320857Y-53074857D01*
X38263714Y-53103428D01*
X38035142Y-53103428D01*
X38035142Y-52503428D01*
X38235142Y-52503428D01*
X38292285Y-52532000D01*
X38320857Y-52560571D01*
X38349428Y-52617714D01*
X38349428Y-52674857D01*
X38320857Y-52732000D01*
X38292285Y-52760571D01*
X38235142Y-52789142D01*
X38035142Y-52789142D01*
X38635142Y-52503428D02*
X38635142Y-52989142D01*
X38663714Y-53046285D01*
X38692285Y-53074857D01*
X38749428Y-53103428D01*
X38863714Y-53103428D01*
X38920857Y-53074857D01*
X38949428Y-53046285D01*
X38978000Y-52989142D01*
X38978000Y-52503428D01*
X39178000Y-52503428D02*
X39520857Y-52503428D01*
X39349428Y-53103428D02*
X39349428Y-52503428D01*
X39635142Y-52503428D02*
X39978000Y-52503428D01*
X39806571Y-53103428D02*
X39806571Y-52503428D01*
X40292285Y-52503428D02*
X40406571Y-52503428D01*
X40463714Y-52532000D01*
X40520857Y-52589142D01*
X40549428Y-52703428D01*
X40549428Y-52903428D01*
X40520857Y-53017714D01*
X40463714Y-53074857D01*
X40406571Y-53103428D01*
X40292285Y-53103428D01*
X40235142Y-53074857D01*
X40178000Y-53017714D01*
X40149428Y-52903428D01*
X40149428Y-52703428D01*
X40178000Y-52589142D01*
X40235142Y-52532000D01*
X40292285Y-52503428D01*
X40806571Y-53103428D02*
X40806571Y-52503428D01*
X41149428Y-53103428D01*
X41149428Y-52503428D01*
X41749428Y-53103428D02*
X41406571Y-53103428D01*
X41578000Y-53103428D02*
X41578000Y-52503428D01*
X41520857Y-52589142D01*
X41463714Y-52646285D01*
X41406571Y-52674857D01*
X29192571Y-88006285D02*
X29192571Y-87720571D01*
X29792571Y-87720571D01*
X29506857Y-88206285D02*
X29506857Y-88406285D01*
X29192571Y-88492000D02*
X29192571Y-88206285D01*
X29792571Y-88206285D01*
X29792571Y-88492000D01*
X29192571Y-88749142D02*
X29792571Y-88749142D01*
X29792571Y-88892000D01*
X29764000Y-88977714D01*
X29706857Y-89034857D01*
X29649714Y-89063428D01*
X29535428Y-89092000D01*
X29449714Y-89092000D01*
X29335428Y-89063428D01*
X29278285Y-89034857D01*
X29221142Y-88977714D01*
X29192571Y-88892000D01*
X29192571Y-88749142D01*
X29764000Y-85394857D02*
X29792571Y-85337714D01*
X29792571Y-85252000D01*
X29764000Y-85166285D01*
X29706857Y-85109142D01*
X29649714Y-85080571D01*
X29535428Y-85052000D01*
X29449714Y-85052000D01*
X29335428Y-85080571D01*
X29278285Y-85109142D01*
X29221142Y-85166285D01*
X29192571Y-85252000D01*
X29192571Y-85309142D01*
X29221142Y-85394857D01*
X29249714Y-85423428D01*
X29449714Y-85423428D01*
X29449714Y-85309142D01*
X29192571Y-85680571D02*
X29792571Y-85680571D01*
X29192571Y-86023428D01*
X29792571Y-86023428D01*
X29192571Y-86309142D02*
X29792571Y-86309142D01*
X29792571Y-86452000D01*
X29764000Y-86537714D01*
X29706857Y-86594857D01*
X29649714Y-86623428D01*
X29535428Y-86652000D01*
X29449714Y-86652000D01*
X29335428Y-86623428D01*
X29278285Y-86594857D01*
X29221142Y-86537714D01*
X29192571Y-86452000D01*
X29192571Y-86309142D01*
X29421142Y-80508571D02*
X29421142Y-80965714D01*
X29192571Y-80737142D02*
X29649714Y-80737142D01*
X29792571Y-81537142D02*
X29792571Y-81251428D01*
X29506857Y-81222857D01*
X29535428Y-81251428D01*
X29564000Y-81308571D01*
X29564000Y-81451428D01*
X29535428Y-81508571D01*
X29506857Y-81537142D01*
X29449714Y-81565714D01*
X29306857Y-81565714D01*
X29249714Y-81537142D01*
X29221142Y-81508571D01*
X29192571Y-81451428D01*
X29192571Y-81308571D01*
X29221142Y-81251428D01*
X29249714Y-81222857D01*
X29792571Y-81737142D02*
X29192571Y-81937142D01*
X29792571Y-82137142D01*
X29764000Y-78282857D02*
X29792571Y-78225714D01*
X29792571Y-78140000D01*
X29764000Y-78054285D01*
X29706857Y-77997142D01*
X29649714Y-77968571D01*
X29535428Y-77940000D01*
X29449714Y-77940000D01*
X29335428Y-77968571D01*
X29278285Y-77997142D01*
X29221142Y-78054285D01*
X29192571Y-78140000D01*
X29192571Y-78197142D01*
X29221142Y-78282857D01*
X29249714Y-78311428D01*
X29449714Y-78311428D01*
X29449714Y-78197142D01*
X29192571Y-78568571D02*
X29792571Y-78568571D01*
X29192571Y-78911428D01*
X29792571Y-78911428D01*
X29192571Y-79197142D02*
X29792571Y-79197142D01*
X29792571Y-79340000D01*
X29764000Y-79425714D01*
X29706857Y-79482857D01*
X29649714Y-79511428D01*
X29535428Y-79540000D01*
X29449714Y-79540000D01*
X29335428Y-79511428D01*
X29278285Y-79482857D01*
X29221142Y-79425714D01*
X29192571Y-79340000D01*
X29192571Y-79197142D01*
X68502285Y-73931428D02*
X68502285Y-73331428D01*
X68759428Y-73388571D02*
X68788000Y-73360000D01*
X68845142Y-73331428D01*
X68988000Y-73331428D01*
X69045142Y-73360000D01*
X69073714Y-73388571D01*
X69102285Y-73445714D01*
X69102285Y-73502857D01*
X69073714Y-73588571D01*
X68730857Y-73931428D01*
X69102285Y-73931428D01*
X69702285Y-73874285D02*
X69673714Y-73902857D01*
X69588000Y-73931428D01*
X69530857Y-73931428D01*
X69445142Y-73902857D01*
X69388000Y-73845714D01*
X69359428Y-73788571D01*
X69330857Y-73674285D01*
X69330857Y-73588571D01*
X69359428Y-73474285D01*
X69388000Y-73417142D01*
X69445142Y-73360000D01*
X69530857Y-73331428D01*
X69588000Y-73331428D01*
X69673714Y-73360000D01*
X69702285Y-73388571D01*
X32431142Y-98061428D02*
X32231142Y-97775714D01*
X32088285Y-98061428D02*
X32088285Y-97461428D01*
X32316857Y-97461428D01*
X32374000Y-97490000D01*
X32402571Y-97518571D01*
X32431142Y-97575714D01*
X32431142Y-97661428D01*
X32402571Y-97718571D01*
X32374000Y-97747142D01*
X32316857Y-97775714D01*
X32088285Y-97775714D01*
X32688285Y-97747142D02*
X32888285Y-97747142D01*
X32974000Y-98061428D02*
X32688285Y-98061428D01*
X32688285Y-97461428D01*
X32974000Y-97461428D01*
X33516857Y-98061428D02*
X33231142Y-98061428D01*
X33231142Y-97461428D01*
X33688285Y-97890000D02*
X33974000Y-97890000D01*
X33631142Y-98061428D02*
X33831142Y-97461428D01*
X34031142Y-98061428D01*
X34345428Y-97775714D02*
X34345428Y-98061428D01*
X34145428Y-97461428D02*
X34345428Y-97775714D01*
X34545428Y-97461428D01*
X32380285Y-90949428D02*
X32094571Y-90949428D01*
X32094571Y-90349428D01*
X32580285Y-90635142D02*
X32780285Y-90635142D01*
X32866000Y-90949428D02*
X32580285Y-90949428D01*
X32580285Y-90349428D01*
X32866000Y-90349428D01*
X33123142Y-90949428D02*
X33123142Y-90349428D01*
X33266000Y-90349428D01*
X33351714Y-90378000D01*
X33408857Y-90435142D01*
X33437428Y-90492285D01*
X33466000Y-90606571D01*
X33466000Y-90692285D01*
X33437428Y-90806571D01*
X33408857Y-90863714D01*
X33351714Y-90920857D01*
X33266000Y-90949428D01*
X33123142Y-90949428D01*
X31888285Y-83837428D02*
X31888285Y-83237428D01*
X32116857Y-83237428D01*
X32174000Y-83266000D01*
X32202571Y-83294571D01*
X32231142Y-83351714D01*
X32231142Y-83437428D01*
X32202571Y-83494571D01*
X32174000Y-83523142D01*
X32116857Y-83551714D01*
X31888285Y-83551714D01*
X32602571Y-83237428D02*
X32716857Y-83237428D01*
X32774000Y-83266000D01*
X32831142Y-83323142D01*
X32859714Y-83437428D01*
X32859714Y-83637428D01*
X32831142Y-83751714D01*
X32774000Y-83808857D01*
X32716857Y-83837428D01*
X32602571Y-83837428D01*
X32545428Y-83808857D01*
X32488285Y-83751714D01*
X32459714Y-83637428D01*
X32459714Y-83437428D01*
X32488285Y-83323142D01*
X32545428Y-83266000D01*
X32602571Y-83237428D01*
X33059714Y-83237428D02*
X33202571Y-83837428D01*
X33316857Y-83408857D01*
X33431142Y-83837428D01*
X33574000Y-83237428D01*
X33802571Y-83523142D02*
X34002571Y-83523142D01*
X34088285Y-83837428D02*
X33802571Y-83837428D01*
X33802571Y-83237428D01*
X34088285Y-83237428D01*
X34688285Y-83837428D02*
X34488285Y-83551714D01*
X34345428Y-83837428D02*
X34345428Y-83237428D01*
X34574000Y-83237428D01*
X34631142Y-83266000D01*
X34659714Y-83294571D01*
X34688285Y-83351714D01*
X34688285Y-83437428D01*
X34659714Y-83494571D01*
X34631142Y-83523142D01*
X34574000Y-83551714D01*
X34345428Y-83551714D01*
X31808857Y-76125428D02*
X31808857Y-76611142D01*
X31837428Y-76668285D01*
X31866000Y-76696857D01*
X31923142Y-76725428D01*
X32037428Y-76725428D01*
X32094571Y-76696857D01*
X32123142Y-76668285D01*
X32151714Y-76611142D01*
X32151714Y-76125428D01*
X32408857Y-76554000D02*
X32694571Y-76554000D01*
X32351714Y-76725428D02*
X32551714Y-76125428D01*
X32751714Y-76725428D01*
X33294571Y-76725428D02*
X33094571Y-76439714D01*
X32951714Y-76725428D02*
X32951714Y-76125428D01*
X33180285Y-76125428D01*
X33237428Y-76154000D01*
X33266000Y-76182571D01*
X33294571Y-76239714D01*
X33294571Y-76325428D01*
X33266000Y-76382571D01*
X33237428Y-76411142D01*
X33180285Y-76439714D01*
X32951714Y-76439714D01*
X33466000Y-76125428D02*
X33808857Y-76125428D01*
X33637428Y-76725428D02*
X33637428Y-76125428D01*
X66486285Y-88155428D02*
X66486285Y-87555428D01*
X66829142Y-88155428D02*
X66572000Y-87812571D01*
X66829142Y-87555428D02*
X66486285Y-87898285D01*
X67086285Y-87926857D02*
X67543428Y-87926857D01*
X67743428Y-87555428D02*
X68086285Y-87555428D01*
X67914857Y-88155428D02*
X67914857Y-87555428D01*
X68400571Y-87869714D02*
X68400571Y-88155428D01*
X68200571Y-87555428D02*
X68400571Y-87869714D01*
X68600571Y-87555428D01*
X68800571Y-88155428D02*
X68800571Y-87555428D01*
X69029142Y-87555428D01*
X69086285Y-87584000D01*
X69114857Y-87612571D01*
X69143428Y-87669714D01*
X69143428Y-87755428D01*
X69114857Y-87812571D01*
X69086285Y-87841142D01*
X69029142Y-87869714D01*
X68800571Y-87869714D01*
X69400571Y-87841142D02*
X69600571Y-87841142D01*
X69686285Y-88155428D02*
X69400571Y-88155428D01*
X69400571Y-87555428D01*
X69686285Y-87555428D01*
X29764000Y-66090857D02*
X29792571Y-66033714D01*
X29792571Y-65948000D01*
X29764000Y-65862285D01*
X29706857Y-65805142D01*
X29649714Y-65776571D01*
X29535428Y-65748000D01*
X29449714Y-65748000D01*
X29335428Y-65776571D01*
X29278285Y-65805142D01*
X29221142Y-65862285D01*
X29192571Y-65948000D01*
X29192571Y-66005142D01*
X29221142Y-66090857D01*
X29249714Y-66119428D01*
X29449714Y-66119428D01*
X29449714Y-66005142D01*
X29192571Y-66376571D02*
X29792571Y-66376571D01*
X29192571Y-66719428D01*
X29792571Y-66719428D01*
X29192571Y-67005142D02*
X29792571Y-67005142D01*
X29792571Y-67148000D01*
X29764000Y-67233714D01*
X29706857Y-67290857D01*
X29649714Y-67319428D01*
X29535428Y-67348000D01*
X29449714Y-67348000D01*
X29335428Y-67319428D01*
X29278285Y-67290857D01*
X29221142Y-67233714D01*
X29192571Y-67148000D01*
X29192571Y-67005142D01*
X29792571Y-73710857D02*
X29792571Y-74053714D01*
X29192571Y-73882285D02*
X29792571Y-73882285D01*
X29792571Y-74196571D02*
X29192571Y-74596571D01*
X29792571Y-74596571D02*
X29192571Y-74196571D01*
X29192571Y-71528000D02*
X29478285Y-71328000D01*
X29192571Y-71185142D02*
X29792571Y-71185142D01*
X29792571Y-71413714D01*
X29764000Y-71470857D01*
X29735428Y-71499428D01*
X29678285Y-71528000D01*
X29592571Y-71528000D01*
X29535428Y-71499428D01*
X29506857Y-71470857D01*
X29478285Y-71413714D01*
X29478285Y-71185142D01*
X29792571Y-71728000D02*
X29192571Y-72128000D01*
X29792571Y-72128000D02*
X29192571Y-71728000D01*
X29192571Y-68759428D02*
X29478285Y-68559428D01*
X29192571Y-68416571D02*
X29792571Y-68416571D01*
X29792571Y-68645142D01*
X29764000Y-68702285D01*
X29735428Y-68730857D01*
X29678285Y-68759428D01*
X29592571Y-68759428D01*
X29535428Y-68730857D01*
X29506857Y-68702285D01*
X29478285Y-68645142D01*
X29478285Y-68416571D01*
X29221142Y-68988000D02*
X29192571Y-69073714D01*
X29192571Y-69216571D01*
X29221142Y-69273714D01*
X29249714Y-69302285D01*
X29306857Y-69330857D01*
X29364000Y-69330857D01*
X29421142Y-69302285D01*
X29449714Y-69273714D01*
X29478285Y-69216571D01*
X29506857Y-69102285D01*
X29535428Y-69045142D01*
X29564000Y-69016571D01*
X29621142Y-68988000D01*
X29678285Y-68988000D01*
X29735428Y-69016571D01*
X29764000Y-69045142D01*
X29792571Y-69102285D01*
X29792571Y-69245142D01*
X29764000Y-69330857D01*
X29792571Y-69502285D02*
X29792571Y-69845142D01*
X29192571Y-69673714D02*
X29792571Y-69673714D01*
X71836000Y-71831142D02*
X71807428Y-71888285D01*
X71807428Y-71974000D01*
X71836000Y-72059714D01*
X71893142Y-72116857D01*
X71950285Y-72145428D01*
X72064571Y-72174000D01*
X72150285Y-72174000D01*
X72264571Y-72145428D01*
X72321714Y-72116857D01*
X72378857Y-72059714D01*
X72407428Y-71974000D01*
X72407428Y-71916857D01*
X72378857Y-71831142D01*
X72350285Y-71802571D01*
X72150285Y-71802571D01*
X72150285Y-71916857D01*
X72407428Y-71545428D02*
X71807428Y-71545428D01*
X72407428Y-71202571D01*
X71807428Y-71202571D01*
X72407428Y-70916857D02*
X71807428Y-70916857D01*
X71807428Y-70774000D01*
X71836000Y-70688285D01*
X71893142Y-70631142D01*
X71950285Y-70602571D01*
X72064571Y-70574000D01*
X72150285Y-70574000D01*
X72264571Y-70602571D01*
X72321714Y-70631142D01*
X72378857Y-70688285D01*
X72407428Y-70774000D01*
X72407428Y-70916857D01*
X72178857Y-64525428D02*
X72178857Y-64068285D01*
X72407428Y-64296857D02*
X71950285Y-64296857D01*
X71807428Y-63496857D02*
X71807428Y-63782571D01*
X72093142Y-63811142D01*
X72064571Y-63782571D01*
X72036000Y-63725428D01*
X72036000Y-63582571D01*
X72064571Y-63525428D01*
X72093142Y-63496857D01*
X72150285Y-63468285D01*
X72293142Y-63468285D01*
X72350285Y-63496857D01*
X72378857Y-63525428D01*
X72407428Y-63582571D01*
X72407428Y-63725428D01*
X72378857Y-63782571D01*
X72350285Y-63811142D01*
X71807428Y-63296857D02*
X72407428Y-63096857D01*
X71807428Y-62896857D01*
X72378857Y-67022571D02*
X72407428Y-66936857D01*
X72407428Y-66794000D01*
X72378857Y-66736857D01*
X72350285Y-66708285D01*
X72293142Y-66679714D01*
X72236000Y-66679714D01*
X72178857Y-66708285D01*
X72150285Y-66736857D01*
X72121714Y-66794000D01*
X72093142Y-66908285D01*
X72064571Y-66965428D01*
X72036000Y-66994000D01*
X71978857Y-67022571D01*
X71921714Y-67022571D01*
X71864571Y-66994000D01*
X71836000Y-66965428D01*
X71807428Y-66908285D01*
X71807428Y-66765428D01*
X71836000Y-66679714D01*
X72407428Y-66422571D02*
X71807428Y-66422571D01*
X71807428Y-66279714D01*
X71836000Y-66194000D01*
X71893142Y-66136857D01*
X71950285Y-66108285D01*
X72064571Y-66079714D01*
X72150285Y-66079714D01*
X72264571Y-66108285D01*
X72321714Y-66136857D01*
X72378857Y-66194000D01*
X72407428Y-66279714D01*
X72407428Y-66422571D01*
X72236000Y-65851142D02*
X72236000Y-65565428D01*
X72407428Y-65908285D02*
X71807428Y-65708285D01*
X72407428Y-65508285D01*
X72378857Y-69548285D02*
X72407428Y-69462571D01*
X72407428Y-69319714D01*
X72378857Y-69262571D01*
X72350285Y-69234000D01*
X72293142Y-69205428D01*
X72236000Y-69205428D01*
X72178857Y-69234000D01*
X72150285Y-69262571D01*
X72121714Y-69319714D01*
X72093142Y-69434000D01*
X72064571Y-69491142D01*
X72036000Y-69519714D01*
X71978857Y-69548285D01*
X71921714Y-69548285D01*
X71864571Y-69519714D01*
X71836000Y-69491142D01*
X71807428Y-69434000D01*
X71807428Y-69291142D01*
X71836000Y-69205428D01*
X72350285Y-68605428D02*
X72378857Y-68634000D01*
X72407428Y-68719714D01*
X72407428Y-68776857D01*
X72378857Y-68862571D01*
X72321714Y-68919714D01*
X72264571Y-68948285D01*
X72150285Y-68976857D01*
X72064571Y-68976857D01*
X71950285Y-68948285D01*
X71893142Y-68919714D01*
X71836000Y-68862571D01*
X71807428Y-68776857D01*
X71807428Y-68719714D01*
X71836000Y-68634000D01*
X71864571Y-68605428D01*
X72407428Y-68062571D02*
X72407428Y-68348285D01*
X71807428Y-68348285D01*
X71907428Y-85640857D02*
X72364571Y-85640857D01*
X72136000Y-85869428D02*
X72136000Y-85412285D01*
X71907428Y-83100857D02*
X72364571Y-83100857D01*
X41353142Y-105236095D02*
X40919809Y-104617047D01*
X40610285Y-105236095D02*
X40610285Y-103936095D01*
X41105523Y-103936095D01*
X41229333Y-103998000D01*
X41291238Y-104059904D01*
X41353142Y-104183714D01*
X41353142Y-104369428D01*
X41291238Y-104493238D01*
X41229333Y-104555142D01*
X41105523Y-104617047D01*
X40610285Y-104617047D01*
X42405523Y-105174190D02*
X42281714Y-105236095D01*
X42034095Y-105236095D01*
X41910285Y-105174190D01*
X41848380Y-105050380D01*
X41848380Y-104555142D01*
X41910285Y-104431333D01*
X42034095Y-104369428D01*
X42281714Y-104369428D01*
X42405523Y-104431333D01*
X42467428Y-104555142D01*
X42467428Y-104678952D01*
X41848380Y-104802761D01*
X42838857Y-104369428D02*
X43334095Y-104369428D01*
X43024571Y-105236095D02*
X43024571Y-104121809D01*
X43086476Y-103998000D01*
X43210285Y-103936095D01*
X43334095Y-103936095D01*
X43953142Y-105236095D02*
X43829333Y-105174190D01*
X43767428Y-105050380D01*
X43767428Y-103936095D01*
X44634095Y-105236095D02*
X44510285Y-105174190D01*
X44448380Y-105112285D01*
X44386476Y-104988476D01*
X44386476Y-104617047D01*
X44448380Y-104493238D01*
X44510285Y-104431333D01*
X44634095Y-104369428D01*
X44819809Y-104369428D01*
X44943619Y-104431333D01*
X45005523Y-104493238D01*
X45067428Y-104617047D01*
X45067428Y-104988476D01*
X45005523Y-105112285D01*
X44943619Y-105174190D01*
X44819809Y-105236095D01*
X44634095Y-105236095D01*
X45500761Y-104369428D02*
X45748380Y-105236095D01*
X45996000Y-104617047D01*
X46243619Y-105236095D01*
X46491238Y-104369428D01*
X48224571Y-103936095D02*
X48472190Y-103936095D01*
X48596000Y-103998000D01*
X48719809Y-104121809D01*
X48781714Y-104369428D01*
X48781714Y-104802761D01*
X48719809Y-105050380D01*
X48596000Y-105174190D01*
X48472190Y-105236095D01*
X48224571Y-105236095D01*
X48100761Y-105174190D01*
X47976952Y-105050380D01*
X47915047Y-104802761D01*
X47915047Y-104369428D01*
X47976952Y-104121809D01*
X48100761Y-103998000D01*
X48224571Y-103936095D01*
X49215047Y-104369428D02*
X49524571Y-105236095D01*
X49834095Y-104369428D01*
X50824571Y-105174190D02*
X50700761Y-105236095D01*
X50453142Y-105236095D01*
X50329333Y-105174190D01*
X50267428Y-105050380D01*
X50267428Y-104555142D01*
X50329333Y-104431333D01*
X50453142Y-104369428D01*
X50700761Y-104369428D01*
X50824571Y-104431333D01*
X50886476Y-104555142D01*
X50886476Y-104678952D01*
X50267428Y-104802761D01*
X51443619Y-104369428D02*
X51443619Y-105236095D01*
X51443619Y-104493238D02*
X51505523Y-104431333D01*
X51629333Y-104369428D01*
X51815047Y-104369428D01*
X51938857Y-104431333D01*
X52000761Y-104555142D01*
X52000761Y-105236095D01*
X54353142Y-105236095D02*
X53919809Y-104617047D01*
X53610285Y-105236095D02*
X53610285Y-103936095D01*
X54105523Y-103936095D01*
X54229333Y-103998000D01*
X54291238Y-104059904D01*
X54353142Y-104183714D01*
X54353142Y-104369428D01*
X54291238Y-104493238D01*
X54229333Y-104555142D01*
X54105523Y-104617047D01*
X53610285Y-104617047D01*
X55405523Y-105174190D02*
X55281714Y-105236095D01*
X55034095Y-105236095D01*
X54910285Y-105174190D01*
X54848380Y-105050380D01*
X54848380Y-104555142D01*
X54910285Y-104431333D01*
X55034095Y-104369428D01*
X55281714Y-104369428D01*
X55405523Y-104431333D01*
X55467428Y-104555142D01*
X55467428Y-104678952D01*
X54848380Y-104802761D01*
X55900761Y-104369428D02*
X56210285Y-105236095D01*
X56519809Y-104369428D01*
X58686476Y-105236095D02*
X57943619Y-105236095D01*
X58315047Y-105236095D02*
X58315047Y-103936095D01*
X58191238Y-104121809D01*
X58067428Y-104245619D01*
X57943619Y-104307523D01*
X59243619Y-105112285D02*
X59305523Y-105174190D01*
X59243619Y-105236095D01*
X59181714Y-105174190D01*
X59243619Y-105112285D01*
X59243619Y-105236095D01*
X60110285Y-103936095D02*
X60234095Y-103936095D01*
X60357904Y-103998000D01*
X60419809Y-104059904D01*
X60481714Y-104183714D01*
X60543619Y-104431333D01*
X60543619Y-104740857D01*
X60481714Y-104988476D01*
X60419809Y-105112285D01*
X60357904Y-105174190D01*
X60234095Y-105236095D01*
X60110285Y-105236095D01*
X59986476Y-105174190D01*
X59924571Y-105112285D01*
X59862666Y-104988476D01*
X59800761Y-104740857D01*
X59800761Y-104431333D01*
X59862666Y-104183714D01*
X59924571Y-104059904D01*
X59986476Y-103998000D01*
X60110285Y-103936095D01*
X51308000Y-65305714D02*
X51379428Y-65377142D01*
X51308000Y-65448571D01*
X51236571Y-65377142D01*
X51308000Y-65305714D01*
X51308000Y-65448571D01*
D11*
%TO.C,R2*%
X38152000Y-96524578D02*
X38152000Y-96007422D01*
X39572000Y-96524578D02*
X39572000Y-96007422D01*
%TO.C,C3*%
X48208000Y-82046578D02*
X48208000Y-81529422D01*
X46788000Y-82046578D02*
X46788000Y-81529422D01*
%TO.C,U1*%
X52848000Y-66234000D02*
X51198000Y-66234000D01*
X51198000Y-66234000D02*
X51198000Y-101914000D01*
X51198000Y-101914000D02*
X56498000Y-101914000D01*
X56498000Y-101914000D02*
X56498000Y-66234000D01*
X56498000Y-66234000D02*
X54848000Y-66234000D01*
X54848000Y-66234000D02*
G75*
G02*
X52848000Y-66234000I-1000000J0D01*
G01*
%TO.C,U2*%
X65512000Y-92710000D02*
X65512000Y-94660000D01*
X65512000Y-92710000D02*
X65512000Y-90760000D01*
X70632000Y-92710000D02*
X70632000Y-94660000D01*
X70632000Y-92710000D02*
X70632000Y-89260000D01*
%TO.C,Q1*%
X41380000Y-102688000D02*
X44980000Y-102688000D01*
X41341522Y-102676478D02*
G75*
G02*
X43180000Y-98238000I1838478J1838478D01*
G01*
X45018478Y-102676478D02*
G75*
G03*
X43180000Y-98238000I-1838478J1838478D01*
G01*
%TO.C,C1*%
X39572000Y-79506578D02*
X39572000Y-78989422D01*
X38152000Y-79506578D02*
X38152000Y-78989422D01*
%TO.C,C2*%
X59742000Y-88396578D02*
X59742000Y-87879422D01*
X61162000Y-88396578D02*
X61162000Y-87879422D01*
%TO.C,C4*%
X48208000Y-85339422D02*
X48208000Y-85856578D01*
X46788000Y-85339422D02*
X46788000Y-85856578D01*
%TO.C,C5*%
X47954000Y-90848922D02*
X47954000Y-91366078D01*
X46534000Y-90848922D02*
X46534000Y-91366078D01*
%TO.C,C6*%
X61162000Y-84586578D02*
X61162000Y-84069422D01*
X59742000Y-84586578D02*
X59742000Y-84069422D01*
%TO.C,C7*%
X63044000Y-92451422D02*
X63044000Y-92968578D01*
X64464000Y-92451422D02*
X64464000Y-92968578D01*
%TO.C,C8*%
X42413422Y-61520000D02*
X42930578Y-61520000D01*
X42413422Y-62940000D02*
X42930578Y-62940000D01*
%TO.C,C9*%
X51430422Y-61520000D02*
X51947578Y-61520000D01*
X51430422Y-62940000D02*
X51947578Y-62940000D01*
%TO.C,R1*%
X46280000Y-67998078D02*
X46280000Y-67480922D01*
X47700000Y-67998078D02*
X47700000Y-67480922D01*
%TO.C,R3*%
X39572000Y-92714578D02*
X39572000Y-92197422D01*
X38152000Y-92714578D02*
X38152000Y-92197422D01*
%TO.C,R4*%
X38349422Y-62940000D02*
X38866578Y-62940000D01*
X38349422Y-61520000D02*
X38866578Y-61520000D01*
%TO.C,R5*%
X47366422Y-61520000D02*
X47883578Y-61520000D01*
X47366422Y-62940000D02*
X47883578Y-62940000D01*
%TO.C,J1*%
X30752000Y-75548000D02*
X36772000Y-75548000D01*
X36772000Y-75548000D02*
X36772000Y-65168000D01*
X36772000Y-65168000D02*
X30752000Y-65168000D01*
X30752000Y-65168000D02*
X30752000Y-75548000D01*
X31782000Y-75838000D02*
X35782000Y-75838000D01*
X36772000Y-74168000D02*
X35772000Y-74168000D01*
X35772000Y-74168000D02*
X35772000Y-66548000D01*
X35772000Y-66548000D02*
X36772000Y-66548000D01*
X35772000Y-74168000D02*
X35242000Y-73918000D01*
X35242000Y-73918000D02*
X35242000Y-66798000D01*
X35242000Y-66798000D02*
X35772000Y-66548000D01*
X36772000Y-73918000D02*
X35772000Y-73918000D01*
X36772000Y-66798000D02*
X35772000Y-66798000D01*
X30752000Y-74968000D02*
X31352000Y-74968000D01*
X31352000Y-74968000D02*
X31352000Y-73368000D01*
X31352000Y-73368000D02*
X30752000Y-73368000D01*
X30752000Y-72428000D02*
X31352000Y-72428000D01*
X31352000Y-72428000D02*
X31352000Y-70828000D01*
X31352000Y-70828000D02*
X30752000Y-70828000D01*
X30752000Y-69888000D02*
X31352000Y-69888000D01*
X31352000Y-69888000D02*
X31352000Y-68288000D01*
X31352000Y-68288000D02*
X30752000Y-68288000D01*
X30752000Y-67348000D02*
X31352000Y-67348000D01*
X31352000Y-67348000D02*
X31352000Y-65748000D01*
X31352000Y-65748000D02*
X30752000Y-65748000D01*
%TO.C,J2*%
X30752000Y-82660000D02*
X36772000Y-82660000D01*
X36772000Y-82660000D02*
X36772000Y-77360000D01*
X36772000Y-77360000D02*
X30752000Y-77360000D01*
X30752000Y-77360000D02*
X30752000Y-82660000D01*
X31782000Y-82950000D02*
X35782000Y-82950000D01*
X36772000Y-81280000D02*
X35772000Y-81280000D01*
X35772000Y-81280000D02*
X35772000Y-78740000D01*
X35772000Y-78740000D02*
X36772000Y-78740000D01*
X35772000Y-81280000D02*
X35242000Y-81030000D01*
X35242000Y-81030000D02*
X35242000Y-78990000D01*
X35242000Y-78990000D02*
X35772000Y-78740000D01*
X36772000Y-81030000D02*
X35772000Y-81030000D01*
X36772000Y-78990000D02*
X35772000Y-78990000D01*
X30752000Y-82080000D02*
X31352000Y-82080000D01*
X31352000Y-82080000D02*
X31352000Y-80480000D01*
X31352000Y-80480000D02*
X30752000Y-80480000D01*
X30752000Y-79540000D02*
X31352000Y-79540000D01*
X31352000Y-79540000D02*
X31352000Y-77940000D01*
X31352000Y-77940000D02*
X30752000Y-77940000D01*
%TO.C,J3*%
X31352000Y-85052000D02*
X30752000Y-85052000D01*
X31352000Y-86652000D02*
X31352000Y-85052000D01*
X30752000Y-86652000D02*
X31352000Y-86652000D01*
X31352000Y-87592000D02*
X30752000Y-87592000D01*
X31352000Y-89192000D02*
X31352000Y-87592000D01*
X30752000Y-89192000D02*
X31352000Y-89192000D01*
X36772000Y-86102000D02*
X35772000Y-86102000D01*
X36772000Y-88142000D02*
X35772000Y-88142000D01*
X35242000Y-86102000D02*
X35772000Y-85852000D01*
X35242000Y-88142000D02*
X35242000Y-86102000D01*
X35772000Y-88392000D02*
X35242000Y-88142000D01*
X35772000Y-85852000D02*
X36772000Y-85852000D01*
X35772000Y-88392000D02*
X35772000Y-85852000D01*
X36772000Y-88392000D02*
X35772000Y-88392000D01*
X31782000Y-90062000D02*
X35782000Y-90062000D01*
X30752000Y-84472000D02*
X30752000Y-89772000D01*
X36772000Y-84472000D02*
X30752000Y-84472000D01*
X36772000Y-89772000D02*
X36772000Y-84472000D01*
X30752000Y-89772000D02*
X36772000Y-89772000D01*
%TO.C,J4*%
X70502000Y-86398000D02*
X71102000Y-86398000D01*
X70502000Y-84798000D02*
X70502000Y-86398000D01*
X71102000Y-84798000D02*
X70502000Y-84798000D01*
X70502000Y-83858000D02*
X71102000Y-83858000D01*
X70502000Y-82258000D02*
X70502000Y-83858000D01*
X71102000Y-82258000D02*
X70502000Y-82258000D01*
X65082000Y-85348000D02*
X66082000Y-85348000D01*
X65082000Y-83308000D02*
X66082000Y-83308000D01*
X66612000Y-85348000D02*
X66082000Y-85598000D01*
X66612000Y-83308000D02*
X66612000Y-85348000D01*
X66082000Y-83058000D02*
X66612000Y-83308000D01*
X66082000Y-85598000D02*
X65082000Y-85598000D01*
X66082000Y-83058000D02*
X66082000Y-85598000D01*
X65082000Y-83058000D02*
X66082000Y-83058000D01*
X70072000Y-81388000D02*
X66072000Y-81388000D01*
X71102000Y-86978000D02*
X71102000Y-81678000D01*
X65082000Y-86978000D02*
X71102000Y-86978000D01*
X65082000Y-81678000D02*
X65082000Y-86978000D01*
X71102000Y-81678000D02*
X65082000Y-81678000D01*
%TO.C,J5*%
X37228000Y-53866000D02*
X37228000Y-59886000D01*
X37228000Y-59886000D02*
X42528000Y-59886000D01*
X42528000Y-59886000D02*
X42528000Y-53866000D01*
X42528000Y-53866000D02*
X37228000Y-53866000D01*
X36938000Y-54896000D02*
X36938000Y-58896000D01*
X38608000Y-59886000D02*
X38608000Y-58886000D01*
X38608000Y-58886000D02*
X41148000Y-58886000D01*
X41148000Y-58886000D02*
X41148000Y-59886000D01*
X38608000Y-58886000D02*
X38858000Y-58356000D01*
X38858000Y-58356000D02*
X40898000Y-58356000D01*
X40898000Y-58356000D02*
X41148000Y-58886000D01*
X38858000Y-59886000D02*
X38858000Y-58886000D01*
X40898000Y-59886000D02*
X40898000Y-58886000D01*
X37808000Y-53866000D02*
X37808000Y-54466000D01*
X37808000Y-54466000D02*
X39408000Y-54466000D01*
X39408000Y-54466000D02*
X39408000Y-53866000D01*
X40348000Y-53866000D02*
X40348000Y-54466000D01*
X40348000Y-54466000D02*
X41948000Y-54466000D01*
X41948000Y-54466000D02*
X41948000Y-53866000D01*
%TO.C,J6*%
X50965000Y-54466000D02*
X50965000Y-53866000D01*
X49365000Y-54466000D02*
X50965000Y-54466000D01*
X49365000Y-53866000D02*
X49365000Y-54466000D01*
X48425000Y-54466000D02*
X48425000Y-53866000D01*
X46825000Y-54466000D02*
X48425000Y-54466000D01*
X46825000Y-53866000D02*
X46825000Y-54466000D01*
X49915000Y-59886000D02*
X49915000Y-58886000D01*
X47875000Y-59886000D02*
X47875000Y-58886000D01*
X49915000Y-58356000D02*
X50165000Y-58886000D01*
X47875000Y-58356000D02*
X49915000Y-58356000D01*
X47625000Y-58886000D02*
X47875000Y-58356000D01*
X50165000Y-58886000D02*
X50165000Y-59886000D01*
X47625000Y-58886000D02*
X50165000Y-58886000D01*
X47625000Y-59886000D02*
X47625000Y-58886000D01*
X45955000Y-54896000D02*
X45955000Y-58896000D01*
X51545000Y-53866000D02*
X46245000Y-53866000D01*
X51545000Y-59886000D02*
X51545000Y-53866000D01*
X46245000Y-59886000D02*
X51545000Y-59886000D01*
X46245000Y-53866000D02*
X46245000Y-59886000D01*
%TO.C,J7*%
X30752000Y-96884000D02*
X36772000Y-96884000D01*
X36772000Y-96884000D02*
X36772000Y-91584000D01*
X36772000Y-91584000D02*
X30752000Y-91584000D01*
X30752000Y-91584000D02*
X30752000Y-96884000D01*
X31782000Y-97174000D02*
X35782000Y-97174000D01*
X36772000Y-95504000D02*
X35772000Y-95504000D01*
X35772000Y-95504000D02*
X35772000Y-92964000D01*
X35772000Y-92964000D02*
X36772000Y-92964000D01*
X35772000Y-95504000D02*
X35242000Y-95254000D01*
X35242000Y-95254000D02*
X35242000Y-93214000D01*
X35242000Y-93214000D02*
X35772000Y-92964000D01*
X36772000Y-95254000D02*
X35772000Y-95254000D01*
X36772000Y-93214000D02*
X35772000Y-93214000D01*
X30752000Y-96304000D02*
X31352000Y-96304000D01*
X31352000Y-96304000D02*
X31352000Y-94704000D01*
X31352000Y-94704000D02*
X30752000Y-94704000D01*
X30752000Y-93764000D02*
X31352000Y-93764000D01*
X31352000Y-93764000D02*
X31352000Y-92164000D01*
X31352000Y-92164000D02*
X30752000Y-92164000D01*
%TO.C,J8*%
X70502000Y-72174000D02*
X71102000Y-72174000D01*
X70502000Y-70574000D02*
X70502000Y-72174000D01*
X71102000Y-70574000D02*
X70502000Y-70574000D01*
X70502000Y-69634000D02*
X71102000Y-69634000D01*
X70502000Y-68034000D02*
X70502000Y-69634000D01*
X71102000Y-68034000D02*
X70502000Y-68034000D01*
X70502000Y-67094000D02*
X71102000Y-67094000D01*
X70502000Y-65494000D02*
X70502000Y-67094000D01*
X71102000Y-65494000D02*
X70502000Y-65494000D01*
X70502000Y-64554000D02*
X71102000Y-64554000D01*
X70502000Y-62954000D02*
X70502000Y-64554000D01*
X71102000Y-62954000D02*
X70502000Y-62954000D01*
X65082000Y-71124000D02*
X66082000Y-71124000D01*
X65082000Y-64004000D02*
X66082000Y-64004000D01*
X66612000Y-71124000D02*
X66082000Y-71374000D01*
X66612000Y-64004000D02*
X66612000Y-71124000D01*
X66082000Y-63754000D02*
X66612000Y-64004000D01*
X66082000Y-71374000D02*
X65082000Y-71374000D01*
X66082000Y-63754000D02*
X66082000Y-71374000D01*
X65082000Y-63754000D02*
X66082000Y-63754000D01*
X70072000Y-62084000D02*
X66072000Y-62084000D01*
X71102000Y-72754000D02*
X71102000Y-62374000D01*
X65082000Y-72754000D02*
X71102000Y-72754000D01*
X65082000Y-62374000D02*
X65082000Y-72754000D01*
X71102000Y-62374000D02*
X65082000Y-62374000D01*
%TO.C,C10*%
X60447422Y-62940000D02*
X60964578Y-62940000D01*
X60447422Y-61520000D02*
X60964578Y-61520000D01*
%TO.C,J9*%
X59982000Y-54466000D02*
X59982000Y-53866000D01*
X58382000Y-54466000D02*
X59982000Y-54466000D01*
X58382000Y-53866000D02*
X58382000Y-54466000D01*
X57442000Y-54466000D02*
X57442000Y-53866000D01*
X55842000Y-54466000D02*
X57442000Y-54466000D01*
X55842000Y-53866000D02*
X55842000Y-54466000D01*
X58932000Y-59886000D02*
X58932000Y-58886000D01*
X56892000Y-59886000D02*
X56892000Y-58886000D01*
X58932000Y-58356000D02*
X59182000Y-58886000D01*
X56892000Y-58356000D02*
X58932000Y-58356000D01*
X56642000Y-58886000D02*
X56892000Y-58356000D01*
X59182000Y-58886000D02*
X59182000Y-59886000D01*
X56642000Y-58886000D02*
X59182000Y-58886000D01*
X56642000Y-59886000D02*
X56642000Y-58886000D01*
X54972000Y-54896000D02*
X54972000Y-58896000D01*
X60562000Y-53866000D02*
X55262000Y-53866000D01*
X60562000Y-59886000D02*
X60562000Y-53866000D01*
X55262000Y-59886000D02*
X60562000Y-59886000D01*
X55262000Y-53866000D02*
X55262000Y-59886000D01*
%TO.C,R6*%
X56383422Y-62940000D02*
X56900578Y-62940000D01*
X56383422Y-61520000D02*
X56900578Y-61520000D01*
%TO.C,D1*%
X61992000Y-83022000D02*
X61992000Y-79122000D01*
X63992000Y-83022000D02*
X63992000Y-79122000D01*
X61992000Y-83022000D02*
X63992000Y-83022000D01*
%TO.C,J10*%
X70502000Y-79286000D02*
X71102000Y-79286000D01*
X70502000Y-77686000D02*
X70502000Y-79286000D01*
X71102000Y-77686000D02*
X70502000Y-77686000D01*
X70502000Y-76746000D02*
X71102000Y-76746000D01*
X70502000Y-75146000D02*
X70502000Y-76746000D01*
X71102000Y-75146000D02*
X70502000Y-75146000D01*
X65082000Y-78236000D02*
X66082000Y-78236000D01*
X65082000Y-76196000D02*
X66082000Y-76196000D01*
X66612000Y-78236000D02*
X66082000Y-78486000D01*
X66612000Y-76196000D02*
X66612000Y-78236000D01*
X66082000Y-75946000D02*
X66612000Y-76196000D01*
X66082000Y-78486000D02*
X65082000Y-78486000D01*
X66082000Y-75946000D02*
X66082000Y-78486000D01*
X65082000Y-75946000D02*
X66082000Y-75946000D01*
X70072000Y-74276000D02*
X66072000Y-74276000D01*
X71102000Y-79866000D02*
X71102000Y-74566000D01*
X65082000Y-79866000D02*
X71102000Y-79866000D01*
X65082000Y-74566000D02*
X65082000Y-79866000D01*
X71102000Y-74566000D02*
X65082000Y-74566000D01*
%TO.C,Q2*%
X63826000Y-76476000D02*
X63826000Y-72876000D01*
X63814478Y-76514478D02*
G75*
G02*
X59376000Y-74676000I-1838478J1838478D01*
G01*
X63814478Y-72837522D02*
G75*
G03*
X59376000Y-74676000I-1838478J-1838478D01*
G01*
%TO.C,R7*%
X59488000Y-79497422D02*
X59488000Y-80014578D01*
X60908000Y-79497422D02*
X60908000Y-80014578D01*
%TO.C,Y1*%
X40630000Y-84524000D02*
X40630000Y-97124000D01*
X40630000Y-97124000D02*
X45730000Y-97124000D01*
X45730000Y-97124000D02*
X45730000Y-84524000D01*
%TO.C,D2*%
X39371000Y-75811000D02*
X43256000Y-75811000D01*
X39371000Y-73541000D02*
X39371000Y-75811000D01*
X43256000Y-73541000D02*
X39371000Y-73541000D01*
%TO.C,R8*%
X43382000Y-80522578D02*
X43382000Y-80005422D01*
X41962000Y-80522578D02*
X41962000Y-80005422D01*
%TO.C,R2*%
D10*
X38762000Y-99077428D02*
X38562000Y-98791714D01*
X38419142Y-99077428D02*
X38419142Y-98477428D01*
X38647714Y-98477428D01*
X38704857Y-98506000D01*
X38733428Y-98534571D01*
X38762000Y-98591714D01*
X38762000Y-98677428D01*
X38733428Y-98734571D01*
X38704857Y-98763142D01*
X38647714Y-98791714D01*
X38419142Y-98791714D01*
X38990571Y-98534571D02*
X39019142Y-98506000D01*
X39076285Y-98477428D01*
X39219142Y-98477428D01*
X39276285Y-98506000D01*
X39304857Y-98534571D01*
X39333428Y-98591714D01*
X39333428Y-98648857D01*
X39304857Y-98734571D01*
X38962000Y-99077428D01*
X39333428Y-99077428D01*
%TO.C,C3*%
X45620000Y-79970285D02*
X45591428Y-79998857D01*
X45505714Y-80027428D01*
X45448571Y-80027428D01*
X45362857Y-79998857D01*
X45305714Y-79941714D01*
X45277142Y-79884571D01*
X45248571Y-79770285D01*
X45248571Y-79684571D01*
X45277142Y-79570285D01*
X45305714Y-79513142D01*
X45362857Y-79456000D01*
X45448571Y-79427428D01*
X45505714Y-79427428D01*
X45591428Y-79456000D01*
X45620000Y-79484571D01*
X45820000Y-79427428D02*
X46191428Y-79427428D01*
X45991428Y-79656000D01*
X46077142Y-79656000D01*
X46134285Y-79684571D01*
X46162857Y-79713142D01*
X46191428Y-79770285D01*
X46191428Y-79913142D01*
X46162857Y-79970285D01*
X46134285Y-79998857D01*
X46077142Y-80027428D01*
X45905714Y-80027428D01*
X45848571Y-79998857D01*
X45820000Y-79970285D01*
%TO.C,U1*%
X55422857Y-64949428D02*
X55422857Y-65435142D01*
X55451428Y-65492285D01*
X55480000Y-65520857D01*
X55537142Y-65549428D01*
X55651428Y-65549428D01*
X55708571Y-65520857D01*
X55737142Y-65492285D01*
X55765714Y-65435142D01*
X55765714Y-64949428D01*
X56365714Y-65549428D02*
X56022857Y-65549428D01*
X56194285Y-65549428D02*
X56194285Y-64949428D01*
X56137142Y-65035142D01*
X56080000Y-65092285D01*
X56022857Y-65120857D01*
%TO.C,U2*%
X69646857Y-96699428D02*
X69646857Y-97185142D01*
X69675428Y-97242285D01*
X69704000Y-97270857D01*
X69761142Y-97299428D01*
X69875428Y-97299428D01*
X69932571Y-97270857D01*
X69961142Y-97242285D01*
X69989714Y-97185142D01*
X69989714Y-96699428D01*
X70246857Y-96756571D02*
X70275428Y-96728000D01*
X70332571Y-96699428D01*
X70475428Y-96699428D01*
X70532571Y-96728000D01*
X70561142Y-96756571D01*
X70589714Y-96813714D01*
X70589714Y-96870857D01*
X70561142Y-96956571D01*
X70218285Y-97299428D01*
X70589714Y-97299428D01*
%TO.C,Q1*%
X39312857Y-102182571D02*
X39255714Y-102154000D01*
X39198571Y-102096857D01*
X39112857Y-102011142D01*
X39055714Y-101982571D01*
X38998571Y-101982571D01*
X39027142Y-102125428D02*
X38970000Y-102096857D01*
X38912857Y-102039714D01*
X38884285Y-101925428D01*
X38884285Y-101725428D01*
X38912857Y-101611142D01*
X38970000Y-101554000D01*
X39027142Y-101525428D01*
X39141428Y-101525428D01*
X39198571Y-101554000D01*
X39255714Y-101611142D01*
X39284285Y-101725428D01*
X39284285Y-101925428D01*
X39255714Y-102039714D01*
X39198571Y-102096857D01*
X39141428Y-102125428D01*
X39027142Y-102125428D01*
X39855714Y-102125428D02*
X39512857Y-102125428D01*
X39684285Y-102125428D02*
X39684285Y-101525428D01*
X39627142Y-101611142D01*
X39570000Y-101668285D01*
X39512857Y-101696857D01*
%TO.C,H2*%
X68345867Y-59199428D02*
X68345867Y-58599428D01*
X68345867Y-58885142D02*
X68688724Y-58885142D01*
X68688724Y-59199428D02*
X68688724Y-58599428D01*
X68945867Y-58656571D02*
X68974438Y-58628000D01*
X69031581Y-58599428D01*
X69174438Y-58599428D01*
X69231581Y-58628000D01*
X69260152Y-58656571D01*
X69288724Y-58713714D01*
X69288724Y-58770857D01*
X69260152Y-58856571D01*
X68917295Y-59199428D01*
X69288724Y-59199428D01*
%TO.C,H3*%
X64058857Y-102125428D02*
X64058857Y-101525428D01*
X64058857Y-101811142D02*
X64401714Y-101811142D01*
X64401714Y-102125428D02*
X64401714Y-101525428D01*
X64630285Y-101525428D02*
X65001714Y-101525428D01*
X64801714Y-101754000D01*
X64887428Y-101754000D01*
X64944571Y-101782571D01*
X64973142Y-101811142D01*
X65001714Y-101868285D01*
X65001714Y-102011142D01*
X64973142Y-102068285D01*
X64944571Y-102096857D01*
X64887428Y-102125428D01*
X64716000Y-102125428D01*
X64658857Y-102096857D01*
X64630285Y-102068285D01*
%TO.C,C1*%
X38762000Y-82256285D02*
X38733428Y-82284857D01*
X38647714Y-82313428D01*
X38590571Y-82313428D01*
X38504857Y-82284857D01*
X38447714Y-82227714D01*
X38419142Y-82170571D01*
X38390571Y-82056285D01*
X38390571Y-81970571D01*
X38419142Y-81856285D01*
X38447714Y-81799142D01*
X38504857Y-81742000D01*
X38590571Y-81713428D01*
X38647714Y-81713428D01*
X38733428Y-81742000D01*
X38762000Y-81770571D01*
X39333428Y-82313428D02*
X38990571Y-82313428D01*
X39162000Y-82313428D02*
X39162000Y-81713428D01*
X39104857Y-81799142D01*
X39047714Y-81856285D01*
X38990571Y-81884857D01*
%TO.C,C2*%
X62130000Y-89368285D02*
X62101428Y-89396857D01*
X62015714Y-89425428D01*
X61958571Y-89425428D01*
X61872857Y-89396857D01*
X61815714Y-89339714D01*
X61787142Y-89282571D01*
X61758571Y-89168285D01*
X61758571Y-89082571D01*
X61787142Y-88968285D01*
X61815714Y-88911142D01*
X61872857Y-88854000D01*
X61958571Y-88825428D01*
X62015714Y-88825428D01*
X62101428Y-88854000D01*
X62130000Y-88882571D01*
X62358571Y-88882571D02*
X62387142Y-88854000D01*
X62444285Y-88825428D01*
X62587142Y-88825428D01*
X62644285Y-88854000D01*
X62672857Y-88882571D01*
X62701428Y-88939714D01*
X62701428Y-88996857D01*
X62672857Y-89082571D01*
X62330000Y-89425428D01*
X62701428Y-89425428D01*
%TO.C,C4*%
X45620000Y-83272285D02*
X45591428Y-83300857D01*
X45505714Y-83329428D01*
X45448571Y-83329428D01*
X45362857Y-83300857D01*
X45305714Y-83243714D01*
X45277142Y-83186571D01*
X45248571Y-83072285D01*
X45248571Y-82986571D01*
X45277142Y-82872285D01*
X45305714Y-82815142D01*
X45362857Y-82758000D01*
X45448571Y-82729428D01*
X45505714Y-82729428D01*
X45591428Y-82758000D01*
X45620000Y-82786571D01*
X46134285Y-82929428D02*
X46134285Y-83329428D01*
X45991428Y-82700857D02*
X45848571Y-83129428D01*
X46220000Y-83129428D01*
%TO.C,C5*%
X47144000Y-93686285D02*
X47115428Y-93714857D01*
X47029714Y-93743428D01*
X46972571Y-93743428D01*
X46886857Y-93714857D01*
X46829714Y-93657714D01*
X46801142Y-93600571D01*
X46772571Y-93486285D01*
X46772571Y-93400571D01*
X46801142Y-93286285D01*
X46829714Y-93229142D01*
X46886857Y-93172000D01*
X46972571Y-93143428D01*
X47029714Y-93143428D01*
X47115428Y-93172000D01*
X47144000Y-93200571D01*
X47686857Y-93143428D02*
X47401142Y-93143428D01*
X47372571Y-93429142D01*
X47401142Y-93400571D01*
X47458285Y-93372000D01*
X47601142Y-93372000D01*
X47658285Y-93400571D01*
X47686857Y-93429142D01*
X47715428Y-93486285D01*
X47715428Y-93629142D01*
X47686857Y-93686285D01*
X47658285Y-93714857D01*
X47601142Y-93743428D01*
X47458285Y-93743428D01*
X47401142Y-93714857D01*
X47372571Y-93686285D01*
%TO.C,C6*%
X62130000Y-85558285D02*
X62101428Y-85586857D01*
X62015714Y-85615428D01*
X61958571Y-85615428D01*
X61872857Y-85586857D01*
X61815714Y-85529714D01*
X61787142Y-85472571D01*
X61758571Y-85358285D01*
X61758571Y-85272571D01*
X61787142Y-85158285D01*
X61815714Y-85101142D01*
X61872857Y-85044000D01*
X61958571Y-85015428D01*
X62015714Y-85015428D01*
X62101428Y-85044000D01*
X62130000Y-85072571D01*
X62644285Y-85015428D02*
X62530000Y-85015428D01*
X62472857Y-85044000D01*
X62444285Y-85072571D01*
X62387142Y-85158285D01*
X62358571Y-85272571D01*
X62358571Y-85501142D01*
X62387142Y-85558285D01*
X62415714Y-85586857D01*
X62472857Y-85615428D01*
X62587142Y-85615428D01*
X62644285Y-85586857D01*
X62672857Y-85558285D01*
X62701428Y-85501142D01*
X62701428Y-85358285D01*
X62672857Y-85301142D01*
X62644285Y-85272571D01*
X62587142Y-85244000D01*
X62472857Y-85244000D01*
X62415714Y-85272571D01*
X62387142Y-85301142D01*
X62358571Y-85358285D01*
%TO.C,C7*%
X61876000Y-92924285D02*
X61847428Y-92952857D01*
X61761714Y-92981428D01*
X61704571Y-92981428D01*
X61618857Y-92952857D01*
X61561714Y-92895714D01*
X61533142Y-92838571D01*
X61504571Y-92724285D01*
X61504571Y-92638571D01*
X61533142Y-92524285D01*
X61561714Y-92467142D01*
X61618857Y-92410000D01*
X61704571Y-92381428D01*
X61761714Y-92381428D01*
X61847428Y-92410000D01*
X61876000Y-92438571D01*
X62076000Y-92381428D02*
X62476000Y-92381428D01*
X62218857Y-92981428D01*
%TO.C,C8*%
X41556000Y-64000428D02*
X41527428Y-64033285D01*
X41441714Y-64066142D01*
X41384571Y-64066142D01*
X41298857Y-64033285D01*
X41241714Y-63967571D01*
X41213142Y-63901857D01*
X41184571Y-63770428D01*
X41184571Y-63671857D01*
X41213142Y-63540428D01*
X41241714Y-63474714D01*
X41298857Y-63409000D01*
X41384571Y-63376142D01*
X41441714Y-63376142D01*
X41527428Y-63409000D01*
X41556000Y-63441857D01*
X41898857Y-63671857D02*
X41841714Y-63639000D01*
X41813142Y-63606142D01*
X41784571Y-63540428D01*
X41784571Y-63507571D01*
X41813142Y-63441857D01*
X41841714Y-63409000D01*
X41898857Y-63376142D01*
X42013142Y-63376142D01*
X42070285Y-63409000D01*
X42098857Y-63441857D01*
X42127428Y-63507571D01*
X42127428Y-63540428D01*
X42098857Y-63606142D01*
X42070285Y-63639000D01*
X42013142Y-63671857D01*
X41898857Y-63671857D01*
X41841714Y-63704714D01*
X41813142Y-63737571D01*
X41784571Y-63803285D01*
X41784571Y-63934714D01*
X41813142Y-64000428D01*
X41841714Y-64033285D01*
X41898857Y-64066142D01*
X42013142Y-64066142D01*
X42070285Y-64033285D01*
X42098857Y-64000428D01*
X42127428Y-63934714D01*
X42127428Y-63803285D01*
X42098857Y-63737571D01*
X42070285Y-63704714D01*
X42013142Y-63671857D01*
%TO.C,C9*%
X50446000Y-63968285D02*
X50417428Y-63996857D01*
X50331714Y-64025428D01*
X50274571Y-64025428D01*
X50188857Y-63996857D01*
X50131714Y-63939714D01*
X50103142Y-63882571D01*
X50074571Y-63768285D01*
X50074571Y-63682571D01*
X50103142Y-63568285D01*
X50131714Y-63511142D01*
X50188857Y-63454000D01*
X50274571Y-63425428D01*
X50331714Y-63425428D01*
X50417428Y-63454000D01*
X50446000Y-63482571D01*
X50731714Y-64025428D02*
X50846000Y-64025428D01*
X50903142Y-63996857D01*
X50931714Y-63968285D01*
X50988857Y-63882571D01*
X51017428Y-63768285D01*
X51017428Y-63539714D01*
X50988857Y-63482571D01*
X50960285Y-63454000D01*
X50903142Y-63425428D01*
X50788857Y-63425428D01*
X50731714Y-63454000D01*
X50703142Y-63482571D01*
X50674571Y-63539714D01*
X50674571Y-63682571D01*
X50703142Y-63739714D01*
X50731714Y-63768285D01*
X50788857Y-63796857D01*
X50903142Y-63796857D01*
X50960285Y-63768285D01*
X50988857Y-63739714D01*
X51017428Y-63682571D01*
%TO.C,R1*%
X45112000Y-67073428D02*
X44912000Y-66787714D01*
X44769142Y-67073428D02*
X44769142Y-66473428D01*
X44997714Y-66473428D01*
X45054857Y-66502000D01*
X45083428Y-66530571D01*
X45112000Y-66587714D01*
X45112000Y-66673428D01*
X45083428Y-66730571D01*
X45054857Y-66759142D01*
X44997714Y-66787714D01*
X44769142Y-66787714D01*
X45683428Y-67073428D02*
X45340571Y-67073428D01*
X45512000Y-67073428D02*
X45512000Y-66473428D01*
X45454857Y-66559142D01*
X45397714Y-66616285D01*
X45340571Y-66644857D01*
%TO.C,R3*%
X38762000Y-90187428D02*
X38562000Y-89901714D01*
X38419142Y-90187428D02*
X38419142Y-89587428D01*
X38647714Y-89587428D01*
X38704857Y-89616000D01*
X38733428Y-89644571D01*
X38762000Y-89701714D01*
X38762000Y-89787428D01*
X38733428Y-89844571D01*
X38704857Y-89873142D01*
X38647714Y-89901714D01*
X38419142Y-89901714D01*
X38962000Y-89587428D02*
X39333428Y-89587428D01*
X39133428Y-89816000D01*
X39219142Y-89816000D01*
X39276285Y-89844571D01*
X39304857Y-89873142D01*
X39333428Y-89930285D01*
X39333428Y-90073142D01*
X39304857Y-90130285D01*
X39276285Y-90158857D01*
X39219142Y-90187428D01*
X39047714Y-90187428D01*
X38990571Y-90158857D01*
X38962000Y-90130285D01*
%TO.C,R4*%
X37492000Y-64025428D02*
X37292000Y-63739714D01*
X37149142Y-64025428D02*
X37149142Y-63425428D01*
X37377714Y-63425428D01*
X37434857Y-63454000D01*
X37463428Y-63482571D01*
X37492000Y-63539714D01*
X37492000Y-63625428D01*
X37463428Y-63682571D01*
X37434857Y-63711142D01*
X37377714Y-63739714D01*
X37149142Y-63739714D01*
X38006285Y-63625428D02*
X38006285Y-64025428D01*
X37863428Y-63396857D02*
X37720571Y-63825428D01*
X38092000Y-63825428D01*
%TO.C,R5*%
X46636000Y-64025428D02*
X46436000Y-63739714D01*
X46293142Y-64025428D02*
X46293142Y-63425428D01*
X46521714Y-63425428D01*
X46578857Y-63454000D01*
X46607428Y-63482571D01*
X46636000Y-63539714D01*
X46636000Y-63625428D01*
X46607428Y-63682571D01*
X46578857Y-63711142D01*
X46521714Y-63739714D01*
X46293142Y-63739714D01*
X47178857Y-63425428D02*
X46893142Y-63425428D01*
X46864571Y-63711142D01*
X46893142Y-63682571D01*
X46950285Y-63654000D01*
X47093142Y-63654000D01*
X47150285Y-63682571D01*
X47178857Y-63711142D01*
X47207428Y-63768285D01*
X47207428Y-63911142D01*
X47178857Y-63968285D01*
X47150285Y-63996857D01*
X47093142Y-64025428D01*
X46950285Y-64025428D01*
X46893142Y-63996857D01*
X46864571Y-63968285D01*
%TO.C,H4*%
X32308857Y-59199428D02*
X32308857Y-58599428D01*
X32308857Y-58885142D02*
X32651714Y-58885142D01*
X32651714Y-59199428D02*
X32651714Y-58599428D01*
X33194571Y-58799428D02*
X33194571Y-59199428D01*
X33051714Y-58570857D02*
X32908857Y-58999428D01*
X33280285Y-58999428D01*
%TO.C,H1*%
X36626857Y-102125428D02*
X36626857Y-101525428D01*
X36626857Y-101811142D02*
X36969714Y-101811142D01*
X36969714Y-102125428D02*
X36969714Y-101525428D01*
X37569714Y-102125428D02*
X37226857Y-102125428D01*
X37398285Y-102125428D02*
X37398285Y-101525428D01*
X37341142Y-101611142D01*
X37284000Y-101668285D01*
X37226857Y-101696857D01*
%TO.C,J1*%
X30788000Y-76125428D02*
X30788000Y-76554000D01*
X30759428Y-76639714D01*
X30702285Y-76696857D01*
X30616571Y-76725428D01*
X30559428Y-76725428D01*
X31388000Y-76725428D02*
X31045142Y-76725428D01*
X31216571Y-76725428D02*
X31216571Y-76125428D01*
X31159428Y-76211142D01*
X31102285Y-76268285D01*
X31045142Y-76296857D01*
%TO.C,J2*%
X30788000Y-83237428D02*
X30788000Y-83666000D01*
X30759428Y-83751714D01*
X30702285Y-83808857D01*
X30616571Y-83837428D01*
X30559428Y-83837428D01*
X31045142Y-83294571D02*
X31073714Y-83266000D01*
X31130857Y-83237428D01*
X31273714Y-83237428D01*
X31330857Y-83266000D01*
X31359428Y-83294571D01*
X31388000Y-83351714D01*
X31388000Y-83408857D01*
X31359428Y-83494571D01*
X31016571Y-83837428D01*
X31388000Y-83837428D01*
%TO.C,J3*%
X31042000Y-90349428D02*
X31042000Y-90778000D01*
X31013428Y-90863714D01*
X30956285Y-90920857D01*
X30870571Y-90949428D01*
X30813428Y-90949428D01*
X31270571Y-90349428D02*
X31642000Y-90349428D01*
X31442000Y-90578000D01*
X31527714Y-90578000D01*
X31584857Y-90606571D01*
X31613428Y-90635142D01*
X31642000Y-90692285D01*
X31642000Y-90835142D01*
X31613428Y-90892285D01*
X31584857Y-90920857D01*
X31527714Y-90949428D01*
X31356285Y-90949428D01*
X31299142Y-90920857D01*
X31270571Y-90892285D01*
%TO.C,J4*%
X70666000Y-87555428D02*
X70666000Y-87984000D01*
X70637428Y-88069714D01*
X70580285Y-88126857D01*
X70494571Y-88155428D01*
X70437428Y-88155428D01*
X71208857Y-87755428D02*
X71208857Y-88155428D01*
X71066000Y-87526857D02*
X70923142Y-87955428D01*
X71294571Y-87955428D01*
%TO.C,J5*%
X43488000Y-53773428D02*
X43488000Y-54202000D01*
X43459428Y-54287714D01*
X43402285Y-54344857D01*
X43316571Y-54373428D01*
X43259428Y-54373428D01*
X44059428Y-53773428D02*
X43773714Y-53773428D01*
X43745142Y-54059142D01*
X43773714Y-54030571D01*
X43830857Y-54002000D01*
X43973714Y-54002000D01*
X44030857Y-54030571D01*
X44059428Y-54059142D01*
X44088000Y-54116285D01*
X44088000Y-54259142D01*
X44059428Y-54316285D01*
X44030857Y-54344857D01*
X43973714Y-54373428D01*
X43830857Y-54373428D01*
X43773714Y-54344857D01*
X43745142Y-54316285D01*
%TO.C,J6*%
X52505000Y-53773428D02*
X52505000Y-54202000D01*
X52476428Y-54287714D01*
X52419285Y-54344857D01*
X52333571Y-54373428D01*
X52276428Y-54373428D01*
X53047857Y-53773428D02*
X52933571Y-53773428D01*
X52876428Y-53802000D01*
X52847857Y-53830571D01*
X52790714Y-53916285D01*
X52762142Y-54030571D01*
X52762142Y-54259142D01*
X52790714Y-54316285D01*
X52819285Y-54344857D01*
X52876428Y-54373428D01*
X52990714Y-54373428D01*
X53047857Y-54344857D01*
X53076428Y-54316285D01*
X53105000Y-54259142D01*
X53105000Y-54116285D01*
X53076428Y-54059142D01*
X53047857Y-54030571D01*
X52990714Y-54002000D01*
X52876428Y-54002000D01*
X52819285Y-54030571D01*
X52790714Y-54059142D01*
X52762142Y-54116285D01*
%TO.C,J7*%
X31042000Y-97461428D02*
X31042000Y-97890000D01*
X31013428Y-97975714D01*
X30956285Y-98032857D01*
X30870571Y-98061428D01*
X30813428Y-98061428D01*
X31270571Y-97461428D02*
X31670571Y-97461428D01*
X31413428Y-98061428D01*
%TO.C,J8*%
X70412000Y-73331428D02*
X70412000Y-73760000D01*
X70383428Y-73845714D01*
X70326285Y-73902857D01*
X70240571Y-73931428D01*
X70183428Y-73931428D01*
X70783428Y-73588571D02*
X70726285Y-73560000D01*
X70697714Y-73531428D01*
X70669142Y-73474285D01*
X70669142Y-73445714D01*
X70697714Y-73388571D01*
X70726285Y-73360000D01*
X70783428Y-73331428D01*
X70897714Y-73331428D01*
X70954857Y-73360000D01*
X70983428Y-73388571D01*
X71012000Y-73445714D01*
X71012000Y-73474285D01*
X70983428Y-73531428D01*
X70954857Y-73560000D01*
X70897714Y-73588571D01*
X70783428Y-73588571D01*
X70726285Y-73617142D01*
X70697714Y-73645714D01*
X70669142Y-73702857D01*
X70669142Y-73817142D01*
X70697714Y-73874285D01*
X70726285Y-73902857D01*
X70783428Y-73931428D01*
X70897714Y-73931428D01*
X70954857Y-73902857D01*
X70983428Y-73874285D01*
X71012000Y-73817142D01*
X71012000Y-73702857D01*
X70983428Y-73645714D01*
X70954857Y-73617142D01*
X70897714Y-73588571D01*
%TO.C,C10*%
X59558285Y-63968285D02*
X59529714Y-63996857D01*
X59444000Y-64025428D01*
X59386857Y-64025428D01*
X59301142Y-63996857D01*
X59244000Y-63939714D01*
X59215428Y-63882571D01*
X59186857Y-63768285D01*
X59186857Y-63682571D01*
X59215428Y-63568285D01*
X59244000Y-63511142D01*
X59301142Y-63454000D01*
X59386857Y-63425428D01*
X59444000Y-63425428D01*
X59529714Y-63454000D01*
X59558285Y-63482571D01*
X60129714Y-64025428D02*
X59786857Y-64025428D01*
X59958285Y-64025428D02*
X59958285Y-63425428D01*
X59901142Y-63511142D01*
X59844000Y-63568285D01*
X59786857Y-63596857D01*
X60501142Y-63425428D02*
X60558285Y-63425428D01*
X60615428Y-63454000D01*
X60644000Y-63482571D01*
X60672571Y-63539714D01*
X60701142Y-63654000D01*
X60701142Y-63796857D01*
X60672571Y-63911142D01*
X60644000Y-63968285D01*
X60615428Y-63996857D01*
X60558285Y-64025428D01*
X60501142Y-64025428D01*
X60444000Y-63996857D01*
X60415428Y-63968285D01*
X60386857Y-63911142D01*
X60358285Y-63796857D01*
X60358285Y-63654000D01*
X60386857Y-63539714D01*
X60415428Y-63482571D01*
X60444000Y-63454000D01*
X60501142Y-63425428D01*
%TO.C,J9*%
X61522000Y-53519428D02*
X61522000Y-53948000D01*
X61493428Y-54033714D01*
X61436285Y-54090857D01*
X61350571Y-54119428D01*
X61293428Y-54119428D01*
X61836285Y-54119428D02*
X61950571Y-54119428D01*
X62007714Y-54090857D01*
X62036285Y-54062285D01*
X62093428Y-53976571D01*
X62122000Y-53862285D01*
X62122000Y-53633714D01*
X62093428Y-53576571D01*
X62064857Y-53548000D01*
X62007714Y-53519428D01*
X61893428Y-53519428D01*
X61836285Y-53548000D01*
X61807714Y-53576571D01*
X61779142Y-53633714D01*
X61779142Y-53776571D01*
X61807714Y-53833714D01*
X61836285Y-53862285D01*
X61893428Y-53890857D01*
X62007714Y-53890857D01*
X62064857Y-53862285D01*
X62093428Y-53833714D01*
X62122000Y-53776571D01*
%TO.C,R6*%
X55526000Y-64025428D02*
X55326000Y-63739714D01*
X55183142Y-64025428D02*
X55183142Y-63425428D01*
X55411714Y-63425428D01*
X55468857Y-63454000D01*
X55497428Y-63482571D01*
X55526000Y-63539714D01*
X55526000Y-63625428D01*
X55497428Y-63682571D01*
X55468857Y-63711142D01*
X55411714Y-63739714D01*
X55183142Y-63739714D01*
X56040285Y-63425428D02*
X55926000Y-63425428D01*
X55868857Y-63454000D01*
X55840285Y-63482571D01*
X55783142Y-63568285D01*
X55754571Y-63682571D01*
X55754571Y-63911142D01*
X55783142Y-63968285D01*
X55811714Y-63996857D01*
X55868857Y-64025428D01*
X55983142Y-64025428D01*
X56040285Y-63996857D01*
X56068857Y-63968285D01*
X56097428Y-63911142D01*
X56097428Y-63768285D01*
X56068857Y-63711142D01*
X56040285Y-63682571D01*
X55983142Y-63654000D01*
X55868857Y-63654000D01*
X55811714Y-63682571D01*
X55783142Y-63711142D01*
X55754571Y-63768285D01*
%TO.C,D1*%
X60517142Y-82313428D02*
X60517142Y-81713428D01*
X60660000Y-81713428D01*
X60745714Y-81742000D01*
X60802857Y-81799142D01*
X60831428Y-81856285D01*
X60860000Y-81970571D01*
X60860000Y-82056285D01*
X60831428Y-82170571D01*
X60802857Y-82227714D01*
X60745714Y-82284857D01*
X60660000Y-82313428D01*
X60517142Y-82313428D01*
X61431428Y-82313428D02*
X61088571Y-82313428D01*
X61260000Y-82313428D02*
X61260000Y-81713428D01*
X61202857Y-81799142D01*
X61145714Y-81856285D01*
X61088571Y-81884857D01*
%TO.C,J10*%
X69872285Y-80443428D02*
X69872285Y-80872000D01*
X69843714Y-80957714D01*
X69786571Y-81014857D01*
X69700857Y-81043428D01*
X69643714Y-81043428D01*
X70472285Y-81043428D02*
X70129428Y-81043428D01*
X70300857Y-81043428D02*
X70300857Y-80443428D01*
X70243714Y-80529142D01*
X70186571Y-80586285D01*
X70129428Y-80614857D01*
X70843714Y-80443428D02*
X70900857Y-80443428D01*
X70958000Y-80472000D01*
X70986571Y-80500571D01*
X71015142Y-80557714D01*
X71043714Y-80672000D01*
X71043714Y-80814857D01*
X71015142Y-80929142D01*
X70986571Y-80986285D01*
X70958000Y-81014857D01*
X70900857Y-81043428D01*
X70843714Y-81043428D01*
X70786571Y-81014857D01*
X70758000Y-80986285D01*
X70729428Y-80929142D01*
X70700857Y-80814857D01*
X70700857Y-80672000D01*
X70729428Y-80557714D01*
X70758000Y-80500571D01*
X70786571Y-80472000D01*
X70843714Y-80443428D01*
%TO.C,Q2*%
X59886857Y-71702571D02*
X59829714Y-71674000D01*
X59772571Y-71616857D01*
X59686857Y-71531142D01*
X59629714Y-71502571D01*
X59572571Y-71502571D01*
X59601142Y-71645428D02*
X59544000Y-71616857D01*
X59486857Y-71559714D01*
X59458285Y-71445428D01*
X59458285Y-71245428D01*
X59486857Y-71131142D01*
X59544000Y-71074000D01*
X59601142Y-71045428D01*
X59715428Y-71045428D01*
X59772571Y-71074000D01*
X59829714Y-71131142D01*
X59858285Y-71245428D01*
X59858285Y-71445428D01*
X59829714Y-71559714D01*
X59772571Y-71616857D01*
X59715428Y-71645428D01*
X59601142Y-71645428D01*
X60086857Y-71102571D02*
X60115428Y-71074000D01*
X60172571Y-71045428D01*
X60315428Y-71045428D01*
X60372571Y-71074000D01*
X60401142Y-71102571D01*
X60429714Y-71159714D01*
X60429714Y-71216857D01*
X60401142Y-71302571D01*
X60058285Y-71645428D01*
X60429714Y-71645428D01*
%TO.C,R7*%
X61876000Y-78249428D02*
X61676000Y-77963714D01*
X61533142Y-78249428D02*
X61533142Y-77649428D01*
X61761714Y-77649428D01*
X61818857Y-77678000D01*
X61847428Y-77706571D01*
X61876000Y-77763714D01*
X61876000Y-77849428D01*
X61847428Y-77906571D01*
X61818857Y-77935142D01*
X61761714Y-77963714D01*
X61533142Y-77963714D01*
X62076000Y-77649428D02*
X62476000Y-77649428D01*
X62218857Y-78249428D01*
%TO.C,Y1*%
X39338285Y-85075714D02*
X39338285Y-85361428D01*
X39138285Y-84761428D02*
X39338285Y-85075714D01*
X39538285Y-84761428D01*
X40052571Y-85361428D02*
X39709714Y-85361428D01*
X39881142Y-85361428D02*
X39881142Y-84761428D01*
X39824000Y-84847142D01*
X39766857Y-84904285D01*
X39709714Y-84932857D01*
%TO.C,D2*%
X38165142Y-73931428D02*
X38165142Y-73331428D01*
X38308000Y-73331428D01*
X38393714Y-73360000D01*
X38450857Y-73417142D01*
X38479428Y-73474285D01*
X38508000Y-73588571D01*
X38508000Y-73674285D01*
X38479428Y-73788571D01*
X38450857Y-73845714D01*
X38393714Y-73902857D01*
X38308000Y-73931428D01*
X38165142Y-73931428D01*
X38736571Y-73388571D02*
X38765142Y-73360000D01*
X38822285Y-73331428D01*
X38965142Y-73331428D01*
X39022285Y-73360000D01*
X39050857Y-73388571D01*
X39079428Y-73445714D01*
X39079428Y-73502857D01*
X39050857Y-73588571D01*
X38708000Y-73931428D01*
X39079428Y-73931428D01*
%TO.C,R8*%
X40794000Y-80535428D02*
X40594000Y-80249714D01*
X40451142Y-80535428D02*
X40451142Y-79935428D01*
X40679714Y-79935428D01*
X40736857Y-79964000D01*
X40765428Y-79992571D01*
X40794000Y-80049714D01*
X40794000Y-80135428D01*
X40765428Y-80192571D01*
X40736857Y-80221142D01*
X40679714Y-80249714D01*
X40451142Y-80249714D01*
X41136857Y-80192571D02*
X41079714Y-80164000D01*
X41051142Y-80135428D01*
X41022571Y-80078285D01*
X41022571Y-80049714D01*
X41051142Y-79992571D01*
X41079714Y-79964000D01*
X41136857Y-79935428D01*
X41251142Y-79935428D01*
X41308285Y-79964000D01*
X41336857Y-79992571D01*
X41365428Y-80049714D01*
X41365428Y-80078285D01*
X41336857Y-80135428D01*
X41308285Y-80164000D01*
X41251142Y-80192571D01*
X41136857Y-80192571D01*
X41079714Y-80221142D01*
X41051142Y-80249714D01*
X41022571Y-80306857D01*
X41022571Y-80421142D01*
X41051142Y-80478285D01*
X41079714Y-80506857D01*
X41136857Y-80535428D01*
X41251142Y-80535428D01*
X41308285Y-80506857D01*
X41336857Y-80478285D01*
X41365428Y-80421142D01*
X41365428Y-80306857D01*
X41336857Y-80249714D01*
X41308285Y-80221142D01*
X41251142Y-80192571D01*
%TD*%
M02*
