%TF.GenerationSoftware,KiCad,Pcbnew,(5.1.6)-1*%
%TF.CreationDate,2021-03-31T20:23:18+03:00*%
%TF.ProjectId,reflow_oven,7265666c-6f77-45f6-9f76-656e2e6b6963,rev?*%
%TF.SameCoordinates,Original*%
%TF.FileFunction,Copper,L2,Bot*%
%TF.FilePolarity,Positive*%
%FSLAX46Y46*%
G04 Gerber Fmt 4.6, Leading zero omitted, Abs format (unit mm)*
G04 Created by KiCad (PCBNEW (5.1.6)-1) date 2021-03-31 20:23:18*
%MOMM*%
%LPD*%
G01*
G04 APERTURE LIST*
%TA.AperFunction,ComponentPad*%
%ADD10R,1.600000X1.600000*%
%TD*%
%TA.AperFunction,ComponentPad*%
%ADD11O,1.600000X1.600000*%
%TD*%
%TA.AperFunction,ComponentPad*%
%ADD12O,1.050000X1.500000*%
%TD*%
%TA.AperFunction,ComponentPad*%
%ADD13R,1.050000X1.500000*%
%TD*%
%TA.AperFunction,ComponentPad*%
%ADD14C,0.800000*%
%TD*%
%TA.AperFunction,ComponentPad*%
%ADD15C,6.000000*%
%TD*%
%TA.AperFunction,ComponentPad*%
%ADD16O,2.190000X1.740000*%
%TD*%
%TA.AperFunction,ComponentPad*%
%ADD17O,1.740000X2.190000*%
%TD*%
%TA.AperFunction,ComponentPad*%
%ADD18O,1.500000X1.050000*%
%TD*%
%TA.AperFunction,ComponentPad*%
%ADD19R,1.500000X1.050000*%
%TD*%
%TA.AperFunction,ViaPad*%
%ADD20C,1.000000*%
%TD*%
%TA.AperFunction,Conductor*%
%ADD21C,0.250000*%
%TD*%
%TA.AperFunction,Conductor*%
%ADD22C,0.254000*%
%TD*%
G04 APERTURE END LIST*
D10*
%TO.P,U1,1*%
%TO.N,RST*%
X50038000Y-67564000D03*
D11*
%TO.P,U1,15*%
%TO.N,Net-(U1-Pad15)*%
X57658000Y-100584000D03*
%TO.P,U1,2*%
%TO.N,UART_RX*%
X50038000Y-70104000D03*
%TO.P,U1,16*%
%TO.N,CS*%
X57658000Y-98044000D03*
%TO.P,U1,3*%
%TO.N,UART_TX*%
X50038000Y-72644000D03*
%TO.P,U1,17*%
%TO.N,Net-(U1-Pad17)*%
X57658000Y-95504000D03*
%TO.P,U1,4*%
%TO.N,BUTTON1*%
X50038000Y-75184000D03*
%TO.P,U1,18*%
%TO.N,D0*%
X57658000Y-92964000D03*
%TO.P,U1,5*%
%TO.N,BUTTON2*%
X50038000Y-77724000D03*
%TO.P,U1,19*%
%TO.N,SCK*%
X57658000Y-90424000D03*
%TO.P,U1,6*%
%TO.N,BUTTON3*%
X50038000Y-80264000D03*
%TO.P,U1,20*%
%TO.N,FAN_CONN+*%
X57658000Y-87884000D03*
%TO.P,U1,7*%
X50038000Y-82804000D03*
%TO.P,U1,21*%
%TO.N,Net-(C6-Pad1)*%
X57658000Y-85344000D03*
%TO.P,U1,8*%
%TO.N,GND*%
X50038000Y-85344000D03*
%TO.P,U1,22*%
X57658000Y-82804000D03*
%TO.P,U1,9*%
%TO.N,XTAL1*%
X50038000Y-87884000D03*
%TO.P,U1,23*%
%TO.N,FAN*%
X57658000Y-80264000D03*
%TO.P,U1,10*%
%TO.N,XTAL2*%
X50038000Y-90424000D03*
%TO.P,U1,24*%
%TO.N,Net-(U1-Pad24)*%
X57658000Y-77724000D03*
%TO.P,U1,11*%
%TO.N,RELAY*%
X50038000Y-92964000D03*
%TO.P,U1,25*%
%TO.N,Net-(U1-Pad25)*%
X57658000Y-75184000D03*
%TO.P,U1,12*%
%TO.N,Net-(U1-Pad12)*%
X50038000Y-95504000D03*
%TO.P,U1,26*%
%TO.N,Net-(U1-Pad26)*%
X57658000Y-72644000D03*
%TO.P,U1,13*%
%TO.N,Net-(U1-Pad13)*%
X50038000Y-98044000D03*
%TO.P,U1,27*%
%TO.N,SCL*%
X57658000Y-70104000D03*
%TO.P,U1,14*%
%TO.N,Net-(U1-Pad14)*%
X50038000Y-100584000D03*
%TO.P,U1,28*%
%TO.N,SDA*%
X57658000Y-67564000D03*
%TD*%
D12*
%TO.P,Q1,2*%
%TO.N,Net-(Q1-Pad2)*%
X43180000Y-100838000D03*
%TO.P,Q1,3*%
%TO.N,GND*%
X44450000Y-100838000D03*
D13*
%TO.P,Q1,1*%
%TO.N,RELAY_CONN*%
X41910000Y-100838000D03*
%TD*%
D14*
%TO.P,H2,1*%
%TO.N,N/C*%
X70460990Y-53273010D03*
X68870000Y-52614000D03*
X67279010Y-53273010D03*
X66620000Y-54864000D03*
X67279010Y-56454990D03*
X68870000Y-57114000D03*
X70460990Y-56454990D03*
X71120000Y-54864000D03*
D15*
X68870000Y-54864000D03*
%TD*%
%TO.P,H3,1*%
%TO.N,N/C*%
X68834000Y-101854000D03*
D14*
X71084000Y-101854000D03*
X70424990Y-103444990D03*
X68834000Y-104104000D03*
X67243010Y-103444990D03*
X66584000Y-101854000D03*
X67243010Y-100263010D03*
X68834000Y-99604000D03*
X70424990Y-100263010D03*
%TD*%
D15*
%TO.P,H4,1*%
%TO.N,N/C*%
X32766000Y-54864000D03*
D14*
X35016000Y-54864000D03*
X34356990Y-56454990D03*
X32766000Y-57114000D03*
X31175010Y-56454990D03*
X30516000Y-54864000D03*
X31175010Y-53273010D03*
X32766000Y-52614000D03*
X34356990Y-53273010D03*
%TD*%
D15*
%TO.P,H1,1*%
%TO.N,N/C*%
X32766000Y-101854000D03*
D14*
X35016000Y-101854000D03*
X34356990Y-103444990D03*
X32766000Y-104104000D03*
X31175010Y-103444990D03*
X30516000Y-101854000D03*
X31175010Y-100263010D03*
X32766000Y-99604000D03*
X34356990Y-100263010D03*
%TD*%
D16*
%TO.P,J1,4*%
%TO.N,GND*%
X33782000Y-66548000D03*
%TO.P,J1,3*%
%TO.N,RST*%
X33782000Y-69088000D03*
%TO.P,J1,2*%
%TO.N,UART_RX*%
X33782000Y-71628000D03*
%TO.P,J1,1*%
%TO.N,UART_TX*%
%TA.AperFunction,ComponentPad*%
G36*
G01*
X34627001Y-75038000D02*
X32936999Y-75038000D01*
G75*
G02*
X32687000Y-74788001I0J249999D01*
G01*
X32687000Y-73547999D01*
G75*
G02*
X32936999Y-73298000I249999J0D01*
G01*
X34627001Y-73298000D01*
G75*
G02*
X34877000Y-73547999I0J-249999D01*
G01*
X34877000Y-74788001D01*
G75*
G02*
X34627001Y-75038000I-249999J0D01*
G01*
G37*
%TD.AperFunction*%
%TD*%
%TO.P,J2,2*%
%TO.N,GND*%
X33782000Y-78740000D03*
%TO.P,J2,1*%
%TO.N,FAN_CONN+*%
%TA.AperFunction,ComponentPad*%
G36*
G01*
X34627001Y-82150000D02*
X32936999Y-82150000D01*
G75*
G02*
X32687000Y-81900001I0J249999D01*
G01*
X32687000Y-80659999D01*
G75*
G02*
X32936999Y-80410000I249999J0D01*
G01*
X34627001Y-80410000D01*
G75*
G02*
X34877000Y-80659999I0J-249999D01*
G01*
X34877000Y-81900001D01*
G75*
G02*
X34627001Y-82150000I-249999J0D01*
G01*
G37*
%TD.AperFunction*%
%TD*%
%TO.P,J3,1*%
%TO.N,LED_CONN*%
%TA.AperFunction,ComponentPad*%
G36*
G01*
X34627001Y-89262000D02*
X32936999Y-89262000D01*
G75*
G02*
X32687000Y-89012001I0J249999D01*
G01*
X32687000Y-87771999D01*
G75*
G02*
X32936999Y-87522000I249999J0D01*
G01*
X34627001Y-87522000D01*
G75*
G02*
X34877000Y-87771999I0J-249999D01*
G01*
X34877000Y-89012001D01*
G75*
G02*
X34627001Y-89262000I-249999J0D01*
G01*
G37*
%TD.AperFunction*%
%TO.P,J3,2*%
%TO.N,GND*%
X33782000Y-85852000D03*
%TD*%
%TO.P,J4,1*%
%TO.N,K-*%
%TA.AperFunction,ComponentPad*%
G36*
G01*
X67226999Y-82188000D02*
X68917001Y-82188000D01*
G75*
G02*
X69167000Y-82437999I0J-249999D01*
G01*
X69167000Y-83678001D01*
G75*
G02*
X68917001Y-83928000I-249999J0D01*
G01*
X67226999Y-83928000D01*
G75*
G02*
X66977000Y-83678001I0J249999D01*
G01*
X66977000Y-82437999D01*
G75*
G02*
X67226999Y-82188000I249999J0D01*
G01*
G37*
%TD.AperFunction*%
%TO.P,J4,2*%
%TO.N,K+*%
X68072000Y-85598000D03*
%TD*%
D17*
%TO.P,J5,2*%
%TO.N,GND*%
X41148000Y-56896000D03*
%TO.P,J5,1*%
%TO.N,BUTTON1_CONN*%
%TA.AperFunction,ComponentPad*%
G36*
G01*
X37738000Y-57741001D02*
X37738000Y-56050999D01*
G75*
G02*
X37987999Y-55801000I249999J0D01*
G01*
X39228001Y-55801000D01*
G75*
G02*
X39478000Y-56050999I0J-249999D01*
G01*
X39478000Y-57741001D01*
G75*
G02*
X39228001Y-57991000I-249999J0D01*
G01*
X37987999Y-57991000D01*
G75*
G02*
X37738000Y-57741001I0J249999D01*
G01*
G37*
%TD.AperFunction*%
%TD*%
%TO.P,J6,1*%
%TO.N,BUTTON2_CONN*%
%TA.AperFunction,ComponentPad*%
G36*
G01*
X46755000Y-57741001D02*
X46755000Y-56050999D01*
G75*
G02*
X47004999Y-55801000I249999J0D01*
G01*
X48245001Y-55801000D01*
G75*
G02*
X48495000Y-56050999I0J-249999D01*
G01*
X48495000Y-57741001D01*
G75*
G02*
X48245001Y-57991000I-249999J0D01*
G01*
X47004999Y-57991000D01*
G75*
G02*
X46755000Y-57741001I0J249999D01*
G01*
G37*
%TD.AperFunction*%
%TO.P,J6,2*%
%TO.N,GND*%
X50165000Y-56896000D03*
%TD*%
D16*
%TO.P,J7,2*%
%TO.N,RELAY_CONN*%
X33782000Y-92964000D03*
%TO.P,J7,1*%
%TO.N,FAN_CONN+*%
%TA.AperFunction,ComponentPad*%
G36*
G01*
X34627001Y-96374000D02*
X32936999Y-96374000D01*
G75*
G02*
X32687000Y-96124001I0J249999D01*
G01*
X32687000Y-94883999D01*
G75*
G02*
X32936999Y-94634000I249999J0D01*
G01*
X34627001Y-94634000D01*
G75*
G02*
X34877000Y-94883999I0J-249999D01*
G01*
X34877000Y-96124001D01*
G75*
G02*
X34627001Y-96374000I-249999J0D01*
G01*
G37*
%TD.AperFunction*%
%TD*%
%TO.P,J8,1*%
%TO.N,FAN_CONN+*%
%TA.AperFunction,ComponentPad*%
G36*
G01*
X67226999Y-62884000D02*
X68917001Y-62884000D01*
G75*
G02*
X69167000Y-63133999I0J-249999D01*
G01*
X69167000Y-64374001D01*
G75*
G02*
X68917001Y-64624000I-249999J0D01*
G01*
X67226999Y-64624000D01*
G75*
G02*
X66977000Y-64374001I0J249999D01*
G01*
X66977000Y-63133999D01*
G75*
G02*
X67226999Y-62884000I249999J0D01*
G01*
G37*
%TD.AperFunction*%
%TO.P,J8,2*%
%TO.N,SDA*%
X68072000Y-66294000D03*
%TO.P,J8,3*%
%TO.N,SCL*%
X68072000Y-68834000D03*
%TO.P,J8,4*%
%TO.N,GND*%
X68072000Y-71374000D03*
%TD*%
%TO.P,J9,1*%
%TO.N,BUTTON3_CONN*%
%TA.AperFunction,ComponentPad*%
G36*
G01*
X55772000Y-57741001D02*
X55772000Y-56050999D01*
G75*
G02*
X56021999Y-55801000I249999J0D01*
G01*
X57262001Y-55801000D01*
G75*
G02*
X57512000Y-56050999I0J-249999D01*
G01*
X57512000Y-57741001D01*
G75*
G02*
X57262001Y-57991000I-249999J0D01*
G01*
X56021999Y-57991000D01*
G75*
G02*
X55772000Y-57741001I0J249999D01*
G01*
G37*
%TD.AperFunction*%
D17*
%TO.P,J9,2*%
%TO.N,GND*%
X59182000Y-56896000D03*
%TD*%
%TO.P,J10,1*%
%TO.N,FAN_CONN-*%
%TA.AperFunction,ComponentPad*%
G36*
G01*
X67226999Y-75076000D02*
X68917001Y-75076000D01*
G75*
G02*
X69167000Y-75325999I0J-249999D01*
G01*
X69167000Y-76566001D01*
G75*
G02*
X68917001Y-76816000I-249999J0D01*
G01*
X67226999Y-76816000D01*
G75*
G02*
X66977000Y-76566001I0J249999D01*
G01*
X66977000Y-75325999D01*
G75*
G02*
X67226999Y-75076000I249999J0D01*
G01*
G37*
%TD.AperFunction*%
D16*
%TO.P,J10,2*%
%TO.N,FAN_CONN+*%
X68072000Y-78486000D03*
%TD*%
D18*
%TO.P,Q2,2*%
%TO.N,Net-(Q2-Pad2)*%
X61976000Y-74676000D03*
%TO.P,Q2,3*%
%TO.N,GND*%
X61976000Y-73406000D03*
D19*
%TO.P,Q2,1*%
%TO.N,FAN_CONN-*%
X61976000Y-75946000D03*
%TD*%
D20*
%TO.N,GND*%
X61722000Y-59944000D03*
X52705000Y-59944000D03*
X38862000Y-76708000D03*
X47244000Y-88392000D03*
X43688000Y-59944000D03*
X47498000Y-79248000D03*
X62230000Y-87376000D03*
X68326000Y-92456000D03*
X38100000Y-74676000D03*
%TO.N,D0*%
X60706000Y-97790000D03*
%TO.N,FAN_CONN+*%
X44958000Y-69088000D03*
X44958000Y-73660000D03*
%TD*%
D21*
%TO.N,GND*%
X55118000Y-85344000D02*
X57658000Y-82804000D01*
X50038000Y-85344000D02*
X55118000Y-85344000D01*
%TO.N,D0*%
X59436000Y-97282000D02*
X59944000Y-97790000D01*
X57658000Y-92964000D02*
X59436000Y-94742000D01*
X59944000Y-97790000D02*
X60706000Y-97790000D01*
X59436000Y-94742000D02*
X59436000Y-97282000D01*
%TO.N,FAN_CONN+*%
X44958000Y-69088000D02*
X44958000Y-73660000D01*
%TD*%
D22*
%TO.N,GND*%
G36*
X66552823Y-52040511D02*
G01*
X66046511Y-52546823D01*
X65648705Y-53142182D01*
X65374691Y-53803710D01*
X65235000Y-54505984D01*
X65235000Y-55222016D01*
X65374691Y-55924290D01*
X65648705Y-56585818D01*
X66046511Y-57181177D01*
X66552823Y-57687489D01*
X67148182Y-58085295D01*
X67809710Y-58359309D01*
X68511984Y-58499000D01*
X69228016Y-58499000D01*
X69930290Y-58359309D01*
X70591818Y-58085295D01*
X71187177Y-57687489D01*
X71693489Y-57181177D01*
X72091295Y-56585818D01*
X72238001Y-56231639D01*
X72238000Y-100573271D01*
X72055295Y-100132182D01*
X71657489Y-99536823D01*
X71151177Y-99030511D01*
X70555818Y-98632705D01*
X69894290Y-98358691D01*
X69192016Y-98219000D01*
X68475984Y-98219000D01*
X67773710Y-98358691D01*
X67112182Y-98632705D01*
X66516823Y-99030511D01*
X66010511Y-99536823D01*
X65612705Y-100132182D01*
X65338691Y-100793710D01*
X65199000Y-101495984D01*
X65199000Y-102212016D01*
X65338691Y-102914290D01*
X65612705Y-103575818D01*
X66010511Y-104171177D01*
X66516823Y-104677489D01*
X67005481Y-105004000D01*
X34594519Y-105004000D01*
X35083177Y-104677489D01*
X35589489Y-104171177D01*
X35987295Y-103575818D01*
X36261309Y-102914290D01*
X36401000Y-102212016D01*
X36401000Y-101495984D01*
X36261309Y-100793710D01*
X35987295Y-100132182D01*
X35957774Y-100088000D01*
X40746928Y-100088000D01*
X40746928Y-101588000D01*
X40759188Y-101712482D01*
X40795498Y-101832180D01*
X40854463Y-101942494D01*
X40933815Y-102039185D01*
X41030506Y-102118537D01*
X41140820Y-102177502D01*
X41260518Y-102213812D01*
X41385000Y-102226072D01*
X42435000Y-102226072D01*
X42559482Y-102213812D01*
X42679180Y-102177502D01*
X42743902Y-102142907D01*
X42952601Y-102206215D01*
X43180000Y-102228612D01*
X43407400Y-102206215D01*
X43626060Y-102139885D01*
X43814669Y-102039071D01*
X43873118Y-102080275D01*
X44082663Y-102173272D01*
X44144190Y-102181964D01*
X44323000Y-102056163D01*
X44323000Y-101291108D01*
X44323215Y-101290399D01*
X44340000Y-101119978D01*
X44340000Y-100965000D01*
X44577000Y-100965000D01*
X44577000Y-102056163D01*
X44755810Y-102181964D01*
X44817337Y-102173272D01*
X45026882Y-102080275D01*
X45214258Y-101948184D01*
X45372264Y-101782076D01*
X45494828Y-101588334D01*
X45577239Y-101374404D01*
X45616331Y-101148507D01*
X45456598Y-100965000D01*
X44577000Y-100965000D01*
X44340000Y-100965000D01*
X44340000Y-100556021D01*
X44323215Y-100385600D01*
X44323000Y-100384891D01*
X44323000Y-99619837D01*
X44577000Y-99619837D01*
X44577000Y-100711000D01*
X45456598Y-100711000D01*
X45616331Y-100527493D01*
X45577239Y-100301596D01*
X45494828Y-100087666D01*
X45372264Y-99893924D01*
X45214258Y-99727816D01*
X45026882Y-99595725D01*
X44817337Y-99502728D01*
X44755810Y-99494036D01*
X44577000Y-99619837D01*
X44323000Y-99619837D01*
X44144190Y-99494036D01*
X44082663Y-99502728D01*
X43873118Y-99595725D01*
X43814669Y-99636929D01*
X43626059Y-99536115D01*
X43407399Y-99469785D01*
X43180000Y-99447388D01*
X42952600Y-99469785D01*
X42743902Y-99533093D01*
X42679180Y-99498498D01*
X42559482Y-99462188D01*
X42435000Y-99449928D01*
X41385000Y-99449928D01*
X41260518Y-99462188D01*
X41140820Y-99498498D01*
X41030506Y-99557463D01*
X40933815Y-99636815D01*
X40854463Y-99733506D01*
X40795498Y-99843820D01*
X40759188Y-99963518D01*
X40746928Y-100088000D01*
X35957774Y-100088000D01*
X35589489Y-99536823D01*
X35083177Y-99030511D01*
X34487818Y-98632705D01*
X33826290Y-98358691D01*
X33124016Y-98219000D01*
X32407984Y-98219000D01*
X31705710Y-98358691D01*
X31044182Y-98632705D01*
X30448823Y-99030511D01*
X29942511Y-99536823D01*
X29544705Y-100132182D01*
X29362000Y-100573271D01*
X29362000Y-92964000D01*
X32044718Y-92964000D01*
X32073776Y-93259032D01*
X32159834Y-93542725D01*
X32299583Y-93804179D01*
X32487655Y-94033345D01*
X32553114Y-94087066D01*
X32443613Y-94145595D01*
X32309038Y-94256038D01*
X32198595Y-94390613D01*
X32116528Y-94544149D01*
X32065992Y-94710745D01*
X32048928Y-94883999D01*
X32048928Y-96124001D01*
X32065992Y-96297255D01*
X32116528Y-96463851D01*
X32198595Y-96617387D01*
X32309038Y-96751962D01*
X32443613Y-96862405D01*
X32597149Y-96944472D01*
X32763745Y-96995008D01*
X32936999Y-97012072D01*
X34627001Y-97012072D01*
X34800255Y-96995008D01*
X34966851Y-96944472D01*
X35120387Y-96862405D01*
X35254962Y-96751962D01*
X35365405Y-96617387D01*
X35447472Y-96463851D01*
X35498008Y-96297255D01*
X35515072Y-96124001D01*
X35515072Y-94883999D01*
X35498008Y-94710745D01*
X35447472Y-94544149D01*
X35365405Y-94390613D01*
X35254962Y-94256038D01*
X35120387Y-94145595D01*
X35010886Y-94087066D01*
X35076345Y-94033345D01*
X35264417Y-93804179D01*
X35404166Y-93542725D01*
X35490224Y-93259032D01*
X35519282Y-92964000D01*
X35490224Y-92668968D01*
X35404166Y-92385275D01*
X35264417Y-92123821D01*
X35076345Y-91894655D01*
X34847179Y-91706583D01*
X34585725Y-91566834D01*
X34302032Y-91480776D01*
X34080936Y-91459000D01*
X33483064Y-91459000D01*
X33261968Y-91480776D01*
X32978275Y-91566834D01*
X32716821Y-91706583D01*
X32487655Y-91894655D01*
X32299583Y-92123821D01*
X32159834Y-92385275D01*
X32073776Y-92668968D01*
X32044718Y-92964000D01*
X29362000Y-92964000D01*
X29362000Y-87771999D01*
X32048928Y-87771999D01*
X32048928Y-89012001D01*
X32065992Y-89185255D01*
X32116528Y-89351851D01*
X32198595Y-89505387D01*
X32309038Y-89639962D01*
X32443613Y-89750405D01*
X32597149Y-89832472D01*
X32763745Y-89883008D01*
X32936999Y-89900072D01*
X34627001Y-89900072D01*
X34800255Y-89883008D01*
X34966851Y-89832472D01*
X35120387Y-89750405D01*
X35254962Y-89639962D01*
X35365405Y-89505387D01*
X35447472Y-89351851D01*
X35498008Y-89185255D01*
X35515072Y-89012001D01*
X35515072Y-87771999D01*
X35512183Y-87742665D01*
X48603000Y-87742665D01*
X48603000Y-88025335D01*
X48658147Y-88302574D01*
X48766320Y-88563727D01*
X48923363Y-88798759D01*
X49123241Y-88998637D01*
X49355759Y-89154000D01*
X49123241Y-89309363D01*
X48923363Y-89509241D01*
X48766320Y-89744273D01*
X48658147Y-90005426D01*
X48603000Y-90282665D01*
X48603000Y-90565335D01*
X48658147Y-90842574D01*
X48766320Y-91103727D01*
X48923363Y-91338759D01*
X49123241Y-91538637D01*
X49355759Y-91694000D01*
X49123241Y-91849363D01*
X48923363Y-92049241D01*
X48766320Y-92284273D01*
X48658147Y-92545426D01*
X48603000Y-92822665D01*
X48603000Y-93105335D01*
X48658147Y-93382574D01*
X48766320Y-93643727D01*
X48923363Y-93878759D01*
X49123241Y-94078637D01*
X49355759Y-94234000D01*
X49123241Y-94389363D01*
X48923363Y-94589241D01*
X48766320Y-94824273D01*
X48658147Y-95085426D01*
X48603000Y-95362665D01*
X48603000Y-95645335D01*
X48658147Y-95922574D01*
X48766320Y-96183727D01*
X48923363Y-96418759D01*
X49123241Y-96618637D01*
X49355759Y-96774000D01*
X49123241Y-96929363D01*
X48923363Y-97129241D01*
X48766320Y-97364273D01*
X48658147Y-97625426D01*
X48603000Y-97902665D01*
X48603000Y-98185335D01*
X48658147Y-98462574D01*
X48766320Y-98723727D01*
X48923363Y-98958759D01*
X49123241Y-99158637D01*
X49355759Y-99314000D01*
X49123241Y-99469363D01*
X48923363Y-99669241D01*
X48766320Y-99904273D01*
X48658147Y-100165426D01*
X48603000Y-100442665D01*
X48603000Y-100725335D01*
X48658147Y-101002574D01*
X48766320Y-101263727D01*
X48923363Y-101498759D01*
X49123241Y-101698637D01*
X49358273Y-101855680D01*
X49619426Y-101963853D01*
X49896665Y-102019000D01*
X50179335Y-102019000D01*
X50456574Y-101963853D01*
X50717727Y-101855680D01*
X50952759Y-101698637D01*
X51152637Y-101498759D01*
X51309680Y-101263727D01*
X51417853Y-101002574D01*
X51473000Y-100725335D01*
X51473000Y-100442665D01*
X51417853Y-100165426D01*
X51309680Y-99904273D01*
X51152637Y-99669241D01*
X50952759Y-99469363D01*
X50720241Y-99314000D01*
X50952759Y-99158637D01*
X51152637Y-98958759D01*
X51309680Y-98723727D01*
X51417853Y-98462574D01*
X51473000Y-98185335D01*
X51473000Y-97902665D01*
X51417853Y-97625426D01*
X51309680Y-97364273D01*
X51152637Y-97129241D01*
X50952759Y-96929363D01*
X50720241Y-96774000D01*
X50952759Y-96618637D01*
X51152637Y-96418759D01*
X51309680Y-96183727D01*
X51417853Y-95922574D01*
X51473000Y-95645335D01*
X51473000Y-95362665D01*
X51417853Y-95085426D01*
X51309680Y-94824273D01*
X51152637Y-94589241D01*
X50952759Y-94389363D01*
X50720241Y-94234000D01*
X50952759Y-94078637D01*
X51152637Y-93878759D01*
X51309680Y-93643727D01*
X51417853Y-93382574D01*
X51473000Y-93105335D01*
X51473000Y-92822665D01*
X51417853Y-92545426D01*
X51309680Y-92284273D01*
X51152637Y-92049241D01*
X50952759Y-91849363D01*
X50720241Y-91694000D01*
X50952759Y-91538637D01*
X51152637Y-91338759D01*
X51309680Y-91103727D01*
X51417853Y-90842574D01*
X51473000Y-90565335D01*
X51473000Y-90282665D01*
X51417853Y-90005426D01*
X51309680Y-89744273D01*
X51152637Y-89509241D01*
X50952759Y-89309363D01*
X50720241Y-89154000D01*
X50952759Y-88998637D01*
X51152637Y-88798759D01*
X51309680Y-88563727D01*
X51417853Y-88302574D01*
X51473000Y-88025335D01*
X51473000Y-87742665D01*
X51417853Y-87465426D01*
X51309680Y-87204273D01*
X51152637Y-86969241D01*
X50952759Y-86769363D01*
X50717727Y-86612320D01*
X50707135Y-86607933D01*
X50893131Y-86496385D01*
X51101519Y-86307414D01*
X51269037Y-86081420D01*
X51389246Y-85827087D01*
X51429904Y-85693039D01*
X51307915Y-85471000D01*
X50165000Y-85471000D01*
X50165000Y-85491000D01*
X49911000Y-85491000D01*
X49911000Y-85471000D01*
X48768085Y-85471000D01*
X48646096Y-85693039D01*
X48686754Y-85827087D01*
X48806963Y-86081420D01*
X48974481Y-86307414D01*
X49182869Y-86496385D01*
X49368865Y-86607933D01*
X49358273Y-86612320D01*
X49123241Y-86769363D01*
X48923363Y-86969241D01*
X48766320Y-87204273D01*
X48658147Y-87465426D01*
X48603000Y-87742665D01*
X35512183Y-87742665D01*
X35498008Y-87598745D01*
X35447472Y-87432149D01*
X35365405Y-87278613D01*
X35254962Y-87144038D01*
X35120387Y-87033595D01*
X35011410Y-86975345D01*
X35170306Y-86818326D01*
X35336474Y-86572809D01*
X35451551Y-86299591D01*
X35468302Y-86212031D01*
X35347246Y-85979000D01*
X33909000Y-85979000D01*
X33909000Y-85999000D01*
X33655000Y-85999000D01*
X33655000Y-85979000D01*
X32216754Y-85979000D01*
X32095698Y-86212031D01*
X32112449Y-86299591D01*
X32227526Y-86572809D01*
X32393694Y-86818326D01*
X32552590Y-86975345D01*
X32443613Y-87033595D01*
X32309038Y-87144038D01*
X32198595Y-87278613D01*
X32116528Y-87432149D01*
X32065992Y-87598745D01*
X32048928Y-87771999D01*
X29362000Y-87771999D01*
X29362000Y-85491969D01*
X32095698Y-85491969D01*
X32216754Y-85725000D01*
X33655000Y-85725000D01*
X33655000Y-84501624D01*
X33909000Y-84501624D01*
X33909000Y-85725000D01*
X35347246Y-85725000D01*
X35468302Y-85491969D01*
X35451551Y-85404409D01*
X35336474Y-85131191D01*
X35170306Y-84885674D01*
X34959433Y-84677292D01*
X34711958Y-84514053D01*
X34437392Y-84402231D01*
X34146286Y-84346123D01*
X33909000Y-84501624D01*
X33655000Y-84501624D01*
X33417714Y-84346123D01*
X33126608Y-84402231D01*
X32852042Y-84514053D01*
X32604567Y-84677292D01*
X32393694Y-84885674D01*
X32227526Y-85131191D01*
X32112449Y-85404409D01*
X32095698Y-85491969D01*
X29362000Y-85491969D01*
X29362000Y-80659999D01*
X32048928Y-80659999D01*
X32048928Y-81900001D01*
X32065992Y-82073255D01*
X32116528Y-82239851D01*
X32198595Y-82393387D01*
X32309038Y-82527962D01*
X32443613Y-82638405D01*
X32597149Y-82720472D01*
X32763745Y-82771008D01*
X32936999Y-82788072D01*
X34627001Y-82788072D01*
X34800255Y-82771008D01*
X34966851Y-82720472D01*
X35120387Y-82638405D01*
X35254962Y-82527962D01*
X35365405Y-82393387D01*
X35447472Y-82239851D01*
X35498008Y-82073255D01*
X35515072Y-81900001D01*
X35515072Y-80659999D01*
X35498008Y-80486745D01*
X35447472Y-80320149D01*
X35365405Y-80166613D01*
X35254962Y-80032038D01*
X35120387Y-79921595D01*
X35011410Y-79863345D01*
X35170306Y-79706326D01*
X35336474Y-79460809D01*
X35451551Y-79187591D01*
X35468302Y-79100031D01*
X35347246Y-78867000D01*
X33909000Y-78867000D01*
X33909000Y-78887000D01*
X33655000Y-78887000D01*
X33655000Y-78867000D01*
X32216754Y-78867000D01*
X32095698Y-79100031D01*
X32112449Y-79187591D01*
X32227526Y-79460809D01*
X32393694Y-79706326D01*
X32552590Y-79863345D01*
X32443613Y-79921595D01*
X32309038Y-80032038D01*
X32198595Y-80166613D01*
X32116528Y-80320149D01*
X32065992Y-80486745D01*
X32048928Y-80659999D01*
X29362000Y-80659999D01*
X29362000Y-78379969D01*
X32095698Y-78379969D01*
X32216754Y-78613000D01*
X33655000Y-78613000D01*
X33655000Y-77389624D01*
X33909000Y-77389624D01*
X33909000Y-78613000D01*
X35347246Y-78613000D01*
X35468302Y-78379969D01*
X35451551Y-78292409D01*
X35336474Y-78019191D01*
X35170306Y-77773674D01*
X34959433Y-77565292D01*
X34711958Y-77402053D01*
X34437392Y-77290231D01*
X34146286Y-77234123D01*
X33909000Y-77389624D01*
X33655000Y-77389624D01*
X33417714Y-77234123D01*
X33126608Y-77290231D01*
X32852042Y-77402053D01*
X32604567Y-77565292D01*
X32393694Y-77773674D01*
X32227526Y-78019191D01*
X32112449Y-78292409D01*
X32095698Y-78379969D01*
X29362000Y-78379969D01*
X29362000Y-69088000D01*
X32044718Y-69088000D01*
X32073776Y-69383032D01*
X32159834Y-69666725D01*
X32299583Y-69928179D01*
X32487655Y-70157345D01*
X32716821Y-70345417D01*
X32740362Y-70358000D01*
X32716821Y-70370583D01*
X32487655Y-70558655D01*
X32299583Y-70787821D01*
X32159834Y-71049275D01*
X32073776Y-71332968D01*
X32044718Y-71628000D01*
X32073776Y-71923032D01*
X32159834Y-72206725D01*
X32299583Y-72468179D01*
X32487655Y-72697345D01*
X32553114Y-72751066D01*
X32443613Y-72809595D01*
X32309038Y-72920038D01*
X32198595Y-73054613D01*
X32116528Y-73208149D01*
X32065992Y-73374745D01*
X32048928Y-73547999D01*
X32048928Y-74788001D01*
X32065992Y-74961255D01*
X32116528Y-75127851D01*
X32198595Y-75281387D01*
X32309038Y-75415962D01*
X32443613Y-75526405D01*
X32597149Y-75608472D01*
X32763745Y-75659008D01*
X32936999Y-75676072D01*
X34627001Y-75676072D01*
X34800255Y-75659008D01*
X34966851Y-75608472D01*
X35120387Y-75526405D01*
X35254962Y-75415962D01*
X35365405Y-75281387D01*
X35447472Y-75127851D01*
X35498008Y-74961255D01*
X35515072Y-74788001D01*
X35515072Y-73547999D01*
X35498008Y-73374745D01*
X35447472Y-73208149D01*
X35365405Y-73054613D01*
X35254962Y-72920038D01*
X35120387Y-72809595D01*
X35010886Y-72751066D01*
X35076345Y-72697345D01*
X35264417Y-72468179D01*
X35404166Y-72206725D01*
X35490224Y-71923032D01*
X35519282Y-71628000D01*
X35490224Y-71332968D01*
X35404166Y-71049275D01*
X35264417Y-70787821D01*
X35076345Y-70558655D01*
X34847179Y-70370583D01*
X34823638Y-70358000D01*
X34847179Y-70345417D01*
X35076345Y-70157345D01*
X35264417Y-69928179D01*
X35404166Y-69666725D01*
X35490224Y-69383032D01*
X35519282Y-69088000D01*
X35508272Y-68976212D01*
X43823000Y-68976212D01*
X43823000Y-69199788D01*
X43866617Y-69419067D01*
X43952176Y-69625624D01*
X44076388Y-69811520D01*
X44198000Y-69933132D01*
X44198001Y-72814867D01*
X44076388Y-72936480D01*
X43952176Y-73122376D01*
X43866617Y-73328933D01*
X43823000Y-73548212D01*
X43823000Y-73771788D01*
X43866617Y-73991067D01*
X43952176Y-74197624D01*
X44076388Y-74383520D01*
X44234480Y-74541612D01*
X44420376Y-74665824D01*
X44626933Y-74751383D01*
X44846212Y-74795000D01*
X45069788Y-74795000D01*
X45289067Y-74751383D01*
X45495624Y-74665824D01*
X45681520Y-74541612D01*
X45839612Y-74383520D01*
X45963824Y-74197624D01*
X46049383Y-73991067D01*
X46093000Y-73771788D01*
X46093000Y-73548212D01*
X46049383Y-73328933D01*
X45963824Y-73122376D01*
X45839612Y-72936480D01*
X45718000Y-72814868D01*
X45718000Y-69933132D01*
X45839612Y-69811520D01*
X45963824Y-69625624D01*
X46049383Y-69419067D01*
X46093000Y-69199788D01*
X46093000Y-68976212D01*
X46049383Y-68756933D01*
X45963824Y-68550376D01*
X45839612Y-68364480D01*
X45681520Y-68206388D01*
X45495624Y-68082176D01*
X45289067Y-67996617D01*
X45069788Y-67953000D01*
X44846212Y-67953000D01*
X44626933Y-67996617D01*
X44420376Y-68082176D01*
X44234480Y-68206388D01*
X44076388Y-68364480D01*
X43952176Y-68550376D01*
X43866617Y-68756933D01*
X43823000Y-68976212D01*
X35508272Y-68976212D01*
X35490224Y-68792968D01*
X35404166Y-68509275D01*
X35264417Y-68247821D01*
X35076345Y-68018655D01*
X34847179Y-67830583D01*
X34818848Y-67815440D01*
X34959433Y-67722708D01*
X35170306Y-67514326D01*
X35336474Y-67268809D01*
X35451551Y-66995591D01*
X35468302Y-66908031D01*
X35393481Y-66764000D01*
X48599928Y-66764000D01*
X48599928Y-68364000D01*
X48612188Y-68488482D01*
X48648498Y-68608180D01*
X48707463Y-68718494D01*
X48786815Y-68815185D01*
X48883506Y-68894537D01*
X48993820Y-68953502D01*
X49113518Y-68989812D01*
X49121961Y-68990643D01*
X48923363Y-69189241D01*
X48766320Y-69424273D01*
X48658147Y-69685426D01*
X48603000Y-69962665D01*
X48603000Y-70245335D01*
X48658147Y-70522574D01*
X48766320Y-70783727D01*
X48923363Y-71018759D01*
X49123241Y-71218637D01*
X49355759Y-71374000D01*
X49123241Y-71529363D01*
X48923363Y-71729241D01*
X48766320Y-71964273D01*
X48658147Y-72225426D01*
X48603000Y-72502665D01*
X48603000Y-72785335D01*
X48658147Y-73062574D01*
X48766320Y-73323727D01*
X48923363Y-73558759D01*
X49123241Y-73758637D01*
X49355759Y-73914000D01*
X49123241Y-74069363D01*
X48923363Y-74269241D01*
X48766320Y-74504273D01*
X48658147Y-74765426D01*
X48603000Y-75042665D01*
X48603000Y-75325335D01*
X48658147Y-75602574D01*
X48766320Y-75863727D01*
X48923363Y-76098759D01*
X49123241Y-76298637D01*
X49355759Y-76454000D01*
X49123241Y-76609363D01*
X48923363Y-76809241D01*
X48766320Y-77044273D01*
X48658147Y-77305426D01*
X48603000Y-77582665D01*
X48603000Y-77865335D01*
X48658147Y-78142574D01*
X48766320Y-78403727D01*
X48923363Y-78638759D01*
X49123241Y-78838637D01*
X49355759Y-78994000D01*
X49123241Y-79149363D01*
X48923363Y-79349241D01*
X48766320Y-79584273D01*
X48658147Y-79845426D01*
X48603000Y-80122665D01*
X48603000Y-80405335D01*
X48658147Y-80682574D01*
X48766320Y-80943727D01*
X48923363Y-81178759D01*
X49123241Y-81378637D01*
X49355759Y-81534000D01*
X49123241Y-81689363D01*
X48923363Y-81889241D01*
X48766320Y-82124273D01*
X48658147Y-82385426D01*
X48603000Y-82662665D01*
X48603000Y-82945335D01*
X48658147Y-83222574D01*
X48766320Y-83483727D01*
X48923363Y-83718759D01*
X49123241Y-83918637D01*
X49358273Y-84075680D01*
X49368865Y-84080067D01*
X49182869Y-84191615D01*
X48974481Y-84380586D01*
X48806963Y-84606580D01*
X48686754Y-84860913D01*
X48646096Y-84994961D01*
X48768085Y-85217000D01*
X49911000Y-85217000D01*
X49911000Y-85197000D01*
X50165000Y-85197000D01*
X50165000Y-85217000D01*
X51307915Y-85217000D01*
X51315790Y-85202665D01*
X56223000Y-85202665D01*
X56223000Y-85485335D01*
X56278147Y-85762574D01*
X56386320Y-86023727D01*
X56543363Y-86258759D01*
X56743241Y-86458637D01*
X56975759Y-86614000D01*
X56743241Y-86769363D01*
X56543363Y-86969241D01*
X56386320Y-87204273D01*
X56278147Y-87465426D01*
X56223000Y-87742665D01*
X56223000Y-88025335D01*
X56278147Y-88302574D01*
X56386320Y-88563727D01*
X56543363Y-88798759D01*
X56743241Y-88998637D01*
X56975759Y-89154000D01*
X56743241Y-89309363D01*
X56543363Y-89509241D01*
X56386320Y-89744273D01*
X56278147Y-90005426D01*
X56223000Y-90282665D01*
X56223000Y-90565335D01*
X56278147Y-90842574D01*
X56386320Y-91103727D01*
X56543363Y-91338759D01*
X56743241Y-91538637D01*
X56975759Y-91694000D01*
X56743241Y-91849363D01*
X56543363Y-92049241D01*
X56386320Y-92284273D01*
X56278147Y-92545426D01*
X56223000Y-92822665D01*
X56223000Y-93105335D01*
X56278147Y-93382574D01*
X56386320Y-93643727D01*
X56543363Y-93878759D01*
X56743241Y-94078637D01*
X56975759Y-94234000D01*
X56743241Y-94389363D01*
X56543363Y-94589241D01*
X56386320Y-94824273D01*
X56278147Y-95085426D01*
X56223000Y-95362665D01*
X56223000Y-95645335D01*
X56278147Y-95922574D01*
X56386320Y-96183727D01*
X56543363Y-96418759D01*
X56743241Y-96618637D01*
X56975759Y-96774000D01*
X56743241Y-96929363D01*
X56543363Y-97129241D01*
X56386320Y-97364273D01*
X56278147Y-97625426D01*
X56223000Y-97902665D01*
X56223000Y-98185335D01*
X56278147Y-98462574D01*
X56386320Y-98723727D01*
X56543363Y-98958759D01*
X56743241Y-99158637D01*
X56975759Y-99314000D01*
X56743241Y-99469363D01*
X56543363Y-99669241D01*
X56386320Y-99904273D01*
X56278147Y-100165426D01*
X56223000Y-100442665D01*
X56223000Y-100725335D01*
X56278147Y-101002574D01*
X56386320Y-101263727D01*
X56543363Y-101498759D01*
X56743241Y-101698637D01*
X56978273Y-101855680D01*
X57239426Y-101963853D01*
X57516665Y-102019000D01*
X57799335Y-102019000D01*
X58076574Y-101963853D01*
X58337727Y-101855680D01*
X58572759Y-101698637D01*
X58772637Y-101498759D01*
X58929680Y-101263727D01*
X59037853Y-101002574D01*
X59093000Y-100725335D01*
X59093000Y-100442665D01*
X59037853Y-100165426D01*
X58929680Y-99904273D01*
X58772637Y-99669241D01*
X58572759Y-99469363D01*
X58340241Y-99314000D01*
X58572759Y-99158637D01*
X58772637Y-98958759D01*
X58929680Y-98723727D01*
X59037853Y-98462574D01*
X59093000Y-98185335D01*
X59093000Y-98013801D01*
X59380200Y-98301002D01*
X59403999Y-98330001D01*
X59519724Y-98424974D01*
X59651753Y-98495546D01*
X59795014Y-98539003D01*
X59855864Y-98544996D01*
X59982480Y-98671612D01*
X60168376Y-98795824D01*
X60374933Y-98881383D01*
X60594212Y-98925000D01*
X60817788Y-98925000D01*
X61037067Y-98881383D01*
X61243624Y-98795824D01*
X61429520Y-98671612D01*
X61587612Y-98513520D01*
X61711824Y-98327624D01*
X61797383Y-98121067D01*
X61841000Y-97901788D01*
X61841000Y-97678212D01*
X61797383Y-97458933D01*
X61711824Y-97252376D01*
X61587612Y-97066480D01*
X61429520Y-96908388D01*
X61243624Y-96784176D01*
X61037067Y-96698617D01*
X60817788Y-96655000D01*
X60594212Y-96655000D01*
X60374933Y-96698617D01*
X60196000Y-96772734D01*
X60196000Y-94779325D01*
X60199676Y-94742000D01*
X60196000Y-94704675D01*
X60196000Y-94704667D01*
X60185003Y-94593014D01*
X60141546Y-94449753D01*
X60070974Y-94317724D01*
X59976001Y-94201999D01*
X59947004Y-94178202D01*
X59056688Y-93287886D01*
X59093000Y-93105335D01*
X59093000Y-92822665D01*
X59037853Y-92545426D01*
X58929680Y-92284273D01*
X58772637Y-92049241D01*
X58572759Y-91849363D01*
X58340241Y-91694000D01*
X58572759Y-91538637D01*
X58772637Y-91338759D01*
X58929680Y-91103727D01*
X59037853Y-90842574D01*
X59093000Y-90565335D01*
X59093000Y-90282665D01*
X59037853Y-90005426D01*
X58929680Y-89744273D01*
X58772637Y-89509241D01*
X58572759Y-89309363D01*
X58340241Y-89154000D01*
X58572759Y-88998637D01*
X58772637Y-88798759D01*
X58929680Y-88563727D01*
X59037853Y-88302574D01*
X59093000Y-88025335D01*
X59093000Y-87742665D01*
X59037853Y-87465426D01*
X58929680Y-87204273D01*
X58772637Y-86969241D01*
X58572759Y-86769363D01*
X58340241Y-86614000D01*
X58572759Y-86458637D01*
X58772637Y-86258759D01*
X58929680Y-86023727D01*
X59037853Y-85762574D01*
X59070589Y-85598000D01*
X66334718Y-85598000D01*
X66363776Y-85893032D01*
X66449834Y-86176725D01*
X66589583Y-86438179D01*
X66777655Y-86667345D01*
X67006821Y-86855417D01*
X67268275Y-86995166D01*
X67551968Y-87081224D01*
X67773064Y-87103000D01*
X68370936Y-87103000D01*
X68592032Y-87081224D01*
X68875725Y-86995166D01*
X69137179Y-86855417D01*
X69366345Y-86667345D01*
X69554417Y-86438179D01*
X69694166Y-86176725D01*
X69780224Y-85893032D01*
X69809282Y-85598000D01*
X69780224Y-85302968D01*
X69694166Y-85019275D01*
X69554417Y-84757821D01*
X69366345Y-84528655D01*
X69300886Y-84474934D01*
X69410387Y-84416405D01*
X69544962Y-84305962D01*
X69655405Y-84171387D01*
X69737472Y-84017851D01*
X69788008Y-83851255D01*
X69805072Y-83678001D01*
X69805072Y-82437999D01*
X69788008Y-82264745D01*
X69737472Y-82098149D01*
X69655405Y-81944613D01*
X69544962Y-81810038D01*
X69410387Y-81699595D01*
X69256851Y-81617528D01*
X69090255Y-81566992D01*
X68917001Y-81549928D01*
X67226999Y-81549928D01*
X67053745Y-81566992D01*
X66887149Y-81617528D01*
X66733613Y-81699595D01*
X66599038Y-81810038D01*
X66488595Y-81944613D01*
X66406528Y-82098149D01*
X66355992Y-82264745D01*
X66338928Y-82437999D01*
X66338928Y-83678001D01*
X66355992Y-83851255D01*
X66406528Y-84017851D01*
X66488595Y-84171387D01*
X66599038Y-84305962D01*
X66733613Y-84416405D01*
X66843114Y-84474934D01*
X66777655Y-84528655D01*
X66589583Y-84757821D01*
X66449834Y-85019275D01*
X66363776Y-85302968D01*
X66334718Y-85598000D01*
X59070589Y-85598000D01*
X59093000Y-85485335D01*
X59093000Y-85202665D01*
X59037853Y-84925426D01*
X58929680Y-84664273D01*
X58772637Y-84429241D01*
X58572759Y-84229363D01*
X58337727Y-84072320D01*
X58327135Y-84067933D01*
X58513131Y-83956385D01*
X58721519Y-83767414D01*
X58889037Y-83541420D01*
X59009246Y-83287087D01*
X59049904Y-83153039D01*
X58927915Y-82931000D01*
X57785000Y-82931000D01*
X57785000Y-82951000D01*
X57531000Y-82951000D01*
X57531000Y-82931000D01*
X56388085Y-82931000D01*
X56266096Y-83153039D01*
X56306754Y-83287087D01*
X56426963Y-83541420D01*
X56594481Y-83767414D01*
X56802869Y-83956385D01*
X56988865Y-84067933D01*
X56978273Y-84072320D01*
X56743241Y-84229363D01*
X56543363Y-84429241D01*
X56386320Y-84664273D01*
X56278147Y-84925426D01*
X56223000Y-85202665D01*
X51315790Y-85202665D01*
X51429904Y-84994961D01*
X51389246Y-84860913D01*
X51269037Y-84606580D01*
X51101519Y-84380586D01*
X50893131Y-84191615D01*
X50707135Y-84080067D01*
X50717727Y-84075680D01*
X50952759Y-83918637D01*
X51152637Y-83718759D01*
X51309680Y-83483727D01*
X51417853Y-83222574D01*
X51473000Y-82945335D01*
X51473000Y-82662665D01*
X51417853Y-82385426D01*
X51309680Y-82124273D01*
X51152637Y-81889241D01*
X50952759Y-81689363D01*
X50720241Y-81534000D01*
X50952759Y-81378637D01*
X51152637Y-81178759D01*
X51309680Y-80943727D01*
X51417853Y-80682574D01*
X51473000Y-80405335D01*
X51473000Y-80122665D01*
X51417853Y-79845426D01*
X51309680Y-79584273D01*
X51152637Y-79349241D01*
X50952759Y-79149363D01*
X50720241Y-78994000D01*
X50952759Y-78838637D01*
X51152637Y-78638759D01*
X51309680Y-78403727D01*
X51417853Y-78142574D01*
X51473000Y-77865335D01*
X51473000Y-77582665D01*
X51417853Y-77305426D01*
X51309680Y-77044273D01*
X51152637Y-76809241D01*
X50952759Y-76609363D01*
X50720241Y-76454000D01*
X50952759Y-76298637D01*
X51152637Y-76098759D01*
X51309680Y-75863727D01*
X51417853Y-75602574D01*
X51473000Y-75325335D01*
X51473000Y-75042665D01*
X51417853Y-74765426D01*
X51309680Y-74504273D01*
X51152637Y-74269241D01*
X50952759Y-74069363D01*
X50720241Y-73914000D01*
X50952759Y-73758637D01*
X51152637Y-73558759D01*
X51309680Y-73323727D01*
X51417853Y-73062574D01*
X51473000Y-72785335D01*
X51473000Y-72502665D01*
X51417853Y-72225426D01*
X51309680Y-71964273D01*
X51152637Y-71729241D01*
X50952759Y-71529363D01*
X50720241Y-71374000D01*
X50952759Y-71218637D01*
X51152637Y-71018759D01*
X51309680Y-70783727D01*
X51417853Y-70522574D01*
X51473000Y-70245335D01*
X51473000Y-69962665D01*
X51417853Y-69685426D01*
X51309680Y-69424273D01*
X51152637Y-69189241D01*
X50954039Y-68990643D01*
X50962482Y-68989812D01*
X51082180Y-68953502D01*
X51192494Y-68894537D01*
X51289185Y-68815185D01*
X51368537Y-68718494D01*
X51427502Y-68608180D01*
X51463812Y-68488482D01*
X51476072Y-68364000D01*
X51476072Y-67422665D01*
X56223000Y-67422665D01*
X56223000Y-67705335D01*
X56278147Y-67982574D01*
X56386320Y-68243727D01*
X56543363Y-68478759D01*
X56743241Y-68678637D01*
X56975759Y-68834000D01*
X56743241Y-68989363D01*
X56543363Y-69189241D01*
X56386320Y-69424273D01*
X56278147Y-69685426D01*
X56223000Y-69962665D01*
X56223000Y-70245335D01*
X56278147Y-70522574D01*
X56386320Y-70783727D01*
X56543363Y-71018759D01*
X56743241Y-71218637D01*
X56975759Y-71374000D01*
X56743241Y-71529363D01*
X56543363Y-71729241D01*
X56386320Y-71964273D01*
X56278147Y-72225426D01*
X56223000Y-72502665D01*
X56223000Y-72785335D01*
X56278147Y-73062574D01*
X56386320Y-73323727D01*
X56543363Y-73558759D01*
X56743241Y-73758637D01*
X56975759Y-73914000D01*
X56743241Y-74069363D01*
X56543363Y-74269241D01*
X56386320Y-74504273D01*
X56278147Y-74765426D01*
X56223000Y-75042665D01*
X56223000Y-75325335D01*
X56278147Y-75602574D01*
X56386320Y-75863727D01*
X56543363Y-76098759D01*
X56743241Y-76298637D01*
X56975759Y-76454000D01*
X56743241Y-76609363D01*
X56543363Y-76809241D01*
X56386320Y-77044273D01*
X56278147Y-77305426D01*
X56223000Y-77582665D01*
X56223000Y-77865335D01*
X56278147Y-78142574D01*
X56386320Y-78403727D01*
X56543363Y-78638759D01*
X56743241Y-78838637D01*
X56975759Y-78994000D01*
X56743241Y-79149363D01*
X56543363Y-79349241D01*
X56386320Y-79584273D01*
X56278147Y-79845426D01*
X56223000Y-80122665D01*
X56223000Y-80405335D01*
X56278147Y-80682574D01*
X56386320Y-80943727D01*
X56543363Y-81178759D01*
X56743241Y-81378637D01*
X56978273Y-81535680D01*
X56988865Y-81540067D01*
X56802869Y-81651615D01*
X56594481Y-81840586D01*
X56426963Y-82066580D01*
X56306754Y-82320913D01*
X56266096Y-82454961D01*
X56388085Y-82677000D01*
X57531000Y-82677000D01*
X57531000Y-82657000D01*
X57785000Y-82657000D01*
X57785000Y-82677000D01*
X58927915Y-82677000D01*
X59049904Y-82454961D01*
X59009246Y-82320913D01*
X58889037Y-82066580D01*
X58721519Y-81840586D01*
X58513131Y-81651615D01*
X58327135Y-81540067D01*
X58337727Y-81535680D01*
X58572759Y-81378637D01*
X58772637Y-81178759D01*
X58929680Y-80943727D01*
X59037853Y-80682574D01*
X59093000Y-80405335D01*
X59093000Y-80122665D01*
X59037853Y-79845426D01*
X58929680Y-79584273D01*
X58772637Y-79349241D01*
X58572759Y-79149363D01*
X58340241Y-78994000D01*
X58572759Y-78838637D01*
X58772637Y-78638759D01*
X58874707Y-78486000D01*
X66334718Y-78486000D01*
X66363776Y-78781032D01*
X66449834Y-79064725D01*
X66589583Y-79326179D01*
X66777655Y-79555345D01*
X67006821Y-79743417D01*
X67268275Y-79883166D01*
X67551968Y-79969224D01*
X67773064Y-79991000D01*
X68370936Y-79991000D01*
X68592032Y-79969224D01*
X68875725Y-79883166D01*
X69137179Y-79743417D01*
X69366345Y-79555345D01*
X69554417Y-79326179D01*
X69694166Y-79064725D01*
X69780224Y-78781032D01*
X69809282Y-78486000D01*
X69780224Y-78190968D01*
X69694166Y-77907275D01*
X69554417Y-77645821D01*
X69366345Y-77416655D01*
X69300886Y-77362934D01*
X69410387Y-77304405D01*
X69544962Y-77193962D01*
X69655405Y-77059387D01*
X69737472Y-76905851D01*
X69788008Y-76739255D01*
X69805072Y-76566001D01*
X69805072Y-75325999D01*
X69788008Y-75152745D01*
X69737472Y-74986149D01*
X69655405Y-74832613D01*
X69544962Y-74698038D01*
X69410387Y-74587595D01*
X69256851Y-74505528D01*
X69090255Y-74454992D01*
X68917001Y-74437928D01*
X67226999Y-74437928D01*
X67053745Y-74454992D01*
X66887149Y-74505528D01*
X66733613Y-74587595D01*
X66599038Y-74698038D01*
X66488595Y-74832613D01*
X66406528Y-74986149D01*
X66355992Y-75152745D01*
X66338928Y-75325999D01*
X66338928Y-76566001D01*
X66355992Y-76739255D01*
X66406528Y-76905851D01*
X66488595Y-77059387D01*
X66599038Y-77193962D01*
X66733613Y-77304405D01*
X66843114Y-77362934D01*
X66777655Y-77416655D01*
X66589583Y-77645821D01*
X66449834Y-77907275D01*
X66363776Y-78190968D01*
X66334718Y-78486000D01*
X58874707Y-78486000D01*
X58929680Y-78403727D01*
X59037853Y-78142574D01*
X59093000Y-77865335D01*
X59093000Y-77582665D01*
X59037853Y-77305426D01*
X58929680Y-77044273D01*
X58772637Y-76809241D01*
X58572759Y-76609363D01*
X58340241Y-76454000D01*
X58572759Y-76298637D01*
X58772637Y-76098759D01*
X58929680Y-75863727D01*
X59037853Y-75602574D01*
X59093000Y-75325335D01*
X59093000Y-75042665D01*
X59037853Y-74765426D01*
X59000812Y-74676000D01*
X60585388Y-74676000D01*
X60607785Y-74903400D01*
X60671093Y-75112098D01*
X60636498Y-75176820D01*
X60600188Y-75296518D01*
X60587928Y-75421000D01*
X60587928Y-76471000D01*
X60600188Y-76595482D01*
X60636498Y-76715180D01*
X60695463Y-76825494D01*
X60774815Y-76922185D01*
X60871506Y-77001537D01*
X60981820Y-77060502D01*
X61101518Y-77096812D01*
X61226000Y-77109072D01*
X62726000Y-77109072D01*
X62850482Y-77096812D01*
X62970180Y-77060502D01*
X63080494Y-77001537D01*
X63177185Y-76922185D01*
X63256537Y-76825494D01*
X63315502Y-76715180D01*
X63351812Y-76595482D01*
X63364072Y-76471000D01*
X63364072Y-75421000D01*
X63351812Y-75296518D01*
X63315502Y-75176820D01*
X63280907Y-75112098D01*
X63344215Y-74903400D01*
X63366612Y-74676000D01*
X63344215Y-74448600D01*
X63277885Y-74229940D01*
X63177071Y-74041331D01*
X63218275Y-73982882D01*
X63311272Y-73773337D01*
X63319964Y-73711810D01*
X63194163Y-73533000D01*
X62429109Y-73533000D01*
X62428400Y-73532785D01*
X62257979Y-73516000D01*
X61694021Y-73516000D01*
X61523600Y-73532785D01*
X61522891Y-73533000D01*
X60757837Y-73533000D01*
X60632036Y-73711810D01*
X60640728Y-73773337D01*
X60733725Y-73982882D01*
X60774929Y-74041331D01*
X60674115Y-74229940D01*
X60607785Y-74448600D01*
X60585388Y-74676000D01*
X59000812Y-74676000D01*
X58929680Y-74504273D01*
X58772637Y-74269241D01*
X58572759Y-74069363D01*
X58340241Y-73914000D01*
X58572759Y-73758637D01*
X58772637Y-73558759D01*
X58929680Y-73323727D01*
X59022271Y-73100190D01*
X60632036Y-73100190D01*
X60757837Y-73279000D01*
X61849000Y-73279000D01*
X61849000Y-72399402D01*
X62103000Y-72399402D01*
X62103000Y-73279000D01*
X63194163Y-73279000D01*
X63319964Y-73100190D01*
X63311272Y-73038663D01*
X63218275Y-72829118D01*
X63086184Y-72641742D01*
X62920076Y-72483736D01*
X62726334Y-72361172D01*
X62512404Y-72278761D01*
X62286507Y-72239669D01*
X62103000Y-72399402D01*
X61849000Y-72399402D01*
X61665493Y-72239669D01*
X61439596Y-72278761D01*
X61225666Y-72361172D01*
X61031924Y-72483736D01*
X60865816Y-72641742D01*
X60733725Y-72829118D01*
X60640728Y-73038663D01*
X60632036Y-73100190D01*
X59022271Y-73100190D01*
X59037853Y-73062574D01*
X59093000Y-72785335D01*
X59093000Y-72502665D01*
X59037853Y-72225426D01*
X58929680Y-71964273D01*
X58775838Y-71734031D01*
X66385698Y-71734031D01*
X66402449Y-71821591D01*
X66517526Y-72094809D01*
X66683694Y-72340326D01*
X66894567Y-72548708D01*
X67142042Y-72711947D01*
X67416608Y-72823769D01*
X67707714Y-72879877D01*
X67945000Y-72724376D01*
X67945000Y-71501000D01*
X68199000Y-71501000D01*
X68199000Y-72724376D01*
X68436286Y-72879877D01*
X68727392Y-72823769D01*
X69001958Y-72711947D01*
X69249433Y-72548708D01*
X69460306Y-72340326D01*
X69626474Y-72094809D01*
X69741551Y-71821591D01*
X69758302Y-71734031D01*
X69637246Y-71501000D01*
X68199000Y-71501000D01*
X67945000Y-71501000D01*
X66506754Y-71501000D01*
X66385698Y-71734031D01*
X58775838Y-71734031D01*
X58772637Y-71729241D01*
X58572759Y-71529363D01*
X58340241Y-71374000D01*
X58572759Y-71218637D01*
X58772637Y-71018759D01*
X58929680Y-70783727D01*
X59037853Y-70522574D01*
X59093000Y-70245335D01*
X59093000Y-69962665D01*
X59037853Y-69685426D01*
X58929680Y-69424273D01*
X58772637Y-69189241D01*
X58572759Y-68989363D01*
X58340241Y-68834000D01*
X58572759Y-68678637D01*
X58772637Y-68478759D01*
X58929680Y-68243727D01*
X59037853Y-67982574D01*
X59093000Y-67705335D01*
X59093000Y-67422665D01*
X59037853Y-67145426D01*
X58929680Y-66884273D01*
X58772637Y-66649241D01*
X58572759Y-66449363D01*
X58340242Y-66294000D01*
X66334718Y-66294000D01*
X66363776Y-66589032D01*
X66449834Y-66872725D01*
X66589583Y-67134179D01*
X66777655Y-67363345D01*
X67006821Y-67551417D01*
X67030362Y-67564000D01*
X67006821Y-67576583D01*
X66777655Y-67764655D01*
X66589583Y-67993821D01*
X66449834Y-68255275D01*
X66363776Y-68538968D01*
X66334718Y-68834000D01*
X66363776Y-69129032D01*
X66449834Y-69412725D01*
X66589583Y-69674179D01*
X66777655Y-69903345D01*
X67006821Y-70091417D01*
X67035152Y-70106560D01*
X66894567Y-70199292D01*
X66683694Y-70407674D01*
X66517526Y-70653191D01*
X66402449Y-70926409D01*
X66385698Y-71013969D01*
X66506754Y-71247000D01*
X67945000Y-71247000D01*
X67945000Y-71227000D01*
X68199000Y-71227000D01*
X68199000Y-71247000D01*
X69637246Y-71247000D01*
X69758302Y-71013969D01*
X69741551Y-70926409D01*
X69626474Y-70653191D01*
X69460306Y-70407674D01*
X69249433Y-70199292D01*
X69108848Y-70106560D01*
X69137179Y-70091417D01*
X69366345Y-69903345D01*
X69554417Y-69674179D01*
X69694166Y-69412725D01*
X69780224Y-69129032D01*
X69809282Y-68834000D01*
X69780224Y-68538968D01*
X69694166Y-68255275D01*
X69554417Y-67993821D01*
X69366345Y-67764655D01*
X69137179Y-67576583D01*
X69113638Y-67564000D01*
X69137179Y-67551417D01*
X69366345Y-67363345D01*
X69554417Y-67134179D01*
X69694166Y-66872725D01*
X69780224Y-66589032D01*
X69809282Y-66294000D01*
X69780224Y-65998968D01*
X69694166Y-65715275D01*
X69554417Y-65453821D01*
X69366345Y-65224655D01*
X69300886Y-65170934D01*
X69410387Y-65112405D01*
X69544962Y-65001962D01*
X69655405Y-64867387D01*
X69737472Y-64713851D01*
X69788008Y-64547255D01*
X69805072Y-64374001D01*
X69805072Y-63133999D01*
X69788008Y-62960745D01*
X69737472Y-62794149D01*
X69655405Y-62640613D01*
X69544962Y-62506038D01*
X69410387Y-62395595D01*
X69256851Y-62313528D01*
X69090255Y-62262992D01*
X68917001Y-62245928D01*
X67226999Y-62245928D01*
X67053745Y-62262992D01*
X66887149Y-62313528D01*
X66733613Y-62395595D01*
X66599038Y-62506038D01*
X66488595Y-62640613D01*
X66406528Y-62794149D01*
X66355992Y-62960745D01*
X66338928Y-63133999D01*
X66338928Y-64374001D01*
X66355992Y-64547255D01*
X66406528Y-64713851D01*
X66488595Y-64867387D01*
X66599038Y-65001962D01*
X66733613Y-65112405D01*
X66843114Y-65170934D01*
X66777655Y-65224655D01*
X66589583Y-65453821D01*
X66449834Y-65715275D01*
X66363776Y-65998968D01*
X66334718Y-66294000D01*
X58340242Y-66294000D01*
X58337727Y-66292320D01*
X58076574Y-66184147D01*
X57799335Y-66129000D01*
X57516665Y-66129000D01*
X57239426Y-66184147D01*
X56978273Y-66292320D01*
X56743241Y-66449363D01*
X56543363Y-66649241D01*
X56386320Y-66884273D01*
X56278147Y-67145426D01*
X56223000Y-67422665D01*
X51476072Y-67422665D01*
X51476072Y-66764000D01*
X51463812Y-66639518D01*
X51427502Y-66519820D01*
X51368537Y-66409506D01*
X51289185Y-66312815D01*
X51192494Y-66233463D01*
X51082180Y-66174498D01*
X50962482Y-66138188D01*
X50838000Y-66125928D01*
X49238000Y-66125928D01*
X49113518Y-66138188D01*
X48993820Y-66174498D01*
X48883506Y-66233463D01*
X48786815Y-66312815D01*
X48707463Y-66409506D01*
X48648498Y-66519820D01*
X48612188Y-66639518D01*
X48599928Y-66764000D01*
X35393481Y-66764000D01*
X35347246Y-66675000D01*
X33909000Y-66675000D01*
X33909000Y-66695000D01*
X33655000Y-66695000D01*
X33655000Y-66675000D01*
X32216754Y-66675000D01*
X32095698Y-66908031D01*
X32112449Y-66995591D01*
X32227526Y-67268809D01*
X32393694Y-67514326D01*
X32604567Y-67722708D01*
X32745152Y-67815440D01*
X32716821Y-67830583D01*
X32487655Y-68018655D01*
X32299583Y-68247821D01*
X32159834Y-68509275D01*
X32073776Y-68792968D01*
X32044718Y-69088000D01*
X29362000Y-69088000D01*
X29362000Y-66187969D01*
X32095698Y-66187969D01*
X32216754Y-66421000D01*
X33655000Y-66421000D01*
X33655000Y-65197624D01*
X33909000Y-65197624D01*
X33909000Y-66421000D01*
X35347246Y-66421000D01*
X35468302Y-66187969D01*
X35451551Y-66100409D01*
X35336474Y-65827191D01*
X35170306Y-65581674D01*
X34959433Y-65373292D01*
X34711958Y-65210053D01*
X34437392Y-65098231D01*
X34146286Y-65042123D01*
X33909000Y-65197624D01*
X33655000Y-65197624D01*
X33417714Y-65042123D01*
X33126608Y-65098231D01*
X32852042Y-65210053D01*
X32604567Y-65373292D01*
X32393694Y-65581674D01*
X32227526Y-65827191D01*
X32112449Y-66100409D01*
X32095698Y-66187969D01*
X29362000Y-66187969D01*
X29362000Y-56144729D01*
X29544705Y-56585818D01*
X29942511Y-57181177D01*
X30448823Y-57687489D01*
X31044182Y-58085295D01*
X31705710Y-58359309D01*
X32407984Y-58499000D01*
X33124016Y-58499000D01*
X33826290Y-58359309D01*
X34487818Y-58085295D01*
X35083177Y-57687489D01*
X35589489Y-57181177D01*
X35987295Y-56585818D01*
X36208824Y-56050999D01*
X37099928Y-56050999D01*
X37099928Y-57741001D01*
X37116992Y-57914255D01*
X37167528Y-58080851D01*
X37249595Y-58234387D01*
X37360038Y-58368962D01*
X37494613Y-58479405D01*
X37648149Y-58561472D01*
X37814745Y-58612008D01*
X37987999Y-58629072D01*
X39228001Y-58629072D01*
X39401255Y-58612008D01*
X39567851Y-58561472D01*
X39721387Y-58479405D01*
X39855962Y-58368962D01*
X39966405Y-58234387D01*
X40024655Y-58125410D01*
X40181674Y-58284306D01*
X40427191Y-58450474D01*
X40700409Y-58565551D01*
X40787969Y-58582302D01*
X41021000Y-58461246D01*
X41021000Y-57023000D01*
X41275000Y-57023000D01*
X41275000Y-58461246D01*
X41508031Y-58582302D01*
X41595591Y-58565551D01*
X41868809Y-58450474D01*
X42114326Y-58284306D01*
X42322708Y-58073433D01*
X42485947Y-57825958D01*
X42597769Y-57551392D01*
X42653877Y-57260286D01*
X42498376Y-57023000D01*
X41275000Y-57023000D01*
X41021000Y-57023000D01*
X41001000Y-57023000D01*
X41001000Y-56769000D01*
X41021000Y-56769000D01*
X41021000Y-55330754D01*
X41275000Y-55330754D01*
X41275000Y-56769000D01*
X42498376Y-56769000D01*
X42653877Y-56531714D01*
X42597769Y-56240608D01*
X42520548Y-56050999D01*
X46116928Y-56050999D01*
X46116928Y-57741001D01*
X46133992Y-57914255D01*
X46184528Y-58080851D01*
X46266595Y-58234387D01*
X46377038Y-58368962D01*
X46511613Y-58479405D01*
X46665149Y-58561472D01*
X46831745Y-58612008D01*
X47004999Y-58629072D01*
X48245001Y-58629072D01*
X48418255Y-58612008D01*
X48584851Y-58561472D01*
X48738387Y-58479405D01*
X48872962Y-58368962D01*
X48983405Y-58234387D01*
X49041655Y-58125410D01*
X49198674Y-58284306D01*
X49444191Y-58450474D01*
X49717409Y-58565551D01*
X49804969Y-58582302D01*
X50038000Y-58461246D01*
X50038000Y-57023000D01*
X50292000Y-57023000D01*
X50292000Y-58461246D01*
X50525031Y-58582302D01*
X50612591Y-58565551D01*
X50885809Y-58450474D01*
X51131326Y-58284306D01*
X51339708Y-58073433D01*
X51502947Y-57825958D01*
X51614769Y-57551392D01*
X51670877Y-57260286D01*
X51515376Y-57023000D01*
X50292000Y-57023000D01*
X50038000Y-57023000D01*
X50018000Y-57023000D01*
X50018000Y-56769000D01*
X50038000Y-56769000D01*
X50038000Y-55330754D01*
X50292000Y-55330754D01*
X50292000Y-56769000D01*
X51515376Y-56769000D01*
X51670877Y-56531714D01*
X51614769Y-56240608D01*
X51537548Y-56050999D01*
X55133928Y-56050999D01*
X55133928Y-57741001D01*
X55150992Y-57914255D01*
X55201528Y-58080851D01*
X55283595Y-58234387D01*
X55394038Y-58368962D01*
X55528613Y-58479405D01*
X55682149Y-58561472D01*
X55848745Y-58612008D01*
X56021999Y-58629072D01*
X57262001Y-58629072D01*
X57435255Y-58612008D01*
X57601851Y-58561472D01*
X57755387Y-58479405D01*
X57889962Y-58368962D01*
X58000405Y-58234387D01*
X58058655Y-58125410D01*
X58215674Y-58284306D01*
X58461191Y-58450474D01*
X58734409Y-58565551D01*
X58821969Y-58582302D01*
X59055000Y-58461246D01*
X59055000Y-57023000D01*
X59309000Y-57023000D01*
X59309000Y-58461246D01*
X59542031Y-58582302D01*
X59629591Y-58565551D01*
X59902809Y-58450474D01*
X60148326Y-58284306D01*
X60356708Y-58073433D01*
X60519947Y-57825958D01*
X60631769Y-57551392D01*
X60687877Y-57260286D01*
X60532376Y-57023000D01*
X59309000Y-57023000D01*
X59055000Y-57023000D01*
X59035000Y-57023000D01*
X59035000Y-56769000D01*
X59055000Y-56769000D01*
X59055000Y-55330754D01*
X59309000Y-55330754D01*
X59309000Y-56769000D01*
X60532376Y-56769000D01*
X60687877Y-56531714D01*
X60631769Y-56240608D01*
X60519947Y-55966042D01*
X60356708Y-55718567D01*
X60148326Y-55507694D01*
X59902809Y-55341526D01*
X59629591Y-55226449D01*
X59542031Y-55209698D01*
X59309000Y-55330754D01*
X59055000Y-55330754D01*
X58821969Y-55209698D01*
X58734409Y-55226449D01*
X58461191Y-55341526D01*
X58215674Y-55507694D01*
X58058655Y-55666590D01*
X58000405Y-55557613D01*
X57889962Y-55423038D01*
X57755387Y-55312595D01*
X57601851Y-55230528D01*
X57435255Y-55179992D01*
X57262001Y-55162928D01*
X56021999Y-55162928D01*
X55848745Y-55179992D01*
X55682149Y-55230528D01*
X55528613Y-55312595D01*
X55394038Y-55423038D01*
X55283595Y-55557613D01*
X55201528Y-55711149D01*
X55150992Y-55877745D01*
X55133928Y-56050999D01*
X51537548Y-56050999D01*
X51502947Y-55966042D01*
X51339708Y-55718567D01*
X51131326Y-55507694D01*
X50885809Y-55341526D01*
X50612591Y-55226449D01*
X50525031Y-55209698D01*
X50292000Y-55330754D01*
X50038000Y-55330754D01*
X49804969Y-55209698D01*
X49717409Y-55226449D01*
X49444191Y-55341526D01*
X49198674Y-55507694D01*
X49041655Y-55666590D01*
X48983405Y-55557613D01*
X48872962Y-55423038D01*
X48738387Y-55312595D01*
X48584851Y-55230528D01*
X48418255Y-55179992D01*
X48245001Y-55162928D01*
X47004999Y-55162928D01*
X46831745Y-55179992D01*
X46665149Y-55230528D01*
X46511613Y-55312595D01*
X46377038Y-55423038D01*
X46266595Y-55557613D01*
X46184528Y-55711149D01*
X46133992Y-55877745D01*
X46116928Y-56050999D01*
X42520548Y-56050999D01*
X42485947Y-55966042D01*
X42322708Y-55718567D01*
X42114326Y-55507694D01*
X41868809Y-55341526D01*
X41595591Y-55226449D01*
X41508031Y-55209698D01*
X41275000Y-55330754D01*
X41021000Y-55330754D01*
X40787969Y-55209698D01*
X40700409Y-55226449D01*
X40427191Y-55341526D01*
X40181674Y-55507694D01*
X40024655Y-55666590D01*
X39966405Y-55557613D01*
X39855962Y-55423038D01*
X39721387Y-55312595D01*
X39567851Y-55230528D01*
X39401255Y-55179992D01*
X39228001Y-55162928D01*
X37987999Y-55162928D01*
X37814745Y-55179992D01*
X37648149Y-55230528D01*
X37494613Y-55312595D01*
X37360038Y-55423038D01*
X37249595Y-55557613D01*
X37167528Y-55711149D01*
X37116992Y-55877745D01*
X37099928Y-56050999D01*
X36208824Y-56050999D01*
X36261309Y-55924290D01*
X36401000Y-55222016D01*
X36401000Y-54505984D01*
X36261309Y-53803710D01*
X35987295Y-53142182D01*
X35589489Y-52546823D01*
X35083177Y-52040511D01*
X34594519Y-51714000D01*
X67041481Y-51714000D01*
X66552823Y-52040511D01*
G37*
X66552823Y-52040511D02*
X66046511Y-52546823D01*
X65648705Y-53142182D01*
X65374691Y-53803710D01*
X65235000Y-54505984D01*
X65235000Y-55222016D01*
X65374691Y-55924290D01*
X65648705Y-56585818D01*
X66046511Y-57181177D01*
X66552823Y-57687489D01*
X67148182Y-58085295D01*
X67809710Y-58359309D01*
X68511984Y-58499000D01*
X69228016Y-58499000D01*
X69930290Y-58359309D01*
X70591818Y-58085295D01*
X71187177Y-57687489D01*
X71693489Y-57181177D01*
X72091295Y-56585818D01*
X72238001Y-56231639D01*
X72238000Y-100573271D01*
X72055295Y-100132182D01*
X71657489Y-99536823D01*
X71151177Y-99030511D01*
X70555818Y-98632705D01*
X69894290Y-98358691D01*
X69192016Y-98219000D01*
X68475984Y-98219000D01*
X67773710Y-98358691D01*
X67112182Y-98632705D01*
X66516823Y-99030511D01*
X66010511Y-99536823D01*
X65612705Y-100132182D01*
X65338691Y-100793710D01*
X65199000Y-101495984D01*
X65199000Y-102212016D01*
X65338691Y-102914290D01*
X65612705Y-103575818D01*
X66010511Y-104171177D01*
X66516823Y-104677489D01*
X67005481Y-105004000D01*
X34594519Y-105004000D01*
X35083177Y-104677489D01*
X35589489Y-104171177D01*
X35987295Y-103575818D01*
X36261309Y-102914290D01*
X36401000Y-102212016D01*
X36401000Y-101495984D01*
X36261309Y-100793710D01*
X35987295Y-100132182D01*
X35957774Y-100088000D01*
X40746928Y-100088000D01*
X40746928Y-101588000D01*
X40759188Y-101712482D01*
X40795498Y-101832180D01*
X40854463Y-101942494D01*
X40933815Y-102039185D01*
X41030506Y-102118537D01*
X41140820Y-102177502D01*
X41260518Y-102213812D01*
X41385000Y-102226072D01*
X42435000Y-102226072D01*
X42559482Y-102213812D01*
X42679180Y-102177502D01*
X42743902Y-102142907D01*
X42952601Y-102206215D01*
X43180000Y-102228612D01*
X43407400Y-102206215D01*
X43626060Y-102139885D01*
X43814669Y-102039071D01*
X43873118Y-102080275D01*
X44082663Y-102173272D01*
X44144190Y-102181964D01*
X44323000Y-102056163D01*
X44323000Y-101291108D01*
X44323215Y-101290399D01*
X44340000Y-101119978D01*
X44340000Y-100965000D01*
X44577000Y-100965000D01*
X44577000Y-102056163D01*
X44755810Y-102181964D01*
X44817337Y-102173272D01*
X45026882Y-102080275D01*
X45214258Y-101948184D01*
X45372264Y-101782076D01*
X45494828Y-101588334D01*
X45577239Y-101374404D01*
X45616331Y-101148507D01*
X45456598Y-100965000D01*
X44577000Y-100965000D01*
X44340000Y-100965000D01*
X44340000Y-100556021D01*
X44323215Y-100385600D01*
X44323000Y-100384891D01*
X44323000Y-99619837D01*
X44577000Y-99619837D01*
X44577000Y-100711000D01*
X45456598Y-100711000D01*
X45616331Y-100527493D01*
X45577239Y-100301596D01*
X45494828Y-100087666D01*
X45372264Y-99893924D01*
X45214258Y-99727816D01*
X45026882Y-99595725D01*
X44817337Y-99502728D01*
X44755810Y-99494036D01*
X44577000Y-99619837D01*
X44323000Y-99619837D01*
X44144190Y-99494036D01*
X44082663Y-99502728D01*
X43873118Y-99595725D01*
X43814669Y-99636929D01*
X43626059Y-99536115D01*
X43407399Y-99469785D01*
X43180000Y-99447388D01*
X42952600Y-99469785D01*
X42743902Y-99533093D01*
X42679180Y-99498498D01*
X42559482Y-99462188D01*
X42435000Y-99449928D01*
X41385000Y-99449928D01*
X41260518Y-99462188D01*
X41140820Y-99498498D01*
X41030506Y-99557463D01*
X40933815Y-99636815D01*
X40854463Y-99733506D01*
X40795498Y-99843820D01*
X40759188Y-99963518D01*
X40746928Y-100088000D01*
X35957774Y-100088000D01*
X35589489Y-99536823D01*
X35083177Y-99030511D01*
X34487818Y-98632705D01*
X33826290Y-98358691D01*
X33124016Y-98219000D01*
X32407984Y-98219000D01*
X31705710Y-98358691D01*
X31044182Y-98632705D01*
X30448823Y-99030511D01*
X29942511Y-99536823D01*
X29544705Y-100132182D01*
X29362000Y-100573271D01*
X29362000Y-92964000D01*
X32044718Y-92964000D01*
X32073776Y-93259032D01*
X32159834Y-93542725D01*
X32299583Y-93804179D01*
X32487655Y-94033345D01*
X32553114Y-94087066D01*
X32443613Y-94145595D01*
X32309038Y-94256038D01*
X32198595Y-94390613D01*
X32116528Y-94544149D01*
X32065992Y-94710745D01*
X32048928Y-94883999D01*
X32048928Y-96124001D01*
X32065992Y-96297255D01*
X32116528Y-96463851D01*
X32198595Y-96617387D01*
X32309038Y-96751962D01*
X32443613Y-96862405D01*
X32597149Y-96944472D01*
X32763745Y-96995008D01*
X32936999Y-97012072D01*
X34627001Y-97012072D01*
X34800255Y-96995008D01*
X34966851Y-96944472D01*
X35120387Y-96862405D01*
X35254962Y-96751962D01*
X35365405Y-96617387D01*
X35447472Y-96463851D01*
X35498008Y-96297255D01*
X35515072Y-96124001D01*
X35515072Y-94883999D01*
X35498008Y-94710745D01*
X35447472Y-94544149D01*
X35365405Y-94390613D01*
X35254962Y-94256038D01*
X35120387Y-94145595D01*
X35010886Y-94087066D01*
X35076345Y-94033345D01*
X35264417Y-93804179D01*
X35404166Y-93542725D01*
X35490224Y-93259032D01*
X35519282Y-92964000D01*
X35490224Y-92668968D01*
X35404166Y-92385275D01*
X35264417Y-92123821D01*
X35076345Y-91894655D01*
X34847179Y-91706583D01*
X34585725Y-91566834D01*
X34302032Y-91480776D01*
X34080936Y-91459000D01*
X33483064Y-91459000D01*
X33261968Y-91480776D01*
X32978275Y-91566834D01*
X32716821Y-91706583D01*
X32487655Y-91894655D01*
X32299583Y-92123821D01*
X32159834Y-92385275D01*
X32073776Y-92668968D01*
X32044718Y-92964000D01*
X29362000Y-92964000D01*
X29362000Y-87771999D01*
X32048928Y-87771999D01*
X32048928Y-89012001D01*
X32065992Y-89185255D01*
X32116528Y-89351851D01*
X32198595Y-89505387D01*
X32309038Y-89639962D01*
X32443613Y-89750405D01*
X32597149Y-89832472D01*
X32763745Y-89883008D01*
X32936999Y-89900072D01*
X34627001Y-89900072D01*
X34800255Y-89883008D01*
X34966851Y-89832472D01*
X35120387Y-89750405D01*
X35254962Y-89639962D01*
X35365405Y-89505387D01*
X35447472Y-89351851D01*
X35498008Y-89185255D01*
X35515072Y-89012001D01*
X35515072Y-87771999D01*
X35512183Y-87742665D01*
X48603000Y-87742665D01*
X48603000Y-88025335D01*
X48658147Y-88302574D01*
X48766320Y-88563727D01*
X48923363Y-88798759D01*
X49123241Y-88998637D01*
X49355759Y-89154000D01*
X49123241Y-89309363D01*
X48923363Y-89509241D01*
X48766320Y-89744273D01*
X48658147Y-90005426D01*
X48603000Y-90282665D01*
X48603000Y-90565335D01*
X48658147Y-90842574D01*
X48766320Y-91103727D01*
X48923363Y-91338759D01*
X49123241Y-91538637D01*
X49355759Y-91694000D01*
X49123241Y-91849363D01*
X48923363Y-92049241D01*
X48766320Y-92284273D01*
X48658147Y-92545426D01*
X48603000Y-92822665D01*
X48603000Y-93105335D01*
X48658147Y-93382574D01*
X48766320Y-93643727D01*
X48923363Y-93878759D01*
X49123241Y-94078637D01*
X49355759Y-94234000D01*
X49123241Y-94389363D01*
X48923363Y-94589241D01*
X48766320Y-94824273D01*
X48658147Y-95085426D01*
X48603000Y-95362665D01*
X48603000Y-95645335D01*
X48658147Y-95922574D01*
X48766320Y-96183727D01*
X48923363Y-96418759D01*
X49123241Y-96618637D01*
X49355759Y-96774000D01*
X49123241Y-96929363D01*
X48923363Y-97129241D01*
X48766320Y-97364273D01*
X48658147Y-97625426D01*
X48603000Y-97902665D01*
X48603000Y-98185335D01*
X48658147Y-98462574D01*
X48766320Y-98723727D01*
X48923363Y-98958759D01*
X49123241Y-99158637D01*
X49355759Y-99314000D01*
X49123241Y-99469363D01*
X48923363Y-99669241D01*
X48766320Y-99904273D01*
X48658147Y-100165426D01*
X48603000Y-100442665D01*
X48603000Y-100725335D01*
X48658147Y-101002574D01*
X48766320Y-101263727D01*
X48923363Y-101498759D01*
X49123241Y-101698637D01*
X49358273Y-101855680D01*
X49619426Y-101963853D01*
X49896665Y-102019000D01*
X50179335Y-102019000D01*
X50456574Y-101963853D01*
X50717727Y-101855680D01*
X50952759Y-101698637D01*
X51152637Y-101498759D01*
X51309680Y-101263727D01*
X51417853Y-101002574D01*
X51473000Y-100725335D01*
X51473000Y-100442665D01*
X51417853Y-100165426D01*
X51309680Y-99904273D01*
X51152637Y-99669241D01*
X50952759Y-99469363D01*
X50720241Y-99314000D01*
X50952759Y-99158637D01*
X51152637Y-98958759D01*
X51309680Y-98723727D01*
X51417853Y-98462574D01*
X51473000Y-98185335D01*
X51473000Y-97902665D01*
X51417853Y-97625426D01*
X51309680Y-97364273D01*
X51152637Y-97129241D01*
X50952759Y-96929363D01*
X50720241Y-96774000D01*
X50952759Y-96618637D01*
X51152637Y-96418759D01*
X51309680Y-96183727D01*
X51417853Y-95922574D01*
X51473000Y-95645335D01*
X51473000Y-95362665D01*
X51417853Y-95085426D01*
X51309680Y-94824273D01*
X51152637Y-94589241D01*
X50952759Y-94389363D01*
X50720241Y-94234000D01*
X50952759Y-94078637D01*
X51152637Y-93878759D01*
X51309680Y-93643727D01*
X51417853Y-93382574D01*
X51473000Y-93105335D01*
X51473000Y-92822665D01*
X51417853Y-92545426D01*
X51309680Y-92284273D01*
X51152637Y-92049241D01*
X50952759Y-91849363D01*
X50720241Y-91694000D01*
X50952759Y-91538637D01*
X51152637Y-91338759D01*
X51309680Y-91103727D01*
X51417853Y-90842574D01*
X51473000Y-90565335D01*
X51473000Y-90282665D01*
X51417853Y-90005426D01*
X51309680Y-89744273D01*
X51152637Y-89509241D01*
X50952759Y-89309363D01*
X50720241Y-89154000D01*
X50952759Y-88998637D01*
X51152637Y-88798759D01*
X51309680Y-88563727D01*
X51417853Y-88302574D01*
X51473000Y-88025335D01*
X51473000Y-87742665D01*
X51417853Y-87465426D01*
X51309680Y-87204273D01*
X51152637Y-86969241D01*
X50952759Y-86769363D01*
X50717727Y-86612320D01*
X50707135Y-86607933D01*
X50893131Y-86496385D01*
X51101519Y-86307414D01*
X51269037Y-86081420D01*
X51389246Y-85827087D01*
X51429904Y-85693039D01*
X51307915Y-85471000D01*
X50165000Y-85471000D01*
X50165000Y-85491000D01*
X49911000Y-85491000D01*
X49911000Y-85471000D01*
X48768085Y-85471000D01*
X48646096Y-85693039D01*
X48686754Y-85827087D01*
X48806963Y-86081420D01*
X48974481Y-86307414D01*
X49182869Y-86496385D01*
X49368865Y-86607933D01*
X49358273Y-86612320D01*
X49123241Y-86769363D01*
X48923363Y-86969241D01*
X48766320Y-87204273D01*
X48658147Y-87465426D01*
X48603000Y-87742665D01*
X35512183Y-87742665D01*
X35498008Y-87598745D01*
X35447472Y-87432149D01*
X35365405Y-87278613D01*
X35254962Y-87144038D01*
X35120387Y-87033595D01*
X35011410Y-86975345D01*
X35170306Y-86818326D01*
X35336474Y-86572809D01*
X35451551Y-86299591D01*
X35468302Y-86212031D01*
X35347246Y-85979000D01*
X33909000Y-85979000D01*
X33909000Y-85999000D01*
X33655000Y-85999000D01*
X33655000Y-85979000D01*
X32216754Y-85979000D01*
X32095698Y-86212031D01*
X32112449Y-86299591D01*
X32227526Y-86572809D01*
X32393694Y-86818326D01*
X32552590Y-86975345D01*
X32443613Y-87033595D01*
X32309038Y-87144038D01*
X32198595Y-87278613D01*
X32116528Y-87432149D01*
X32065992Y-87598745D01*
X32048928Y-87771999D01*
X29362000Y-87771999D01*
X29362000Y-85491969D01*
X32095698Y-85491969D01*
X32216754Y-85725000D01*
X33655000Y-85725000D01*
X33655000Y-84501624D01*
X33909000Y-84501624D01*
X33909000Y-85725000D01*
X35347246Y-85725000D01*
X35468302Y-85491969D01*
X35451551Y-85404409D01*
X35336474Y-85131191D01*
X35170306Y-84885674D01*
X34959433Y-84677292D01*
X34711958Y-84514053D01*
X34437392Y-84402231D01*
X34146286Y-84346123D01*
X33909000Y-84501624D01*
X33655000Y-84501624D01*
X33417714Y-84346123D01*
X33126608Y-84402231D01*
X32852042Y-84514053D01*
X32604567Y-84677292D01*
X32393694Y-84885674D01*
X32227526Y-85131191D01*
X32112449Y-85404409D01*
X32095698Y-85491969D01*
X29362000Y-85491969D01*
X29362000Y-80659999D01*
X32048928Y-80659999D01*
X32048928Y-81900001D01*
X32065992Y-82073255D01*
X32116528Y-82239851D01*
X32198595Y-82393387D01*
X32309038Y-82527962D01*
X32443613Y-82638405D01*
X32597149Y-82720472D01*
X32763745Y-82771008D01*
X32936999Y-82788072D01*
X34627001Y-82788072D01*
X34800255Y-82771008D01*
X34966851Y-82720472D01*
X35120387Y-82638405D01*
X35254962Y-82527962D01*
X35365405Y-82393387D01*
X35447472Y-82239851D01*
X35498008Y-82073255D01*
X35515072Y-81900001D01*
X35515072Y-80659999D01*
X35498008Y-80486745D01*
X35447472Y-80320149D01*
X35365405Y-80166613D01*
X35254962Y-80032038D01*
X35120387Y-79921595D01*
X35011410Y-79863345D01*
X35170306Y-79706326D01*
X35336474Y-79460809D01*
X35451551Y-79187591D01*
X35468302Y-79100031D01*
X35347246Y-78867000D01*
X33909000Y-78867000D01*
X33909000Y-78887000D01*
X33655000Y-78887000D01*
X33655000Y-78867000D01*
X32216754Y-78867000D01*
X32095698Y-79100031D01*
X32112449Y-79187591D01*
X32227526Y-79460809D01*
X32393694Y-79706326D01*
X32552590Y-79863345D01*
X32443613Y-79921595D01*
X32309038Y-80032038D01*
X32198595Y-80166613D01*
X32116528Y-80320149D01*
X32065992Y-80486745D01*
X32048928Y-80659999D01*
X29362000Y-80659999D01*
X29362000Y-78379969D01*
X32095698Y-78379969D01*
X32216754Y-78613000D01*
X33655000Y-78613000D01*
X33655000Y-77389624D01*
X33909000Y-77389624D01*
X33909000Y-78613000D01*
X35347246Y-78613000D01*
X35468302Y-78379969D01*
X35451551Y-78292409D01*
X35336474Y-78019191D01*
X35170306Y-77773674D01*
X34959433Y-77565292D01*
X34711958Y-77402053D01*
X34437392Y-77290231D01*
X34146286Y-77234123D01*
X33909000Y-77389624D01*
X33655000Y-77389624D01*
X33417714Y-77234123D01*
X33126608Y-77290231D01*
X32852042Y-77402053D01*
X32604567Y-77565292D01*
X32393694Y-77773674D01*
X32227526Y-78019191D01*
X32112449Y-78292409D01*
X32095698Y-78379969D01*
X29362000Y-78379969D01*
X29362000Y-69088000D01*
X32044718Y-69088000D01*
X32073776Y-69383032D01*
X32159834Y-69666725D01*
X32299583Y-69928179D01*
X32487655Y-70157345D01*
X32716821Y-70345417D01*
X32740362Y-70358000D01*
X32716821Y-70370583D01*
X32487655Y-70558655D01*
X32299583Y-70787821D01*
X32159834Y-71049275D01*
X32073776Y-71332968D01*
X32044718Y-71628000D01*
X32073776Y-71923032D01*
X32159834Y-72206725D01*
X32299583Y-72468179D01*
X32487655Y-72697345D01*
X32553114Y-72751066D01*
X32443613Y-72809595D01*
X32309038Y-72920038D01*
X32198595Y-73054613D01*
X32116528Y-73208149D01*
X32065992Y-73374745D01*
X32048928Y-73547999D01*
X32048928Y-74788001D01*
X32065992Y-74961255D01*
X32116528Y-75127851D01*
X32198595Y-75281387D01*
X32309038Y-75415962D01*
X32443613Y-75526405D01*
X32597149Y-75608472D01*
X32763745Y-75659008D01*
X32936999Y-75676072D01*
X34627001Y-75676072D01*
X34800255Y-75659008D01*
X34966851Y-75608472D01*
X35120387Y-75526405D01*
X35254962Y-75415962D01*
X35365405Y-75281387D01*
X35447472Y-75127851D01*
X35498008Y-74961255D01*
X35515072Y-74788001D01*
X35515072Y-73547999D01*
X35498008Y-73374745D01*
X35447472Y-73208149D01*
X35365405Y-73054613D01*
X35254962Y-72920038D01*
X35120387Y-72809595D01*
X35010886Y-72751066D01*
X35076345Y-72697345D01*
X35264417Y-72468179D01*
X35404166Y-72206725D01*
X35490224Y-71923032D01*
X35519282Y-71628000D01*
X35490224Y-71332968D01*
X35404166Y-71049275D01*
X35264417Y-70787821D01*
X35076345Y-70558655D01*
X34847179Y-70370583D01*
X34823638Y-70358000D01*
X34847179Y-70345417D01*
X35076345Y-70157345D01*
X35264417Y-69928179D01*
X35404166Y-69666725D01*
X35490224Y-69383032D01*
X35519282Y-69088000D01*
X35508272Y-68976212D01*
X43823000Y-68976212D01*
X43823000Y-69199788D01*
X43866617Y-69419067D01*
X43952176Y-69625624D01*
X44076388Y-69811520D01*
X44198000Y-69933132D01*
X44198001Y-72814867D01*
X44076388Y-72936480D01*
X43952176Y-73122376D01*
X43866617Y-73328933D01*
X43823000Y-73548212D01*
X43823000Y-73771788D01*
X43866617Y-73991067D01*
X43952176Y-74197624D01*
X44076388Y-74383520D01*
X44234480Y-74541612D01*
X44420376Y-74665824D01*
X44626933Y-74751383D01*
X44846212Y-74795000D01*
X45069788Y-74795000D01*
X45289067Y-74751383D01*
X45495624Y-74665824D01*
X45681520Y-74541612D01*
X45839612Y-74383520D01*
X45963824Y-74197624D01*
X46049383Y-73991067D01*
X46093000Y-73771788D01*
X46093000Y-73548212D01*
X46049383Y-73328933D01*
X45963824Y-73122376D01*
X45839612Y-72936480D01*
X45718000Y-72814868D01*
X45718000Y-69933132D01*
X45839612Y-69811520D01*
X45963824Y-69625624D01*
X46049383Y-69419067D01*
X46093000Y-69199788D01*
X46093000Y-68976212D01*
X46049383Y-68756933D01*
X45963824Y-68550376D01*
X45839612Y-68364480D01*
X45681520Y-68206388D01*
X45495624Y-68082176D01*
X45289067Y-67996617D01*
X45069788Y-67953000D01*
X44846212Y-67953000D01*
X44626933Y-67996617D01*
X44420376Y-68082176D01*
X44234480Y-68206388D01*
X44076388Y-68364480D01*
X43952176Y-68550376D01*
X43866617Y-68756933D01*
X43823000Y-68976212D01*
X35508272Y-68976212D01*
X35490224Y-68792968D01*
X35404166Y-68509275D01*
X35264417Y-68247821D01*
X35076345Y-68018655D01*
X34847179Y-67830583D01*
X34818848Y-67815440D01*
X34959433Y-67722708D01*
X35170306Y-67514326D01*
X35336474Y-67268809D01*
X35451551Y-66995591D01*
X35468302Y-66908031D01*
X35393481Y-66764000D01*
X48599928Y-66764000D01*
X48599928Y-68364000D01*
X48612188Y-68488482D01*
X48648498Y-68608180D01*
X48707463Y-68718494D01*
X48786815Y-68815185D01*
X48883506Y-68894537D01*
X48993820Y-68953502D01*
X49113518Y-68989812D01*
X49121961Y-68990643D01*
X48923363Y-69189241D01*
X48766320Y-69424273D01*
X48658147Y-69685426D01*
X48603000Y-69962665D01*
X48603000Y-70245335D01*
X48658147Y-70522574D01*
X48766320Y-70783727D01*
X48923363Y-71018759D01*
X49123241Y-71218637D01*
X49355759Y-71374000D01*
X49123241Y-71529363D01*
X48923363Y-71729241D01*
X48766320Y-71964273D01*
X48658147Y-72225426D01*
X48603000Y-72502665D01*
X48603000Y-72785335D01*
X48658147Y-73062574D01*
X48766320Y-73323727D01*
X48923363Y-73558759D01*
X49123241Y-73758637D01*
X49355759Y-73914000D01*
X49123241Y-74069363D01*
X48923363Y-74269241D01*
X48766320Y-74504273D01*
X48658147Y-74765426D01*
X48603000Y-75042665D01*
X48603000Y-75325335D01*
X48658147Y-75602574D01*
X48766320Y-75863727D01*
X48923363Y-76098759D01*
X49123241Y-76298637D01*
X49355759Y-76454000D01*
X49123241Y-76609363D01*
X48923363Y-76809241D01*
X48766320Y-77044273D01*
X48658147Y-77305426D01*
X48603000Y-77582665D01*
X48603000Y-77865335D01*
X48658147Y-78142574D01*
X48766320Y-78403727D01*
X48923363Y-78638759D01*
X49123241Y-78838637D01*
X49355759Y-78994000D01*
X49123241Y-79149363D01*
X48923363Y-79349241D01*
X48766320Y-79584273D01*
X48658147Y-79845426D01*
X48603000Y-80122665D01*
X48603000Y-80405335D01*
X48658147Y-80682574D01*
X48766320Y-80943727D01*
X48923363Y-81178759D01*
X49123241Y-81378637D01*
X49355759Y-81534000D01*
X49123241Y-81689363D01*
X48923363Y-81889241D01*
X48766320Y-82124273D01*
X48658147Y-82385426D01*
X48603000Y-82662665D01*
X48603000Y-82945335D01*
X48658147Y-83222574D01*
X48766320Y-83483727D01*
X48923363Y-83718759D01*
X49123241Y-83918637D01*
X49358273Y-84075680D01*
X49368865Y-84080067D01*
X49182869Y-84191615D01*
X48974481Y-84380586D01*
X48806963Y-84606580D01*
X48686754Y-84860913D01*
X48646096Y-84994961D01*
X48768085Y-85217000D01*
X49911000Y-85217000D01*
X49911000Y-85197000D01*
X50165000Y-85197000D01*
X50165000Y-85217000D01*
X51307915Y-85217000D01*
X51315790Y-85202665D01*
X56223000Y-85202665D01*
X56223000Y-85485335D01*
X56278147Y-85762574D01*
X56386320Y-86023727D01*
X56543363Y-86258759D01*
X56743241Y-86458637D01*
X56975759Y-86614000D01*
X56743241Y-86769363D01*
X56543363Y-86969241D01*
X56386320Y-87204273D01*
X56278147Y-87465426D01*
X56223000Y-87742665D01*
X56223000Y-88025335D01*
X56278147Y-88302574D01*
X56386320Y-88563727D01*
X56543363Y-88798759D01*
X56743241Y-88998637D01*
X56975759Y-89154000D01*
X56743241Y-89309363D01*
X56543363Y-89509241D01*
X56386320Y-89744273D01*
X56278147Y-90005426D01*
X56223000Y-90282665D01*
X56223000Y-90565335D01*
X56278147Y-90842574D01*
X56386320Y-91103727D01*
X56543363Y-91338759D01*
X56743241Y-91538637D01*
X56975759Y-91694000D01*
X56743241Y-91849363D01*
X56543363Y-92049241D01*
X56386320Y-92284273D01*
X56278147Y-92545426D01*
X56223000Y-92822665D01*
X56223000Y-93105335D01*
X56278147Y-93382574D01*
X56386320Y-93643727D01*
X56543363Y-93878759D01*
X56743241Y-94078637D01*
X56975759Y-94234000D01*
X56743241Y-94389363D01*
X56543363Y-94589241D01*
X56386320Y-94824273D01*
X56278147Y-95085426D01*
X56223000Y-95362665D01*
X56223000Y-95645335D01*
X56278147Y-95922574D01*
X56386320Y-96183727D01*
X56543363Y-96418759D01*
X56743241Y-96618637D01*
X56975759Y-96774000D01*
X56743241Y-96929363D01*
X56543363Y-97129241D01*
X56386320Y-97364273D01*
X56278147Y-97625426D01*
X56223000Y-97902665D01*
X56223000Y-98185335D01*
X56278147Y-98462574D01*
X56386320Y-98723727D01*
X56543363Y-98958759D01*
X56743241Y-99158637D01*
X56975759Y-99314000D01*
X56743241Y-99469363D01*
X56543363Y-99669241D01*
X56386320Y-99904273D01*
X56278147Y-100165426D01*
X56223000Y-100442665D01*
X56223000Y-100725335D01*
X56278147Y-101002574D01*
X56386320Y-101263727D01*
X56543363Y-101498759D01*
X56743241Y-101698637D01*
X56978273Y-101855680D01*
X57239426Y-101963853D01*
X57516665Y-102019000D01*
X57799335Y-102019000D01*
X58076574Y-101963853D01*
X58337727Y-101855680D01*
X58572759Y-101698637D01*
X58772637Y-101498759D01*
X58929680Y-101263727D01*
X59037853Y-101002574D01*
X59093000Y-100725335D01*
X59093000Y-100442665D01*
X59037853Y-100165426D01*
X58929680Y-99904273D01*
X58772637Y-99669241D01*
X58572759Y-99469363D01*
X58340241Y-99314000D01*
X58572759Y-99158637D01*
X58772637Y-98958759D01*
X58929680Y-98723727D01*
X59037853Y-98462574D01*
X59093000Y-98185335D01*
X59093000Y-98013801D01*
X59380200Y-98301002D01*
X59403999Y-98330001D01*
X59519724Y-98424974D01*
X59651753Y-98495546D01*
X59795014Y-98539003D01*
X59855864Y-98544996D01*
X59982480Y-98671612D01*
X60168376Y-98795824D01*
X60374933Y-98881383D01*
X60594212Y-98925000D01*
X60817788Y-98925000D01*
X61037067Y-98881383D01*
X61243624Y-98795824D01*
X61429520Y-98671612D01*
X61587612Y-98513520D01*
X61711824Y-98327624D01*
X61797383Y-98121067D01*
X61841000Y-97901788D01*
X61841000Y-97678212D01*
X61797383Y-97458933D01*
X61711824Y-97252376D01*
X61587612Y-97066480D01*
X61429520Y-96908388D01*
X61243624Y-96784176D01*
X61037067Y-96698617D01*
X60817788Y-96655000D01*
X60594212Y-96655000D01*
X60374933Y-96698617D01*
X60196000Y-96772734D01*
X60196000Y-94779325D01*
X60199676Y-94742000D01*
X60196000Y-94704675D01*
X60196000Y-94704667D01*
X60185003Y-94593014D01*
X60141546Y-94449753D01*
X60070974Y-94317724D01*
X59976001Y-94201999D01*
X59947004Y-94178202D01*
X59056688Y-93287886D01*
X59093000Y-93105335D01*
X59093000Y-92822665D01*
X59037853Y-92545426D01*
X58929680Y-92284273D01*
X58772637Y-92049241D01*
X58572759Y-91849363D01*
X58340241Y-91694000D01*
X58572759Y-91538637D01*
X58772637Y-91338759D01*
X58929680Y-91103727D01*
X59037853Y-90842574D01*
X59093000Y-90565335D01*
X59093000Y-90282665D01*
X59037853Y-90005426D01*
X58929680Y-89744273D01*
X58772637Y-89509241D01*
X58572759Y-89309363D01*
X58340241Y-89154000D01*
X58572759Y-88998637D01*
X58772637Y-88798759D01*
X58929680Y-88563727D01*
X59037853Y-88302574D01*
X59093000Y-88025335D01*
X59093000Y-87742665D01*
X59037853Y-87465426D01*
X58929680Y-87204273D01*
X58772637Y-86969241D01*
X58572759Y-86769363D01*
X58340241Y-86614000D01*
X58572759Y-86458637D01*
X58772637Y-86258759D01*
X58929680Y-86023727D01*
X59037853Y-85762574D01*
X59070589Y-85598000D01*
X66334718Y-85598000D01*
X66363776Y-85893032D01*
X66449834Y-86176725D01*
X66589583Y-86438179D01*
X66777655Y-86667345D01*
X67006821Y-86855417D01*
X67268275Y-86995166D01*
X67551968Y-87081224D01*
X67773064Y-87103000D01*
X68370936Y-87103000D01*
X68592032Y-87081224D01*
X68875725Y-86995166D01*
X69137179Y-86855417D01*
X69366345Y-86667345D01*
X69554417Y-86438179D01*
X69694166Y-86176725D01*
X69780224Y-85893032D01*
X69809282Y-85598000D01*
X69780224Y-85302968D01*
X69694166Y-85019275D01*
X69554417Y-84757821D01*
X69366345Y-84528655D01*
X69300886Y-84474934D01*
X69410387Y-84416405D01*
X69544962Y-84305962D01*
X69655405Y-84171387D01*
X69737472Y-84017851D01*
X69788008Y-83851255D01*
X69805072Y-83678001D01*
X69805072Y-82437999D01*
X69788008Y-82264745D01*
X69737472Y-82098149D01*
X69655405Y-81944613D01*
X69544962Y-81810038D01*
X69410387Y-81699595D01*
X69256851Y-81617528D01*
X69090255Y-81566992D01*
X68917001Y-81549928D01*
X67226999Y-81549928D01*
X67053745Y-81566992D01*
X66887149Y-81617528D01*
X66733613Y-81699595D01*
X66599038Y-81810038D01*
X66488595Y-81944613D01*
X66406528Y-82098149D01*
X66355992Y-82264745D01*
X66338928Y-82437999D01*
X66338928Y-83678001D01*
X66355992Y-83851255D01*
X66406528Y-84017851D01*
X66488595Y-84171387D01*
X66599038Y-84305962D01*
X66733613Y-84416405D01*
X66843114Y-84474934D01*
X66777655Y-84528655D01*
X66589583Y-84757821D01*
X66449834Y-85019275D01*
X66363776Y-85302968D01*
X66334718Y-85598000D01*
X59070589Y-85598000D01*
X59093000Y-85485335D01*
X59093000Y-85202665D01*
X59037853Y-84925426D01*
X58929680Y-84664273D01*
X58772637Y-84429241D01*
X58572759Y-84229363D01*
X58337727Y-84072320D01*
X58327135Y-84067933D01*
X58513131Y-83956385D01*
X58721519Y-83767414D01*
X58889037Y-83541420D01*
X59009246Y-83287087D01*
X59049904Y-83153039D01*
X58927915Y-82931000D01*
X57785000Y-82931000D01*
X57785000Y-82951000D01*
X57531000Y-82951000D01*
X57531000Y-82931000D01*
X56388085Y-82931000D01*
X56266096Y-83153039D01*
X56306754Y-83287087D01*
X56426963Y-83541420D01*
X56594481Y-83767414D01*
X56802869Y-83956385D01*
X56988865Y-84067933D01*
X56978273Y-84072320D01*
X56743241Y-84229363D01*
X56543363Y-84429241D01*
X56386320Y-84664273D01*
X56278147Y-84925426D01*
X56223000Y-85202665D01*
X51315790Y-85202665D01*
X51429904Y-84994961D01*
X51389246Y-84860913D01*
X51269037Y-84606580D01*
X51101519Y-84380586D01*
X50893131Y-84191615D01*
X50707135Y-84080067D01*
X50717727Y-84075680D01*
X50952759Y-83918637D01*
X51152637Y-83718759D01*
X51309680Y-83483727D01*
X51417853Y-83222574D01*
X51473000Y-82945335D01*
X51473000Y-82662665D01*
X51417853Y-82385426D01*
X51309680Y-82124273D01*
X51152637Y-81889241D01*
X50952759Y-81689363D01*
X50720241Y-81534000D01*
X50952759Y-81378637D01*
X51152637Y-81178759D01*
X51309680Y-80943727D01*
X51417853Y-80682574D01*
X51473000Y-80405335D01*
X51473000Y-80122665D01*
X51417853Y-79845426D01*
X51309680Y-79584273D01*
X51152637Y-79349241D01*
X50952759Y-79149363D01*
X50720241Y-78994000D01*
X50952759Y-78838637D01*
X51152637Y-78638759D01*
X51309680Y-78403727D01*
X51417853Y-78142574D01*
X51473000Y-77865335D01*
X51473000Y-77582665D01*
X51417853Y-77305426D01*
X51309680Y-77044273D01*
X51152637Y-76809241D01*
X50952759Y-76609363D01*
X50720241Y-76454000D01*
X50952759Y-76298637D01*
X51152637Y-76098759D01*
X51309680Y-75863727D01*
X51417853Y-75602574D01*
X51473000Y-75325335D01*
X51473000Y-75042665D01*
X51417853Y-74765426D01*
X51309680Y-74504273D01*
X51152637Y-74269241D01*
X50952759Y-74069363D01*
X50720241Y-73914000D01*
X50952759Y-73758637D01*
X51152637Y-73558759D01*
X51309680Y-73323727D01*
X51417853Y-73062574D01*
X51473000Y-72785335D01*
X51473000Y-72502665D01*
X51417853Y-72225426D01*
X51309680Y-71964273D01*
X51152637Y-71729241D01*
X50952759Y-71529363D01*
X50720241Y-71374000D01*
X50952759Y-71218637D01*
X51152637Y-71018759D01*
X51309680Y-70783727D01*
X51417853Y-70522574D01*
X51473000Y-70245335D01*
X51473000Y-69962665D01*
X51417853Y-69685426D01*
X51309680Y-69424273D01*
X51152637Y-69189241D01*
X50954039Y-68990643D01*
X50962482Y-68989812D01*
X51082180Y-68953502D01*
X51192494Y-68894537D01*
X51289185Y-68815185D01*
X51368537Y-68718494D01*
X51427502Y-68608180D01*
X51463812Y-68488482D01*
X51476072Y-68364000D01*
X51476072Y-67422665D01*
X56223000Y-67422665D01*
X56223000Y-67705335D01*
X56278147Y-67982574D01*
X56386320Y-68243727D01*
X56543363Y-68478759D01*
X56743241Y-68678637D01*
X56975759Y-68834000D01*
X56743241Y-68989363D01*
X56543363Y-69189241D01*
X56386320Y-69424273D01*
X56278147Y-69685426D01*
X56223000Y-69962665D01*
X56223000Y-70245335D01*
X56278147Y-70522574D01*
X56386320Y-70783727D01*
X56543363Y-71018759D01*
X56743241Y-71218637D01*
X56975759Y-71374000D01*
X56743241Y-71529363D01*
X56543363Y-71729241D01*
X56386320Y-71964273D01*
X56278147Y-72225426D01*
X56223000Y-72502665D01*
X56223000Y-72785335D01*
X56278147Y-73062574D01*
X56386320Y-73323727D01*
X56543363Y-73558759D01*
X56743241Y-73758637D01*
X56975759Y-73914000D01*
X56743241Y-74069363D01*
X56543363Y-74269241D01*
X56386320Y-74504273D01*
X56278147Y-74765426D01*
X56223000Y-75042665D01*
X56223000Y-75325335D01*
X56278147Y-75602574D01*
X56386320Y-75863727D01*
X56543363Y-76098759D01*
X56743241Y-76298637D01*
X56975759Y-76454000D01*
X56743241Y-76609363D01*
X56543363Y-76809241D01*
X56386320Y-77044273D01*
X56278147Y-77305426D01*
X56223000Y-77582665D01*
X56223000Y-77865335D01*
X56278147Y-78142574D01*
X56386320Y-78403727D01*
X56543363Y-78638759D01*
X56743241Y-78838637D01*
X56975759Y-78994000D01*
X56743241Y-79149363D01*
X56543363Y-79349241D01*
X56386320Y-79584273D01*
X56278147Y-79845426D01*
X56223000Y-80122665D01*
X56223000Y-80405335D01*
X56278147Y-80682574D01*
X56386320Y-80943727D01*
X56543363Y-81178759D01*
X56743241Y-81378637D01*
X56978273Y-81535680D01*
X56988865Y-81540067D01*
X56802869Y-81651615D01*
X56594481Y-81840586D01*
X56426963Y-82066580D01*
X56306754Y-82320913D01*
X56266096Y-82454961D01*
X56388085Y-82677000D01*
X57531000Y-82677000D01*
X57531000Y-82657000D01*
X57785000Y-82657000D01*
X57785000Y-82677000D01*
X58927915Y-82677000D01*
X59049904Y-82454961D01*
X59009246Y-82320913D01*
X58889037Y-82066580D01*
X58721519Y-81840586D01*
X58513131Y-81651615D01*
X58327135Y-81540067D01*
X58337727Y-81535680D01*
X58572759Y-81378637D01*
X58772637Y-81178759D01*
X58929680Y-80943727D01*
X59037853Y-80682574D01*
X59093000Y-80405335D01*
X59093000Y-80122665D01*
X59037853Y-79845426D01*
X58929680Y-79584273D01*
X58772637Y-79349241D01*
X58572759Y-79149363D01*
X58340241Y-78994000D01*
X58572759Y-78838637D01*
X58772637Y-78638759D01*
X58874707Y-78486000D01*
X66334718Y-78486000D01*
X66363776Y-78781032D01*
X66449834Y-79064725D01*
X66589583Y-79326179D01*
X66777655Y-79555345D01*
X67006821Y-79743417D01*
X67268275Y-79883166D01*
X67551968Y-79969224D01*
X67773064Y-79991000D01*
X68370936Y-79991000D01*
X68592032Y-79969224D01*
X68875725Y-79883166D01*
X69137179Y-79743417D01*
X69366345Y-79555345D01*
X69554417Y-79326179D01*
X69694166Y-79064725D01*
X69780224Y-78781032D01*
X69809282Y-78486000D01*
X69780224Y-78190968D01*
X69694166Y-77907275D01*
X69554417Y-77645821D01*
X69366345Y-77416655D01*
X69300886Y-77362934D01*
X69410387Y-77304405D01*
X69544962Y-77193962D01*
X69655405Y-77059387D01*
X69737472Y-76905851D01*
X69788008Y-76739255D01*
X69805072Y-76566001D01*
X69805072Y-75325999D01*
X69788008Y-75152745D01*
X69737472Y-74986149D01*
X69655405Y-74832613D01*
X69544962Y-74698038D01*
X69410387Y-74587595D01*
X69256851Y-74505528D01*
X69090255Y-74454992D01*
X68917001Y-74437928D01*
X67226999Y-74437928D01*
X67053745Y-74454992D01*
X66887149Y-74505528D01*
X66733613Y-74587595D01*
X66599038Y-74698038D01*
X66488595Y-74832613D01*
X66406528Y-74986149D01*
X66355992Y-75152745D01*
X66338928Y-75325999D01*
X66338928Y-76566001D01*
X66355992Y-76739255D01*
X66406528Y-76905851D01*
X66488595Y-77059387D01*
X66599038Y-77193962D01*
X66733613Y-77304405D01*
X66843114Y-77362934D01*
X66777655Y-77416655D01*
X66589583Y-77645821D01*
X66449834Y-77907275D01*
X66363776Y-78190968D01*
X66334718Y-78486000D01*
X58874707Y-78486000D01*
X58929680Y-78403727D01*
X59037853Y-78142574D01*
X59093000Y-77865335D01*
X59093000Y-77582665D01*
X59037853Y-77305426D01*
X58929680Y-77044273D01*
X58772637Y-76809241D01*
X58572759Y-76609363D01*
X58340241Y-76454000D01*
X58572759Y-76298637D01*
X58772637Y-76098759D01*
X58929680Y-75863727D01*
X59037853Y-75602574D01*
X59093000Y-75325335D01*
X59093000Y-75042665D01*
X59037853Y-74765426D01*
X59000812Y-74676000D01*
X60585388Y-74676000D01*
X60607785Y-74903400D01*
X60671093Y-75112098D01*
X60636498Y-75176820D01*
X60600188Y-75296518D01*
X60587928Y-75421000D01*
X60587928Y-76471000D01*
X60600188Y-76595482D01*
X60636498Y-76715180D01*
X60695463Y-76825494D01*
X60774815Y-76922185D01*
X60871506Y-77001537D01*
X60981820Y-77060502D01*
X61101518Y-77096812D01*
X61226000Y-77109072D01*
X62726000Y-77109072D01*
X62850482Y-77096812D01*
X62970180Y-77060502D01*
X63080494Y-77001537D01*
X63177185Y-76922185D01*
X63256537Y-76825494D01*
X63315502Y-76715180D01*
X63351812Y-76595482D01*
X63364072Y-76471000D01*
X63364072Y-75421000D01*
X63351812Y-75296518D01*
X63315502Y-75176820D01*
X63280907Y-75112098D01*
X63344215Y-74903400D01*
X63366612Y-74676000D01*
X63344215Y-74448600D01*
X63277885Y-74229940D01*
X63177071Y-74041331D01*
X63218275Y-73982882D01*
X63311272Y-73773337D01*
X63319964Y-73711810D01*
X63194163Y-73533000D01*
X62429109Y-73533000D01*
X62428400Y-73532785D01*
X62257979Y-73516000D01*
X61694021Y-73516000D01*
X61523600Y-73532785D01*
X61522891Y-73533000D01*
X60757837Y-73533000D01*
X60632036Y-73711810D01*
X60640728Y-73773337D01*
X60733725Y-73982882D01*
X60774929Y-74041331D01*
X60674115Y-74229940D01*
X60607785Y-74448600D01*
X60585388Y-74676000D01*
X59000812Y-74676000D01*
X58929680Y-74504273D01*
X58772637Y-74269241D01*
X58572759Y-74069363D01*
X58340241Y-73914000D01*
X58572759Y-73758637D01*
X58772637Y-73558759D01*
X58929680Y-73323727D01*
X59022271Y-73100190D01*
X60632036Y-73100190D01*
X60757837Y-73279000D01*
X61849000Y-73279000D01*
X61849000Y-72399402D01*
X62103000Y-72399402D01*
X62103000Y-73279000D01*
X63194163Y-73279000D01*
X63319964Y-73100190D01*
X63311272Y-73038663D01*
X63218275Y-72829118D01*
X63086184Y-72641742D01*
X62920076Y-72483736D01*
X62726334Y-72361172D01*
X62512404Y-72278761D01*
X62286507Y-72239669D01*
X62103000Y-72399402D01*
X61849000Y-72399402D01*
X61665493Y-72239669D01*
X61439596Y-72278761D01*
X61225666Y-72361172D01*
X61031924Y-72483736D01*
X60865816Y-72641742D01*
X60733725Y-72829118D01*
X60640728Y-73038663D01*
X60632036Y-73100190D01*
X59022271Y-73100190D01*
X59037853Y-73062574D01*
X59093000Y-72785335D01*
X59093000Y-72502665D01*
X59037853Y-72225426D01*
X58929680Y-71964273D01*
X58775838Y-71734031D01*
X66385698Y-71734031D01*
X66402449Y-71821591D01*
X66517526Y-72094809D01*
X66683694Y-72340326D01*
X66894567Y-72548708D01*
X67142042Y-72711947D01*
X67416608Y-72823769D01*
X67707714Y-72879877D01*
X67945000Y-72724376D01*
X67945000Y-71501000D01*
X68199000Y-71501000D01*
X68199000Y-72724376D01*
X68436286Y-72879877D01*
X68727392Y-72823769D01*
X69001958Y-72711947D01*
X69249433Y-72548708D01*
X69460306Y-72340326D01*
X69626474Y-72094809D01*
X69741551Y-71821591D01*
X69758302Y-71734031D01*
X69637246Y-71501000D01*
X68199000Y-71501000D01*
X67945000Y-71501000D01*
X66506754Y-71501000D01*
X66385698Y-71734031D01*
X58775838Y-71734031D01*
X58772637Y-71729241D01*
X58572759Y-71529363D01*
X58340241Y-71374000D01*
X58572759Y-71218637D01*
X58772637Y-71018759D01*
X58929680Y-70783727D01*
X59037853Y-70522574D01*
X59093000Y-70245335D01*
X59093000Y-69962665D01*
X59037853Y-69685426D01*
X58929680Y-69424273D01*
X58772637Y-69189241D01*
X58572759Y-68989363D01*
X58340241Y-68834000D01*
X58572759Y-68678637D01*
X58772637Y-68478759D01*
X58929680Y-68243727D01*
X59037853Y-67982574D01*
X59093000Y-67705335D01*
X59093000Y-67422665D01*
X59037853Y-67145426D01*
X58929680Y-66884273D01*
X58772637Y-66649241D01*
X58572759Y-66449363D01*
X58340242Y-66294000D01*
X66334718Y-66294000D01*
X66363776Y-66589032D01*
X66449834Y-66872725D01*
X66589583Y-67134179D01*
X66777655Y-67363345D01*
X67006821Y-67551417D01*
X67030362Y-67564000D01*
X67006821Y-67576583D01*
X66777655Y-67764655D01*
X66589583Y-67993821D01*
X66449834Y-68255275D01*
X66363776Y-68538968D01*
X66334718Y-68834000D01*
X66363776Y-69129032D01*
X66449834Y-69412725D01*
X66589583Y-69674179D01*
X66777655Y-69903345D01*
X67006821Y-70091417D01*
X67035152Y-70106560D01*
X66894567Y-70199292D01*
X66683694Y-70407674D01*
X66517526Y-70653191D01*
X66402449Y-70926409D01*
X66385698Y-71013969D01*
X66506754Y-71247000D01*
X67945000Y-71247000D01*
X67945000Y-71227000D01*
X68199000Y-71227000D01*
X68199000Y-71247000D01*
X69637246Y-71247000D01*
X69758302Y-71013969D01*
X69741551Y-70926409D01*
X69626474Y-70653191D01*
X69460306Y-70407674D01*
X69249433Y-70199292D01*
X69108848Y-70106560D01*
X69137179Y-70091417D01*
X69366345Y-69903345D01*
X69554417Y-69674179D01*
X69694166Y-69412725D01*
X69780224Y-69129032D01*
X69809282Y-68834000D01*
X69780224Y-68538968D01*
X69694166Y-68255275D01*
X69554417Y-67993821D01*
X69366345Y-67764655D01*
X69137179Y-67576583D01*
X69113638Y-67564000D01*
X69137179Y-67551417D01*
X69366345Y-67363345D01*
X69554417Y-67134179D01*
X69694166Y-66872725D01*
X69780224Y-66589032D01*
X69809282Y-66294000D01*
X69780224Y-65998968D01*
X69694166Y-65715275D01*
X69554417Y-65453821D01*
X69366345Y-65224655D01*
X69300886Y-65170934D01*
X69410387Y-65112405D01*
X69544962Y-65001962D01*
X69655405Y-64867387D01*
X69737472Y-64713851D01*
X69788008Y-64547255D01*
X69805072Y-64374001D01*
X69805072Y-63133999D01*
X69788008Y-62960745D01*
X69737472Y-62794149D01*
X69655405Y-62640613D01*
X69544962Y-62506038D01*
X69410387Y-62395595D01*
X69256851Y-62313528D01*
X69090255Y-62262992D01*
X68917001Y-62245928D01*
X67226999Y-62245928D01*
X67053745Y-62262992D01*
X66887149Y-62313528D01*
X66733613Y-62395595D01*
X66599038Y-62506038D01*
X66488595Y-62640613D01*
X66406528Y-62794149D01*
X66355992Y-62960745D01*
X66338928Y-63133999D01*
X66338928Y-64374001D01*
X66355992Y-64547255D01*
X66406528Y-64713851D01*
X66488595Y-64867387D01*
X66599038Y-65001962D01*
X66733613Y-65112405D01*
X66843114Y-65170934D01*
X66777655Y-65224655D01*
X66589583Y-65453821D01*
X66449834Y-65715275D01*
X66363776Y-65998968D01*
X66334718Y-66294000D01*
X58340242Y-66294000D01*
X58337727Y-66292320D01*
X58076574Y-66184147D01*
X57799335Y-66129000D01*
X57516665Y-66129000D01*
X57239426Y-66184147D01*
X56978273Y-66292320D01*
X56743241Y-66449363D01*
X56543363Y-66649241D01*
X56386320Y-66884273D01*
X56278147Y-67145426D01*
X56223000Y-67422665D01*
X51476072Y-67422665D01*
X51476072Y-66764000D01*
X51463812Y-66639518D01*
X51427502Y-66519820D01*
X51368537Y-66409506D01*
X51289185Y-66312815D01*
X51192494Y-66233463D01*
X51082180Y-66174498D01*
X50962482Y-66138188D01*
X50838000Y-66125928D01*
X49238000Y-66125928D01*
X49113518Y-66138188D01*
X48993820Y-66174498D01*
X48883506Y-66233463D01*
X48786815Y-66312815D01*
X48707463Y-66409506D01*
X48648498Y-66519820D01*
X48612188Y-66639518D01*
X48599928Y-66764000D01*
X35393481Y-66764000D01*
X35347246Y-66675000D01*
X33909000Y-66675000D01*
X33909000Y-66695000D01*
X33655000Y-66695000D01*
X33655000Y-66675000D01*
X32216754Y-66675000D01*
X32095698Y-66908031D01*
X32112449Y-66995591D01*
X32227526Y-67268809D01*
X32393694Y-67514326D01*
X32604567Y-67722708D01*
X32745152Y-67815440D01*
X32716821Y-67830583D01*
X32487655Y-68018655D01*
X32299583Y-68247821D01*
X32159834Y-68509275D01*
X32073776Y-68792968D01*
X32044718Y-69088000D01*
X29362000Y-69088000D01*
X29362000Y-66187969D01*
X32095698Y-66187969D01*
X32216754Y-66421000D01*
X33655000Y-66421000D01*
X33655000Y-65197624D01*
X33909000Y-65197624D01*
X33909000Y-66421000D01*
X35347246Y-66421000D01*
X35468302Y-66187969D01*
X35451551Y-66100409D01*
X35336474Y-65827191D01*
X35170306Y-65581674D01*
X34959433Y-65373292D01*
X34711958Y-65210053D01*
X34437392Y-65098231D01*
X34146286Y-65042123D01*
X33909000Y-65197624D01*
X33655000Y-65197624D01*
X33417714Y-65042123D01*
X33126608Y-65098231D01*
X32852042Y-65210053D01*
X32604567Y-65373292D01*
X32393694Y-65581674D01*
X32227526Y-65827191D01*
X32112449Y-66100409D01*
X32095698Y-66187969D01*
X29362000Y-66187969D01*
X29362000Y-56144729D01*
X29544705Y-56585818D01*
X29942511Y-57181177D01*
X30448823Y-57687489D01*
X31044182Y-58085295D01*
X31705710Y-58359309D01*
X32407984Y-58499000D01*
X33124016Y-58499000D01*
X33826290Y-58359309D01*
X34487818Y-58085295D01*
X35083177Y-57687489D01*
X35589489Y-57181177D01*
X35987295Y-56585818D01*
X36208824Y-56050999D01*
X37099928Y-56050999D01*
X37099928Y-57741001D01*
X37116992Y-57914255D01*
X37167528Y-58080851D01*
X37249595Y-58234387D01*
X37360038Y-58368962D01*
X37494613Y-58479405D01*
X37648149Y-58561472D01*
X37814745Y-58612008D01*
X37987999Y-58629072D01*
X39228001Y-58629072D01*
X39401255Y-58612008D01*
X39567851Y-58561472D01*
X39721387Y-58479405D01*
X39855962Y-58368962D01*
X39966405Y-58234387D01*
X40024655Y-58125410D01*
X40181674Y-58284306D01*
X40427191Y-58450474D01*
X40700409Y-58565551D01*
X40787969Y-58582302D01*
X41021000Y-58461246D01*
X41021000Y-57023000D01*
X41275000Y-57023000D01*
X41275000Y-58461246D01*
X41508031Y-58582302D01*
X41595591Y-58565551D01*
X41868809Y-58450474D01*
X42114326Y-58284306D01*
X42322708Y-58073433D01*
X42485947Y-57825958D01*
X42597769Y-57551392D01*
X42653877Y-57260286D01*
X42498376Y-57023000D01*
X41275000Y-57023000D01*
X41021000Y-57023000D01*
X41001000Y-57023000D01*
X41001000Y-56769000D01*
X41021000Y-56769000D01*
X41021000Y-55330754D01*
X41275000Y-55330754D01*
X41275000Y-56769000D01*
X42498376Y-56769000D01*
X42653877Y-56531714D01*
X42597769Y-56240608D01*
X42520548Y-56050999D01*
X46116928Y-56050999D01*
X46116928Y-57741001D01*
X46133992Y-57914255D01*
X46184528Y-58080851D01*
X46266595Y-58234387D01*
X46377038Y-58368962D01*
X46511613Y-58479405D01*
X46665149Y-58561472D01*
X46831745Y-58612008D01*
X47004999Y-58629072D01*
X48245001Y-58629072D01*
X48418255Y-58612008D01*
X48584851Y-58561472D01*
X48738387Y-58479405D01*
X48872962Y-58368962D01*
X48983405Y-58234387D01*
X49041655Y-58125410D01*
X49198674Y-58284306D01*
X49444191Y-58450474D01*
X49717409Y-58565551D01*
X49804969Y-58582302D01*
X50038000Y-58461246D01*
X50038000Y-57023000D01*
X50292000Y-57023000D01*
X50292000Y-58461246D01*
X50525031Y-58582302D01*
X50612591Y-58565551D01*
X50885809Y-58450474D01*
X51131326Y-58284306D01*
X51339708Y-58073433D01*
X51502947Y-57825958D01*
X51614769Y-57551392D01*
X51670877Y-57260286D01*
X51515376Y-57023000D01*
X50292000Y-57023000D01*
X50038000Y-57023000D01*
X50018000Y-57023000D01*
X50018000Y-56769000D01*
X50038000Y-56769000D01*
X50038000Y-55330754D01*
X50292000Y-55330754D01*
X50292000Y-56769000D01*
X51515376Y-56769000D01*
X51670877Y-56531714D01*
X51614769Y-56240608D01*
X51537548Y-56050999D01*
X55133928Y-56050999D01*
X55133928Y-57741001D01*
X55150992Y-57914255D01*
X55201528Y-58080851D01*
X55283595Y-58234387D01*
X55394038Y-58368962D01*
X55528613Y-58479405D01*
X55682149Y-58561472D01*
X55848745Y-58612008D01*
X56021999Y-58629072D01*
X57262001Y-58629072D01*
X57435255Y-58612008D01*
X57601851Y-58561472D01*
X57755387Y-58479405D01*
X57889962Y-58368962D01*
X58000405Y-58234387D01*
X58058655Y-58125410D01*
X58215674Y-58284306D01*
X58461191Y-58450474D01*
X58734409Y-58565551D01*
X58821969Y-58582302D01*
X59055000Y-58461246D01*
X59055000Y-57023000D01*
X59309000Y-57023000D01*
X59309000Y-58461246D01*
X59542031Y-58582302D01*
X59629591Y-58565551D01*
X59902809Y-58450474D01*
X60148326Y-58284306D01*
X60356708Y-58073433D01*
X60519947Y-57825958D01*
X60631769Y-57551392D01*
X60687877Y-57260286D01*
X60532376Y-57023000D01*
X59309000Y-57023000D01*
X59055000Y-57023000D01*
X59035000Y-57023000D01*
X59035000Y-56769000D01*
X59055000Y-56769000D01*
X59055000Y-55330754D01*
X59309000Y-55330754D01*
X59309000Y-56769000D01*
X60532376Y-56769000D01*
X60687877Y-56531714D01*
X60631769Y-56240608D01*
X60519947Y-55966042D01*
X60356708Y-55718567D01*
X60148326Y-55507694D01*
X59902809Y-55341526D01*
X59629591Y-55226449D01*
X59542031Y-55209698D01*
X59309000Y-55330754D01*
X59055000Y-55330754D01*
X58821969Y-55209698D01*
X58734409Y-55226449D01*
X58461191Y-55341526D01*
X58215674Y-55507694D01*
X58058655Y-55666590D01*
X58000405Y-55557613D01*
X57889962Y-55423038D01*
X57755387Y-55312595D01*
X57601851Y-55230528D01*
X57435255Y-55179992D01*
X57262001Y-55162928D01*
X56021999Y-55162928D01*
X55848745Y-55179992D01*
X55682149Y-55230528D01*
X55528613Y-55312595D01*
X55394038Y-55423038D01*
X55283595Y-55557613D01*
X55201528Y-55711149D01*
X55150992Y-55877745D01*
X55133928Y-56050999D01*
X51537548Y-56050999D01*
X51502947Y-55966042D01*
X51339708Y-55718567D01*
X51131326Y-55507694D01*
X50885809Y-55341526D01*
X50612591Y-55226449D01*
X50525031Y-55209698D01*
X50292000Y-55330754D01*
X50038000Y-55330754D01*
X49804969Y-55209698D01*
X49717409Y-55226449D01*
X49444191Y-55341526D01*
X49198674Y-55507694D01*
X49041655Y-55666590D01*
X48983405Y-55557613D01*
X48872962Y-55423038D01*
X48738387Y-55312595D01*
X48584851Y-55230528D01*
X48418255Y-55179992D01*
X48245001Y-55162928D01*
X47004999Y-55162928D01*
X46831745Y-55179992D01*
X46665149Y-55230528D01*
X46511613Y-55312595D01*
X46377038Y-55423038D01*
X46266595Y-55557613D01*
X46184528Y-55711149D01*
X46133992Y-55877745D01*
X46116928Y-56050999D01*
X42520548Y-56050999D01*
X42485947Y-55966042D01*
X42322708Y-55718567D01*
X42114326Y-55507694D01*
X41868809Y-55341526D01*
X41595591Y-55226449D01*
X41508031Y-55209698D01*
X41275000Y-55330754D01*
X41021000Y-55330754D01*
X40787969Y-55209698D01*
X40700409Y-55226449D01*
X40427191Y-55341526D01*
X40181674Y-55507694D01*
X40024655Y-55666590D01*
X39966405Y-55557613D01*
X39855962Y-55423038D01*
X39721387Y-55312595D01*
X39567851Y-55230528D01*
X39401255Y-55179992D01*
X39228001Y-55162928D01*
X37987999Y-55162928D01*
X37814745Y-55179992D01*
X37648149Y-55230528D01*
X37494613Y-55312595D01*
X37360038Y-55423038D01*
X37249595Y-55557613D01*
X37167528Y-55711149D01*
X37116992Y-55877745D01*
X37099928Y-56050999D01*
X36208824Y-56050999D01*
X36261309Y-55924290D01*
X36401000Y-55222016D01*
X36401000Y-54505984D01*
X36261309Y-53803710D01*
X35987295Y-53142182D01*
X35589489Y-52546823D01*
X35083177Y-52040511D01*
X34594519Y-51714000D01*
X67041481Y-51714000D01*
X66552823Y-52040511D01*
%TD*%
M02*
