%TF.GenerationSoftware,KiCad,Pcbnew,(5.1.6)-1*%
%TF.CreationDate,2021-03-31T20:23:18+03:00*%
%TF.ProjectId,reflow_oven,7265666c-6f77-45f6-9f76-656e2e6b6963,rev?*%
%TF.SameCoordinates,Original*%
%TF.FileFunction,Soldermask,Top*%
%TF.FilePolarity,Negative*%
%FSLAX46Y46*%
G04 Gerber Fmt 4.6, Leading zero omitted, Abs format (unit mm)*
G04 Created by KiCad (PCBNEW (5.1.6)-1) date 2021-03-31 20:23:18*
%MOMM*%
%LPD*%
G01*
G04 APERTURE LIST*
%ADD10R,1.700000X1.700000*%
%ADD11O,1.700000X1.700000*%
%ADD12O,1.150000X1.600000*%
%ADD13R,1.150000X1.600000*%
%ADD14C,0.900000*%
%ADD15C,6.100000*%
%ADD16O,2.290000X1.840000*%
%ADD17O,1.840000X2.290000*%
%ADD18R,1.300000X1.000000*%
%ADD19O,1.600000X1.150000*%
%ADD20R,1.600000X1.150000*%
%ADD21R,2.100000X4.600000*%
G04 APERTURE END LIST*
%TO.C,R2*%
G36*
G01*
X39343250Y-97741000D02*
X38380750Y-97741000D01*
G75*
G02*
X38112000Y-97472250I0J268750D01*
G01*
X38112000Y-96934750D01*
G75*
G02*
X38380750Y-96666000I268750J0D01*
G01*
X39343250Y-96666000D01*
G75*
G02*
X39612000Y-96934750I0J-268750D01*
G01*
X39612000Y-97472250D01*
G75*
G02*
X39343250Y-97741000I-268750J0D01*
G01*
G37*
G36*
G01*
X39343250Y-95866000D02*
X38380750Y-95866000D01*
G75*
G02*
X38112000Y-95597250I0J268750D01*
G01*
X38112000Y-95059750D01*
G75*
G02*
X38380750Y-94791000I268750J0D01*
G01*
X39343250Y-94791000D01*
G75*
G02*
X39612000Y-95059750I0J-268750D01*
G01*
X39612000Y-95597250D01*
G75*
G02*
X39343250Y-95866000I-268750J0D01*
G01*
G37*
%TD*%
%TO.C,C3*%
G36*
G01*
X47979250Y-81388000D02*
X47016750Y-81388000D01*
G75*
G02*
X46748000Y-81119250I0J268750D01*
G01*
X46748000Y-80581750D01*
G75*
G02*
X47016750Y-80313000I268750J0D01*
G01*
X47979250Y-80313000D01*
G75*
G02*
X48248000Y-80581750I0J-268750D01*
G01*
X48248000Y-81119250D01*
G75*
G02*
X47979250Y-81388000I-268750J0D01*
G01*
G37*
G36*
G01*
X47979250Y-83263000D02*
X47016750Y-83263000D01*
G75*
G02*
X46748000Y-82994250I0J268750D01*
G01*
X46748000Y-82456750D01*
G75*
G02*
X47016750Y-82188000I268750J0D01*
G01*
X47979250Y-82188000D01*
G75*
G02*
X48248000Y-82456750I0J-268750D01*
G01*
X48248000Y-82994250D01*
G75*
G02*
X47979250Y-83263000I-268750J0D01*
G01*
G37*
%TD*%
D10*
%TO.C,U1*%
X50038000Y-67564000D03*
D11*
X57658000Y-100584000D03*
X50038000Y-70104000D03*
X57658000Y-98044000D03*
X50038000Y-72644000D03*
X57658000Y-95504000D03*
X50038000Y-75184000D03*
X57658000Y-92964000D03*
X50038000Y-77724000D03*
X57658000Y-90424000D03*
X50038000Y-80264000D03*
X57658000Y-87884000D03*
X50038000Y-82804000D03*
X57658000Y-85344000D03*
X50038000Y-85344000D03*
X57658000Y-82804000D03*
X50038000Y-87884000D03*
X57658000Y-80264000D03*
X50038000Y-90424000D03*
X57658000Y-77724000D03*
X50038000Y-92964000D03*
X57658000Y-75184000D03*
X50038000Y-95504000D03*
X57658000Y-72644000D03*
X50038000Y-98044000D03*
X57658000Y-70104000D03*
X50038000Y-100584000D03*
X57658000Y-67564000D03*
%TD*%
%TO.C,U2*%
G36*
G01*
X69802000Y-89210000D02*
X70152000Y-89210000D01*
G75*
G02*
X70327000Y-89385000I0J-175000D01*
G01*
X70327000Y-90885000D01*
G75*
G02*
X70152000Y-91060000I-175000J0D01*
G01*
X69802000Y-91060000D01*
G75*
G02*
X69627000Y-90885000I0J175000D01*
G01*
X69627000Y-89385000D01*
G75*
G02*
X69802000Y-89210000I175000J0D01*
G01*
G37*
G36*
G01*
X68532000Y-89210000D02*
X68882000Y-89210000D01*
G75*
G02*
X69057000Y-89385000I0J-175000D01*
G01*
X69057000Y-90885000D01*
G75*
G02*
X68882000Y-91060000I-175000J0D01*
G01*
X68532000Y-91060000D01*
G75*
G02*
X68357000Y-90885000I0J175000D01*
G01*
X68357000Y-89385000D01*
G75*
G02*
X68532000Y-89210000I175000J0D01*
G01*
G37*
G36*
G01*
X67262000Y-89210000D02*
X67612000Y-89210000D01*
G75*
G02*
X67787000Y-89385000I0J-175000D01*
G01*
X67787000Y-90885000D01*
G75*
G02*
X67612000Y-91060000I-175000J0D01*
G01*
X67262000Y-91060000D01*
G75*
G02*
X67087000Y-90885000I0J175000D01*
G01*
X67087000Y-89385000D01*
G75*
G02*
X67262000Y-89210000I175000J0D01*
G01*
G37*
G36*
G01*
X65992000Y-89210000D02*
X66342000Y-89210000D01*
G75*
G02*
X66517000Y-89385000I0J-175000D01*
G01*
X66517000Y-90885000D01*
G75*
G02*
X66342000Y-91060000I-175000J0D01*
G01*
X65992000Y-91060000D01*
G75*
G02*
X65817000Y-90885000I0J175000D01*
G01*
X65817000Y-89385000D01*
G75*
G02*
X65992000Y-89210000I175000J0D01*
G01*
G37*
G36*
G01*
X65992000Y-94360000D02*
X66342000Y-94360000D01*
G75*
G02*
X66517000Y-94535000I0J-175000D01*
G01*
X66517000Y-96035000D01*
G75*
G02*
X66342000Y-96210000I-175000J0D01*
G01*
X65992000Y-96210000D01*
G75*
G02*
X65817000Y-96035000I0J175000D01*
G01*
X65817000Y-94535000D01*
G75*
G02*
X65992000Y-94360000I175000J0D01*
G01*
G37*
G36*
G01*
X67262000Y-94360000D02*
X67612000Y-94360000D01*
G75*
G02*
X67787000Y-94535000I0J-175000D01*
G01*
X67787000Y-96035000D01*
G75*
G02*
X67612000Y-96210000I-175000J0D01*
G01*
X67262000Y-96210000D01*
G75*
G02*
X67087000Y-96035000I0J175000D01*
G01*
X67087000Y-94535000D01*
G75*
G02*
X67262000Y-94360000I175000J0D01*
G01*
G37*
G36*
G01*
X68532000Y-94360000D02*
X68882000Y-94360000D01*
G75*
G02*
X69057000Y-94535000I0J-175000D01*
G01*
X69057000Y-96035000D01*
G75*
G02*
X68882000Y-96210000I-175000J0D01*
G01*
X68532000Y-96210000D01*
G75*
G02*
X68357000Y-96035000I0J175000D01*
G01*
X68357000Y-94535000D01*
G75*
G02*
X68532000Y-94360000I175000J0D01*
G01*
G37*
G36*
G01*
X69802000Y-94360000D02*
X70152000Y-94360000D01*
G75*
G02*
X70327000Y-94535000I0J-175000D01*
G01*
X70327000Y-96035000D01*
G75*
G02*
X70152000Y-96210000I-175000J0D01*
G01*
X69802000Y-96210000D01*
G75*
G02*
X69627000Y-96035000I0J175000D01*
G01*
X69627000Y-94535000D01*
G75*
G02*
X69802000Y-94360000I175000J0D01*
G01*
G37*
%TD*%
D12*
%TO.C,Q1*%
X43180000Y-100838000D03*
X44450000Y-100838000D03*
D13*
X41910000Y-100838000D03*
%TD*%
D14*
%TO.C,H2*%
X70460990Y-53273010D03*
X68870000Y-52614000D03*
X67279010Y-53273010D03*
X66620000Y-54864000D03*
X67279010Y-56454990D03*
X68870000Y-57114000D03*
X70460990Y-56454990D03*
X71120000Y-54864000D03*
D15*
X68870000Y-54864000D03*
%TD*%
%TO.C,H3*%
X68834000Y-101854000D03*
D14*
X71084000Y-101854000D03*
X70424990Y-103444990D03*
X68834000Y-104104000D03*
X67243010Y-103444990D03*
X66584000Y-101854000D03*
X67243010Y-100263010D03*
X68834000Y-99604000D03*
X70424990Y-100263010D03*
%TD*%
%TO.C,C1*%
G36*
G01*
X39343250Y-78848000D02*
X38380750Y-78848000D01*
G75*
G02*
X38112000Y-78579250I0J268750D01*
G01*
X38112000Y-78041750D01*
G75*
G02*
X38380750Y-77773000I268750J0D01*
G01*
X39343250Y-77773000D01*
G75*
G02*
X39612000Y-78041750I0J-268750D01*
G01*
X39612000Y-78579250D01*
G75*
G02*
X39343250Y-78848000I-268750J0D01*
G01*
G37*
G36*
G01*
X39343250Y-80723000D02*
X38380750Y-80723000D01*
G75*
G02*
X38112000Y-80454250I0J268750D01*
G01*
X38112000Y-79916750D01*
G75*
G02*
X38380750Y-79648000I268750J0D01*
G01*
X39343250Y-79648000D01*
G75*
G02*
X39612000Y-79916750I0J-268750D01*
G01*
X39612000Y-80454250D01*
G75*
G02*
X39343250Y-80723000I-268750J0D01*
G01*
G37*
%TD*%
%TO.C,C2*%
G36*
G01*
X60933250Y-89613000D02*
X59970750Y-89613000D01*
G75*
G02*
X59702000Y-89344250I0J268750D01*
G01*
X59702000Y-88806750D01*
G75*
G02*
X59970750Y-88538000I268750J0D01*
G01*
X60933250Y-88538000D01*
G75*
G02*
X61202000Y-88806750I0J-268750D01*
G01*
X61202000Y-89344250D01*
G75*
G02*
X60933250Y-89613000I-268750J0D01*
G01*
G37*
G36*
G01*
X60933250Y-87738000D02*
X59970750Y-87738000D01*
G75*
G02*
X59702000Y-87469250I0J268750D01*
G01*
X59702000Y-86931750D01*
G75*
G02*
X59970750Y-86663000I268750J0D01*
G01*
X60933250Y-86663000D01*
G75*
G02*
X61202000Y-86931750I0J-268750D01*
G01*
X61202000Y-87469250D01*
G75*
G02*
X60933250Y-87738000I-268750J0D01*
G01*
G37*
%TD*%
%TO.C,C4*%
G36*
G01*
X47016750Y-84123000D02*
X47979250Y-84123000D01*
G75*
G02*
X48248000Y-84391750I0J-268750D01*
G01*
X48248000Y-84929250D01*
G75*
G02*
X47979250Y-85198000I-268750J0D01*
G01*
X47016750Y-85198000D01*
G75*
G02*
X46748000Y-84929250I0J268750D01*
G01*
X46748000Y-84391750D01*
G75*
G02*
X47016750Y-84123000I268750J0D01*
G01*
G37*
G36*
G01*
X47016750Y-85998000D02*
X47979250Y-85998000D01*
G75*
G02*
X48248000Y-86266750I0J-268750D01*
G01*
X48248000Y-86804250D01*
G75*
G02*
X47979250Y-87073000I-268750J0D01*
G01*
X47016750Y-87073000D01*
G75*
G02*
X46748000Y-86804250I0J268750D01*
G01*
X46748000Y-86266750D01*
G75*
G02*
X47016750Y-85998000I268750J0D01*
G01*
G37*
%TD*%
%TO.C,C5*%
G36*
G01*
X46762750Y-89632500D02*
X47725250Y-89632500D01*
G75*
G02*
X47994000Y-89901250I0J-268750D01*
G01*
X47994000Y-90438750D01*
G75*
G02*
X47725250Y-90707500I-268750J0D01*
G01*
X46762750Y-90707500D01*
G75*
G02*
X46494000Y-90438750I0J268750D01*
G01*
X46494000Y-89901250D01*
G75*
G02*
X46762750Y-89632500I268750J0D01*
G01*
G37*
G36*
G01*
X46762750Y-91507500D02*
X47725250Y-91507500D01*
G75*
G02*
X47994000Y-91776250I0J-268750D01*
G01*
X47994000Y-92313750D01*
G75*
G02*
X47725250Y-92582500I-268750J0D01*
G01*
X46762750Y-92582500D01*
G75*
G02*
X46494000Y-92313750I0J268750D01*
G01*
X46494000Y-91776250D01*
G75*
G02*
X46762750Y-91507500I268750J0D01*
G01*
G37*
%TD*%
%TO.C,C6*%
G36*
G01*
X60933250Y-83928000D02*
X59970750Y-83928000D01*
G75*
G02*
X59702000Y-83659250I0J268750D01*
G01*
X59702000Y-83121750D01*
G75*
G02*
X59970750Y-82853000I268750J0D01*
G01*
X60933250Y-82853000D01*
G75*
G02*
X61202000Y-83121750I0J-268750D01*
G01*
X61202000Y-83659250D01*
G75*
G02*
X60933250Y-83928000I-268750J0D01*
G01*
G37*
G36*
G01*
X60933250Y-85803000D02*
X59970750Y-85803000D01*
G75*
G02*
X59702000Y-85534250I0J268750D01*
G01*
X59702000Y-84996750D01*
G75*
G02*
X59970750Y-84728000I268750J0D01*
G01*
X60933250Y-84728000D01*
G75*
G02*
X61202000Y-84996750I0J-268750D01*
G01*
X61202000Y-85534250D01*
G75*
G02*
X60933250Y-85803000I-268750J0D01*
G01*
G37*
%TD*%
%TO.C,C7*%
G36*
G01*
X63272750Y-93110000D02*
X64235250Y-93110000D01*
G75*
G02*
X64504000Y-93378750I0J-268750D01*
G01*
X64504000Y-93916250D01*
G75*
G02*
X64235250Y-94185000I-268750J0D01*
G01*
X63272750Y-94185000D01*
G75*
G02*
X63004000Y-93916250I0J268750D01*
G01*
X63004000Y-93378750D01*
G75*
G02*
X63272750Y-93110000I268750J0D01*
G01*
G37*
G36*
G01*
X63272750Y-91235000D02*
X64235250Y-91235000D01*
G75*
G02*
X64504000Y-91503750I0J-268750D01*
G01*
X64504000Y-92041250D01*
G75*
G02*
X64235250Y-92310000I-268750J0D01*
G01*
X63272750Y-92310000D01*
G75*
G02*
X63004000Y-92041250I0J268750D01*
G01*
X63004000Y-91503750D01*
G75*
G02*
X63272750Y-91235000I268750J0D01*
G01*
G37*
%TD*%
%TO.C,C8*%
G36*
G01*
X41197000Y-62711250D02*
X41197000Y-61748750D01*
G75*
G02*
X41465750Y-61480000I268750J0D01*
G01*
X42003250Y-61480000D01*
G75*
G02*
X42272000Y-61748750I0J-268750D01*
G01*
X42272000Y-62711250D01*
G75*
G02*
X42003250Y-62980000I-268750J0D01*
G01*
X41465750Y-62980000D01*
G75*
G02*
X41197000Y-62711250I0J268750D01*
G01*
G37*
G36*
G01*
X43072000Y-62711250D02*
X43072000Y-61748750D01*
G75*
G02*
X43340750Y-61480000I268750J0D01*
G01*
X43878250Y-61480000D01*
G75*
G02*
X44147000Y-61748750I0J-268750D01*
G01*
X44147000Y-62711250D01*
G75*
G02*
X43878250Y-62980000I-268750J0D01*
G01*
X43340750Y-62980000D01*
G75*
G02*
X43072000Y-62711250I0J268750D01*
G01*
G37*
%TD*%
%TO.C,C9*%
G36*
G01*
X50214000Y-62711250D02*
X50214000Y-61748750D01*
G75*
G02*
X50482750Y-61480000I268750J0D01*
G01*
X51020250Y-61480000D01*
G75*
G02*
X51289000Y-61748750I0J-268750D01*
G01*
X51289000Y-62711250D01*
G75*
G02*
X51020250Y-62980000I-268750J0D01*
G01*
X50482750Y-62980000D01*
G75*
G02*
X50214000Y-62711250I0J268750D01*
G01*
G37*
G36*
G01*
X52089000Y-62711250D02*
X52089000Y-61748750D01*
G75*
G02*
X52357750Y-61480000I268750J0D01*
G01*
X52895250Y-61480000D01*
G75*
G02*
X53164000Y-61748750I0J-268750D01*
G01*
X53164000Y-62711250D01*
G75*
G02*
X52895250Y-62980000I-268750J0D01*
G01*
X52357750Y-62980000D01*
G75*
G02*
X52089000Y-62711250I0J268750D01*
G01*
G37*
%TD*%
%TO.C,R1*%
G36*
G01*
X47471250Y-69214500D02*
X46508750Y-69214500D01*
G75*
G02*
X46240000Y-68945750I0J268750D01*
G01*
X46240000Y-68408250D01*
G75*
G02*
X46508750Y-68139500I268750J0D01*
G01*
X47471250Y-68139500D01*
G75*
G02*
X47740000Y-68408250I0J-268750D01*
G01*
X47740000Y-68945750D01*
G75*
G02*
X47471250Y-69214500I-268750J0D01*
G01*
G37*
G36*
G01*
X47471250Y-67339500D02*
X46508750Y-67339500D01*
G75*
G02*
X46240000Y-67070750I0J268750D01*
G01*
X46240000Y-66533250D01*
G75*
G02*
X46508750Y-66264500I268750J0D01*
G01*
X47471250Y-66264500D01*
G75*
G02*
X47740000Y-66533250I0J-268750D01*
G01*
X47740000Y-67070750D01*
G75*
G02*
X47471250Y-67339500I-268750J0D01*
G01*
G37*
%TD*%
%TO.C,R3*%
G36*
G01*
X39343250Y-92056000D02*
X38380750Y-92056000D01*
G75*
G02*
X38112000Y-91787250I0J268750D01*
G01*
X38112000Y-91249750D01*
G75*
G02*
X38380750Y-90981000I268750J0D01*
G01*
X39343250Y-90981000D01*
G75*
G02*
X39612000Y-91249750I0J-268750D01*
G01*
X39612000Y-91787250D01*
G75*
G02*
X39343250Y-92056000I-268750J0D01*
G01*
G37*
G36*
G01*
X39343250Y-93931000D02*
X38380750Y-93931000D01*
G75*
G02*
X38112000Y-93662250I0J268750D01*
G01*
X38112000Y-93124750D01*
G75*
G02*
X38380750Y-92856000I268750J0D01*
G01*
X39343250Y-92856000D01*
G75*
G02*
X39612000Y-93124750I0J-268750D01*
G01*
X39612000Y-93662250D01*
G75*
G02*
X39343250Y-93931000I-268750J0D01*
G01*
G37*
%TD*%
%TO.C,R4*%
G36*
G01*
X39008000Y-62711250D02*
X39008000Y-61748750D01*
G75*
G02*
X39276750Y-61480000I268750J0D01*
G01*
X39814250Y-61480000D01*
G75*
G02*
X40083000Y-61748750I0J-268750D01*
G01*
X40083000Y-62711250D01*
G75*
G02*
X39814250Y-62980000I-268750J0D01*
G01*
X39276750Y-62980000D01*
G75*
G02*
X39008000Y-62711250I0J268750D01*
G01*
G37*
G36*
G01*
X37133000Y-62711250D02*
X37133000Y-61748750D01*
G75*
G02*
X37401750Y-61480000I268750J0D01*
G01*
X37939250Y-61480000D01*
G75*
G02*
X38208000Y-61748750I0J-268750D01*
G01*
X38208000Y-62711250D01*
G75*
G02*
X37939250Y-62980000I-268750J0D01*
G01*
X37401750Y-62980000D01*
G75*
G02*
X37133000Y-62711250I0J268750D01*
G01*
G37*
%TD*%
%TO.C,R5*%
G36*
G01*
X46150000Y-62711250D02*
X46150000Y-61748750D01*
G75*
G02*
X46418750Y-61480000I268750J0D01*
G01*
X46956250Y-61480000D01*
G75*
G02*
X47225000Y-61748750I0J-268750D01*
G01*
X47225000Y-62711250D01*
G75*
G02*
X46956250Y-62980000I-268750J0D01*
G01*
X46418750Y-62980000D01*
G75*
G02*
X46150000Y-62711250I0J268750D01*
G01*
G37*
G36*
G01*
X48025000Y-62711250D02*
X48025000Y-61748750D01*
G75*
G02*
X48293750Y-61480000I268750J0D01*
G01*
X48831250Y-61480000D01*
G75*
G02*
X49100000Y-61748750I0J-268750D01*
G01*
X49100000Y-62711250D01*
G75*
G02*
X48831250Y-62980000I-268750J0D01*
G01*
X48293750Y-62980000D01*
G75*
G02*
X48025000Y-62711250I0J268750D01*
G01*
G37*
%TD*%
D15*
%TO.C,H4*%
X32766000Y-54864000D03*
D14*
X35016000Y-54864000D03*
X34356990Y-56454990D03*
X32766000Y-57114000D03*
X31175010Y-56454990D03*
X30516000Y-54864000D03*
X31175010Y-53273010D03*
X32766000Y-52614000D03*
X34356990Y-53273010D03*
%TD*%
D15*
%TO.C,H1*%
X32766000Y-101854000D03*
D14*
X35016000Y-101854000D03*
X34356990Y-103444990D03*
X32766000Y-104104000D03*
X31175010Y-103444990D03*
X30516000Y-101854000D03*
X31175010Y-100263010D03*
X32766000Y-99604000D03*
X34356990Y-100263010D03*
%TD*%
D16*
%TO.C,J1*%
X33782000Y-66548000D03*
X33782000Y-69088000D03*
X33782000Y-71628000D03*
G36*
G01*
X34662633Y-75088000D02*
X32901367Y-75088000D01*
G75*
G02*
X32637000Y-74823633I0J264367D01*
G01*
X32637000Y-73512367D01*
G75*
G02*
X32901367Y-73248000I264367J0D01*
G01*
X34662633Y-73248000D01*
G75*
G02*
X34927000Y-73512367I0J-264367D01*
G01*
X34927000Y-74823633D01*
G75*
G02*
X34662633Y-75088000I-264367J0D01*
G01*
G37*
%TD*%
%TO.C,J2*%
X33782000Y-78740000D03*
G36*
G01*
X34662633Y-82200000D02*
X32901367Y-82200000D01*
G75*
G02*
X32637000Y-81935633I0J264367D01*
G01*
X32637000Y-80624367D01*
G75*
G02*
X32901367Y-80360000I264367J0D01*
G01*
X34662633Y-80360000D01*
G75*
G02*
X34927000Y-80624367I0J-264367D01*
G01*
X34927000Y-81935633D01*
G75*
G02*
X34662633Y-82200000I-264367J0D01*
G01*
G37*
%TD*%
%TO.C,J3*%
G36*
G01*
X34662633Y-89312000D02*
X32901367Y-89312000D01*
G75*
G02*
X32637000Y-89047633I0J264367D01*
G01*
X32637000Y-87736367D01*
G75*
G02*
X32901367Y-87472000I264367J0D01*
G01*
X34662633Y-87472000D01*
G75*
G02*
X34927000Y-87736367I0J-264367D01*
G01*
X34927000Y-89047633D01*
G75*
G02*
X34662633Y-89312000I-264367J0D01*
G01*
G37*
X33782000Y-85852000D03*
%TD*%
%TO.C,J4*%
G36*
G01*
X67191367Y-82138000D02*
X68952633Y-82138000D01*
G75*
G02*
X69217000Y-82402367I0J-264367D01*
G01*
X69217000Y-83713633D01*
G75*
G02*
X68952633Y-83978000I-264367J0D01*
G01*
X67191367Y-83978000D01*
G75*
G02*
X66927000Y-83713633I0J264367D01*
G01*
X66927000Y-82402367D01*
G75*
G02*
X67191367Y-82138000I264367J0D01*
G01*
G37*
X68072000Y-85598000D03*
%TD*%
D17*
%TO.C,J5*%
X41148000Y-56896000D03*
G36*
G01*
X37688000Y-57776633D02*
X37688000Y-56015367D01*
G75*
G02*
X37952367Y-55751000I264367J0D01*
G01*
X39263633Y-55751000D01*
G75*
G02*
X39528000Y-56015367I0J-264367D01*
G01*
X39528000Y-57776633D01*
G75*
G02*
X39263633Y-58041000I-264367J0D01*
G01*
X37952367Y-58041000D01*
G75*
G02*
X37688000Y-57776633I0J264367D01*
G01*
G37*
%TD*%
%TO.C,J6*%
G36*
G01*
X46705000Y-57776633D02*
X46705000Y-56015367D01*
G75*
G02*
X46969367Y-55751000I264367J0D01*
G01*
X48280633Y-55751000D01*
G75*
G02*
X48545000Y-56015367I0J-264367D01*
G01*
X48545000Y-57776633D01*
G75*
G02*
X48280633Y-58041000I-264367J0D01*
G01*
X46969367Y-58041000D01*
G75*
G02*
X46705000Y-57776633I0J264367D01*
G01*
G37*
X50165000Y-56896000D03*
%TD*%
D16*
%TO.C,J7*%
X33782000Y-92964000D03*
G36*
G01*
X34662633Y-96424000D02*
X32901367Y-96424000D01*
G75*
G02*
X32637000Y-96159633I0J264367D01*
G01*
X32637000Y-94848367D01*
G75*
G02*
X32901367Y-94584000I264367J0D01*
G01*
X34662633Y-94584000D01*
G75*
G02*
X34927000Y-94848367I0J-264367D01*
G01*
X34927000Y-96159633D01*
G75*
G02*
X34662633Y-96424000I-264367J0D01*
G01*
G37*
%TD*%
%TO.C,J8*%
G36*
G01*
X67191367Y-62834000D02*
X68952633Y-62834000D01*
G75*
G02*
X69217000Y-63098367I0J-264367D01*
G01*
X69217000Y-64409633D01*
G75*
G02*
X68952633Y-64674000I-264367J0D01*
G01*
X67191367Y-64674000D01*
G75*
G02*
X66927000Y-64409633I0J264367D01*
G01*
X66927000Y-63098367D01*
G75*
G02*
X67191367Y-62834000I264367J0D01*
G01*
G37*
X68072000Y-66294000D03*
X68072000Y-68834000D03*
X68072000Y-71374000D03*
%TD*%
%TO.C,C10*%
G36*
G01*
X59231000Y-62711250D02*
X59231000Y-61748750D01*
G75*
G02*
X59499750Y-61480000I268750J0D01*
G01*
X60037250Y-61480000D01*
G75*
G02*
X60306000Y-61748750I0J-268750D01*
G01*
X60306000Y-62711250D01*
G75*
G02*
X60037250Y-62980000I-268750J0D01*
G01*
X59499750Y-62980000D01*
G75*
G02*
X59231000Y-62711250I0J268750D01*
G01*
G37*
G36*
G01*
X61106000Y-62711250D02*
X61106000Y-61748750D01*
G75*
G02*
X61374750Y-61480000I268750J0D01*
G01*
X61912250Y-61480000D01*
G75*
G02*
X62181000Y-61748750I0J-268750D01*
G01*
X62181000Y-62711250D01*
G75*
G02*
X61912250Y-62980000I-268750J0D01*
G01*
X61374750Y-62980000D01*
G75*
G02*
X61106000Y-62711250I0J268750D01*
G01*
G37*
%TD*%
%TO.C,J9*%
G36*
G01*
X55722000Y-57776633D02*
X55722000Y-56015367D01*
G75*
G02*
X55986367Y-55751000I264367J0D01*
G01*
X57297633Y-55751000D01*
G75*
G02*
X57562000Y-56015367I0J-264367D01*
G01*
X57562000Y-57776633D01*
G75*
G02*
X57297633Y-58041000I-264367J0D01*
G01*
X55986367Y-58041000D01*
G75*
G02*
X55722000Y-57776633I0J264367D01*
G01*
G37*
D17*
X59182000Y-56896000D03*
%TD*%
%TO.C,R6*%
G36*
G01*
X55167000Y-62711250D02*
X55167000Y-61748750D01*
G75*
G02*
X55435750Y-61480000I268750J0D01*
G01*
X55973250Y-61480000D01*
G75*
G02*
X56242000Y-61748750I0J-268750D01*
G01*
X56242000Y-62711250D01*
G75*
G02*
X55973250Y-62980000I-268750J0D01*
G01*
X55435750Y-62980000D01*
G75*
G02*
X55167000Y-62711250I0J268750D01*
G01*
G37*
G36*
G01*
X57042000Y-62711250D02*
X57042000Y-61748750D01*
G75*
G02*
X57310750Y-61480000I268750J0D01*
G01*
X57848250Y-61480000D01*
G75*
G02*
X58117000Y-61748750I0J-268750D01*
G01*
X58117000Y-62711250D01*
G75*
G02*
X57848250Y-62980000I-268750J0D01*
G01*
X57310750Y-62980000D01*
G75*
G02*
X57042000Y-62711250I0J268750D01*
G01*
G37*
%TD*%
D18*
%TO.C,D1*%
X62992000Y-82422000D03*
X62992000Y-79122000D03*
%TD*%
%TO.C,J10*%
G36*
G01*
X67191367Y-75026000D02*
X68952633Y-75026000D01*
G75*
G02*
X69217000Y-75290367I0J-264367D01*
G01*
X69217000Y-76601633D01*
G75*
G02*
X68952633Y-76866000I-264367J0D01*
G01*
X67191367Y-76866000D01*
G75*
G02*
X66927000Y-76601633I0J264367D01*
G01*
X66927000Y-75290367D01*
G75*
G02*
X67191367Y-75026000I264367J0D01*
G01*
G37*
D16*
X68072000Y-78486000D03*
%TD*%
D19*
%TO.C,Q2*%
X61976000Y-74676000D03*
X61976000Y-73406000D03*
D20*
X61976000Y-75946000D03*
%TD*%
%TO.C,R7*%
G36*
G01*
X59716750Y-78281000D02*
X60679250Y-78281000D01*
G75*
G02*
X60948000Y-78549750I0J-268750D01*
G01*
X60948000Y-79087250D01*
G75*
G02*
X60679250Y-79356000I-268750J0D01*
G01*
X59716750Y-79356000D01*
G75*
G02*
X59448000Y-79087250I0J268750D01*
G01*
X59448000Y-78549750D01*
G75*
G02*
X59716750Y-78281000I268750J0D01*
G01*
G37*
G36*
G01*
X59716750Y-80156000D02*
X60679250Y-80156000D01*
G75*
G02*
X60948000Y-80424750I0J-268750D01*
G01*
X60948000Y-80962250D01*
G75*
G02*
X60679250Y-81231000I-268750J0D01*
G01*
X59716750Y-81231000D01*
G75*
G02*
X59448000Y-80962250I0J268750D01*
G01*
X59448000Y-80424750D01*
G75*
G02*
X59716750Y-80156000I268750J0D01*
G01*
G37*
%TD*%
D21*
%TO.C,Y1*%
X43180000Y-94674000D03*
X43180000Y-86174000D03*
%TD*%
%TO.C,D2*%
G36*
G01*
X39581000Y-75331000D02*
X39581000Y-74021000D01*
G75*
G02*
X39851000Y-73751000I270000J0D01*
G01*
X40661000Y-73751000D01*
G75*
G02*
X40931000Y-74021000I0J-270000D01*
G01*
X40931000Y-75331000D01*
G75*
G02*
X40661000Y-75601000I-270000J0D01*
G01*
X39851000Y-75601000D01*
G75*
G02*
X39581000Y-75331000I0J270000D01*
G01*
G37*
G36*
G01*
X42381000Y-75331000D02*
X42381000Y-74021000D01*
G75*
G02*
X42651000Y-73751000I270000J0D01*
G01*
X43461000Y-73751000D01*
G75*
G02*
X43731000Y-74021000I0J-270000D01*
G01*
X43731000Y-75331000D01*
G75*
G02*
X43461000Y-75601000I-270000J0D01*
G01*
X42651000Y-75601000D01*
G75*
G02*
X42381000Y-75331000I0J270000D01*
G01*
G37*
%TD*%
%TO.C,R8*%
G36*
G01*
X43153250Y-81739000D02*
X42190750Y-81739000D01*
G75*
G02*
X41922000Y-81470250I0J268750D01*
G01*
X41922000Y-80932750D01*
G75*
G02*
X42190750Y-80664000I268750J0D01*
G01*
X43153250Y-80664000D01*
G75*
G02*
X43422000Y-80932750I0J-268750D01*
G01*
X43422000Y-81470250D01*
G75*
G02*
X43153250Y-81739000I-268750J0D01*
G01*
G37*
G36*
G01*
X43153250Y-79864000D02*
X42190750Y-79864000D01*
G75*
G02*
X41922000Y-79595250I0J268750D01*
G01*
X41922000Y-79057750D01*
G75*
G02*
X42190750Y-78789000I268750J0D01*
G01*
X43153250Y-78789000D01*
G75*
G02*
X43422000Y-79057750I0J-268750D01*
G01*
X43422000Y-79595250D01*
G75*
G02*
X43153250Y-79864000I-268750J0D01*
G01*
G37*
%TD*%
M02*
